<?xml version="1.0" standalone="no"?>
<!DOCTYPE svg PUBLIC "-//W3C//DTD SVG 1.1//EN" "http://www.w3.org/Graphics/SVG/1.1/DTD/svg11.dtd" >
<svg>
<metadata>
Created by FontForge 20090914 at Fri Jan  8 10:20:12 2016
 By www-data
&#194;&#169; 2000, Karen Clemens &#38; Apostrophe ('). All rights reserved. Distribute freely. apostrofe@mail.com
</metadata>
<defs>
<font id="Wellbutrin" horiz-adv-x="609" >
  <font-face 
    font-family="Wellbutrin"
    font-weight="500"
    font-stretch="normal"
    units-per-em="1000"
    panose-1="2 0 6 3 2 0 0 2 0 4"
    ascent="783"
    descent="-217"
    x-height="591"
    cap-height="783"
    bbox="-76 -308.999 1283 1053"
    underline-thickness="20"
    underline-position="-123"
    unicode-range="U+0006-U+2122"
  />
<missing-glyph horiz-adv-x="500" 
 />
    <glyph glyph-name=".notdef" horiz-adv-x="500" 
 />
    <glyph glyph-name="dotaccent" horiz-adv-x="203" 
d="M173 647c0 -7.33301 -2.33301 -13.333 -7 -18s-10.667 -7 -18 -7h-86c-7.33301 0 -13.333 2.33301 -18 7s-7 10.667 -7 18v87c0 7.33301 2.33301 13.333 7 18s10.667 7 18 7h86c7.33301 0 13.333 -2.33301 18 -7s7 -10.667 7 -18v-87v0z" />
    <glyph glyph-name="ring" horiz-adv-x="257" 
d="M225 627c0 -9.33301 -3.16699 -17.5 -9.5 -24.5s-15.166 -10.5 -26.499 -10.5h-119c-9.33301 0 -17.5 3.5 -24.5 10.5s-10.5 15.167 -10.5 24.5v123c0 9.33301 3.5 17.333 10.5 24s15.167 10 24.5 10h119c11.333 0 20.166 -3.33301 26.499 -10s9.5 -14.667 9.5 -24v-123
v0zM193 724c0 6.66699 -2.16699 12 -6.5 16s-9.5 6 -15.5 6h-78c-6.66699 0 -12.167 -2 -16.5 -6s-6.5 -9.33301 -6.5 -16v-78c0 -6.66699 2.16699 -12 6.5 -16s9.83301 -6 16.5 -6h78c6 0 11.167 2 15.5 6s6.5 9.33301 6.5 16v78z" />
    <glyph glyph-name="ogonek" horiz-adv-x="288" 
d="M233 454c6.66699 0 12 -2.66797 16 -8.00098s5.33301 -17.666 4 -36.999v-76c0 -6.66699 -2.33301 -12.167 -7 -16.5s-10 -6.5 -16 -6.5h-65v-63h65c6 0 11.333 -2.16699 16 -6.5s7 -9.5 7 -15.5v-78c0 -6.66699 -2.33301 -12.167 -7 -16.5s-9.66699 -6.5 -15 -6.5h-88
c-6.66699 0 -12.167 2.33301 -16.5 7s-6.5 10 -6.5 16v24h-63c-6.66699 0 -12.167 2.16699 -16.5 6.5s-6.5 9.83301 -6.5 16.5v139c0 6 2.16699 11.167 6.5 15.5s9.83301 6.5 16.5 6.5h63v76c0 6.66699 2.16699 12.167 6.5 16.5s9.83301 6.5 16.5 6.5h90v0z" />
    <glyph glyph-name="caron" horiz-adv-x="400" 
d="M361 765l0.000976562 -90c0 -6.66699 -2.16699 -12.167 -6.5 -16.5s-9.83301 -6.5 -16.5 -6.5h-76v-63c0 -6.66699 -2.16699 -12.167 -6.5 -16.5s-9.5 -6.5 -15.5 -6.5h-87c-6.66699 0 -12.167 2.16699 -16.5 6.5s-6.5 9.83301 -6.5 16.5v63h-76
c-6 0 -11.333 2.16699 -16 6.5s-7 9.83301 -7 16.5v88c0 5.33301 2.16699 10.333 6.5 15s9.83301 7 16.5 7h99c6 0 11.167 -2.33301 15.5 -7s6.5 -10 6.5 -16v-65h42v65c0 6 2.16699 11.333 6.5 16s9.83301 7 16.5 7h76c19.333 1.33301 31.666 0 36.999 -4s8 -9.33301 8 -16
z" />
    <glyph glyph-name="dotlessi" unicode="&#xd;" horiz-adv-x="221" 
d="M179 26c0 -7.33301 -2.5 -13.5 -7.5 -18.5s-10.833 -7.5 -17.5 -7.5h-88c-7.33301 0 -13.333 2.5 -18 7.5s-7 11.167 -7 18.5v541c0 7.33301 2.33301 13.333 7 18s10.667 7 18 7h88c6.66699 0 12.5 -2.33301 17.5 -7s7.5 -10.667 7.5 -18v-541v0z" />
    <glyph glyph-name="fraction" horiz-adv-x="474" 
d="M437 577c0 -6.66699 -2.16699 -12.167 -6.5 -16.5s-9.83301 -6.5 -16.5 -6.5h-65v-161c0 -6 -2.16699 -11.167 -6.5 -15.5s-9.5 -6.5 -15.5 -6.5h-65v-161c0 -6.66699 -2.33301 -12.167 -7 -16.5s-10 -6.5 -16 -6.5h-65v-161c0 -6 -2.16699 -11.167 -6.5 -15.5
s-9.83301 -6.5 -16.5 -6.5h-87c-6.66699 0 -12.167 2.16699 -16.5 6.5s-6.5 9.5 -6.5 15.5v184c0 6 2.16699 11.167 6.5 15.5s9.83301 6.5 16.5 6.5h65v161c0 6.66699 2.16699 12.167 6.5 16.5s9.5 6.5 15.5 6.5h65v161c0 6 2.33301 11.167 7 15.5s10 6.5 16 6.5h65v161
c0 6.66699 2.16699 12.167 6.5 16.5s9.83301 6.5 16.5 6.5h87c6.66699 0 12.167 -2.16699 16.5 -6.5s6.5 -9.83301 6.5 -16.5v-183v0z" />
    <glyph glyph-name="fi" horiz-adv-x="553" 
d="M523 25c0 -7.33301 -2.5 -13.5 -7.5 -18.5s-10.833 -7.5 -17.5 -7.5h-88c-7.33301 0 -13.333 2.5 -18 7.5s-7 11.167 -7 18.5v431h-88v-431c0 -7.33301 -2.33301 -13.333 -7 -18s-10.667 -7 -18 -7h-87c-7.33301 -0 -13.333 2.33301 -18 7s-7 10.667 -7 18v431h-108
c-7.33301 0 -13.333 2.5 -18 7.5s-7 10.833 -7 17.5v86c0 7.33301 2.33301 13.333 7 18s10.667 7 18 7h108v81c0 7.33301 2.33301 13.333 7 18s10.667 7 18 7h62v60c0 7.33301 2.33301 13.333 7 18s10.667 7 18 7h186c7.33301 0 13.333 -2.33301 18 -7s7 -10.667 7 -18v-85
c0 -7.33301 -2.33301 -13.333 -7 -18s-10.667 -7 -18 -7h-161v-56l201 -1c6.66699 0 12.5 -2.33301 17.5 -7s7.5 -10.667 7.5 -18v-541v0z" />
    <glyph glyph-name="fl" horiz-adv-x="502" 
d="M409 592c14.667 0 23 -7.33301 25 -22v78h-137v-56h112v0zM572 25c0 -7.33301 -2.33398 -13.333 -7.00098 -18s-10.667 -7 -18 -7h-88c-7.33301 -0 -13.333 2.33301 -18 7s-7 10.667 -7 18v453c-1.33301 -6 -4.16602 -11.167 -8.49902 -15.5s-9.83301 -6.5 -16.5 -6.5
h-112v-431c0 -7.33301 -2.33301 -13.333 -7 -18s-10.667 -7 -18 -7h-87c-7.33301 -0 -13.333 2.33301 -18 7s-7 10.667 -7 18v431h-108c-7.33301 0 -13.333 2.5 -18 7.5s-7 10.833 -7 17.5v86c0 7.33301 2.33301 13.333 7 18s10.667 7 18 7h108v81
c0 7.33301 2.33301 13.333 7 18s10.667 7 18 7h62v60c0 7.33301 2.33301 13.333 7 18s10.667 7 18 7h186h1h88c7.33301 0 13.333 -2.33301 18 -7s7 -10.667 7 -18v-733v0z" />
    <glyph glyph-name="Zcaron" horiz-adv-x="732" 
d="M706 27c0 -7.33301 -2.33203 -13.333 -6.99902 -18s-10.667 -7 -18 -7l-615 -1c-3.33301 1.33301 -6.5 2.33301 -9.5 3s-5.5 2.33398 -7.5 5.00098c-5.33301 5.33301 -8 11.333 -8 18v325c0 7.33301 2.33301 13.333 7 18s10.667 7 18 7h61v61
c0 7.33301 2.33301 13.333 7 18s10.667 7 18 7h418v184h-504c-7.33301 0 -13.333 2.33301 -18 7s-7 10.667 -7 18v86c0 7.33301 2.33301 13.333 7 18s10.667 7 18 7h615c7.33301 0 13.333 -2.33301 18 -7s7 -10.667 7 -18v-320c0 -7.33301 -2.33301 -13.333 -7 -18
s-10.667 -7 -18 -7h-61v-61c0 -7.33301 -2.33301 -13.333 -7 -18s-10.667 -7 -18 -7h-418v-188h504c7.33301 0 13.333 -2.33301 18 -7s7 -10.667 7 -18c0 -3.33301 -0.333008 -6.33301 -1 -9s-1.16699 -6.83398 -1.5 -12.501s-0.333008 -13.5 0 -23.5
s1.16602 -24 2.49902 -42zM551.001 983l0.000976562 -90c0 -6.66699 -2.16699 -12.167 -6.5 -16.5s-9.83301 -6.5 -16.5 -6.5h-76v-63c0 -6.66699 -2.16699 -12.167 -6.5 -16.5s-9.5 -6.5 -15.5 -6.5h-87c-6.66699 0 -12.167 2.16699 -16.5 6.5s-6.5 9.83301 -6.5 16.5v63
h-76c-6 0 -11.333 2.16699 -16 6.5s-7 9.83301 -7 16.5v88c0 5.33301 2.16699 10.333 6.5 15s9.83301 7 16.5 7h99c6 0 11.167 -2.33301 15.5 -7s6.5 -10 6.5 -16v-65h42v65c0 6 2.16699 11.333 6.5 16s9.83301 7 16.5 7h76c19.333 1.33301 31.666 0 36.999 -4
s8 -9.33301 8 -16z" />
    <glyph glyph-name="zcaron" horiz-adv-x="600" 
d="M550 25c0 -7.33301 -2.33301 -13.333 -7 -18s-10.667 -7 -18 -7h-458c-7.33301 -0 -13.5 2.33301 -18.5 7s-7.5 10.667 -7.5 18v184c0 7.33301 2.5 13.333 7.5 18s11.167 7 18.5 7h62v61c0 6.66699 2.33301 12.5 7 17.5s10.667 7.5 18 7.5h116v60
c0 7.33301 2.5 13.333 7.5 18s10.833 7 17.5 7h117v49h-346c-7.33301 0 -13.333 2.33301 -18 7s-7 10.667 -7 18v87c0 7.33301 2.33301 13.333 7 18s10.667 7 18 7h459c6.66699 0 12.5 -2.33301 17.5 -7s7.5 -10.667 7.5 -18v-186c0 -7.33301 -2.66699 -13 -8 -17
c-4 -5.33301 -9.66699 -8 -17 -8h-63v-60c0 -7.33301 -2.33301 -13.5 -7 -18.5s-10.667 -7.5 -18 -7.5h-116v-60c0 -7.33301 -2.5 -13.333 -7.5 -18s-11.167 -7 -18.5 -7h-116v-48h346c7.33301 0 13.333 -2.33301 18 -7s7 -10.667 7 -18v-86v0zM453 784l0.000976562 -90
c0 -6.66699 -2.16699 -12.167 -6.5 -16.5s-9.83301 -6.5 -16.5 -6.5h-76v-63c0 -6.66699 -2.16699 -12.167 -6.5 -16.5s-9.5 -6.5 -15.5 -6.5h-87c-6.66699 0 -12.167 2.16699 -16.5 6.5s-6.5 9.83301 -6.5 16.5v63h-76c-6 0 -11.333 2.16699 -16 6.5s-7 9.83301 -7 16.5v88
c0 5.33301 2.16699 10.333 6.5 15s9.83301 7 16.5 7h99c6 0 11.167 -2.33301 15.5 -7s6.5 -10 6.5 -16v-65h42v65c0 6 2.16699 11.333 6.5 16s9.83301 7 16.5 7h76c19.333 1.33301 31.666 0 36.999 -4s8 -9.33301 8 -16z" />
    <glyph glyph-name="space" unicode=" " horiz-adv-x="304" 
 />
    <glyph glyph-name="space" unicode="&#xa0;" horiz-adv-x="304" 
 />
    <glyph glyph-name="exclam" unicode="!" horiz-adv-x="239" 
d="M179 26c0 -6.66699 -2.66699 -12.667 -8 -18c-4 -5.33301 -9.66699 -8 -17 -8h-88c-7.33301 0 -13.333 2.5 -18 7.5s-7 11.167 -7 18.5v85c0 7.33301 2.33301 13.333 7 18s10.667 7 18 7h88c6.66699 0 12.5 -2.33301 17.5 -7s7.5 -10.667 7.5 -18v-85v0zM179 217
c0 -7.33301 -2.5 -13.333 -7.5 -18s-10.833 -7 -17.5 -7h-88c-7.33301 0 -13.333 2.33301 -18 7s-7 10.667 -7 18v541c0 7.33301 2.33301 13.333 7 18s10.667 7 18 7h88c6.66699 0 12.5 -2.33301 17.5 -7s7.5 -10.667 7.5 -18v-541v0z" />
    <glyph glyph-name="quotedbl" unicode="&#x22;" horiz-adv-x="413" 
d="M177 584c0 -7.33301 -2.33301 -13.333 -7 -18s-10.667 -7 -18 -7h-86c-7.33301 0 -13.333 2.33301 -18 7s-7 10.667 -7 18v174c0 7.33301 2.33301 13.333 7 18s10.667 7 18 7h86c7.33301 0 13.333 -2.33301 18 -7s7 -10.667 7 -18v-174v0zM354 584
c0 -7.33301 -2.5 -13.333 -7.5 -18s-10.833 -7 -17.5 -7h-86c-7.33301 0 -13.333 2.33301 -18 7s-7 10.667 -7 18v174c0 7.33301 2.33301 13.333 7 18s10.667 7 18 7h86c6.66699 0 12.5 -2.33301 17.5 -7s7.5 -10.667 7.5 -18v-174v0z" />
    <glyph glyph-name="numbersign" unicode="#" horiz-adv-x="595" 
d="M326 477h-65v-175h65v175zM545 201c0 -6 -2.16602 -11.167 -6.49902 -15.5s-9.5 -6.5 -15.5 -6.5h-65v-152c0 -6 -2.16699 -11.333 -6.5 -16s-9.83301 -7 -16.5 -7h-87c-6 0 -11.167 2.33301 -15.5 7s-6.5 10 -6.5 16v152h-65v-152c0 -6 -2.16699 -11.333 -6.5 -16
s-9.83301 -7 -16.5 -7h-87c-6 0 -11.333 2.33301 -16 7s-7 10 -7 16v152h-64c-6.66699 0 -12.167 2.16699 -16.5 6.5s-6.5 9.5 -6.5 15.5v88c0 6 2.16699 11.167 6.5 15.5s9.83301 6.5 16.5 6.5h64v166h-64c-6.66699 0 -12.167 2.16699 -16.5 6.5s-6.5 9.83301 -6.5 16.5v87
c0 6.66699 2.16699 12.167 6.5 16.5s9.83301 6.5 16.5 6.5h64v150c0 6.66699 2.33301 12.167 7 16.5s10 6.5 16 6.5h87c6.66699 0 12.167 -2.16699 16.5 -6.5s6.5 -9.83301 6.5 -16.5v-150h65v150c0 6.66699 2.16699 12.167 6.5 16.5s9.5 6.5 15.5 6.5h87
c6.66699 0 12.167 -2.16699 16.5 -6.5s6.5 -9.83301 6.5 -16.5v-150h65c6 0 11.167 -2.16699 15.5 -6.5s6.5 -9.83301 6.5 -16.5v-87c0 -6.66699 -2.16699 -12.167 -6.5 -16.5s-9.5 -6.5 -15.5 -6.5h-65v-166h65c6 0 11.167 -2.16699 15.5 -6.5s6.5 -9.5 6.5 -15.5
c0 -3.33301 0.166992 -6.83301 0.5 -10.5s0.666016 -8.5 0.999023 -14.5s0.5 -14 0.5 -24s-0.666992 -23 -2 -39z" />
    <glyph glyph-name="dollar" unicode="$" horiz-adv-x="594" 
d="M549 200c0 -7.33301 -2.33301 -13.333 -7 -18s-10.667 -7 -18 -7h-61v-62c0 -6.66699 -2.33301 -12.5 -7 -17.5s-10.667 -7.5 -18 -7.5h-76v-62c0 -6.66699 -2.33301 -12.5 -7 -17.5s-10.667 -7.5 -18 -7.5h-86c-7.33301 0 -13.333 2.5 -18 7.5s-7 10.833 -7 17.5v62
h-160c-7.33301 0 -13.333 2.5 -18 7.5s-7 10.833 -7 17.5v87c0 7.33301 2.33301 13.333 7 18s10.667 7 18 7h160v100h-74c-7.33301 0 -13.333 2.33301 -18 7s-7 10.667 -7 18v60h-61c-7.33301 0 -13.333 2.5 -18 7.5s-7 11.167 -7 18.5v150c0 7.33301 2.33301 13.333 7 18
s10.667 7 18 7h61v61c0 7.33301 2.33301 13.333 7 18s10.667 7 18 7h74v61c0 7.33301 2.33301 13.333 7 18s10.667 7 18 7h86c7.33301 0 13.333 -2.33301 18 -7s7 -10.667 7 -18v-61h162c7.33301 0 13.333 -2.33301 18 -7s7 -10.667 7 -18v-86
c0 -7.33301 -2.33301 -13.333 -7 -18s-10.667 -7 -18 -7h-162v-100h76c7.33301 0 13.333 -2.5 18 -7.5s7 -10.833 7 -17.5v-61h61c7.33301 0 13.333 -2.33301 18 -7s7 -10.667 7 -18v-150v0z" />
    <glyph glyph-name="percent" unicode="%" horiz-adv-x="612" 
d="M552 112c0 -7.33301 -2.33301 -13.333 -7 -18s-10.667 -7 -18 -7h-88c-7.33301 0 -13.333 2.33301 -18 7s-7 10.667 -7 18v175c0 7.33301 2.33301 13.333 7 18s10.667 7 18 7h88c7.33301 0 13.333 -2.33301 18 -7s7 -10.667 7 -18v-175v0zM495 576
c0 -6 -2.16699 -11.167 -6.5 -15.5s-9.83301 -6.5 -16.5 -6.5h-65v-162c0 -6 -2.16699 -11.167 -6.5 -15.5s-9.83301 -6.5 -16.5 -6.5h-65v-162c0 -6 -2.16699 -11.167 -6.5 -15.5s-9.5 -6.5 -15.5 -6.5h-66v-162c0 -6 -2.16699 -11.167 -6.5 -15.5s-9.5 -6.5 -15.5 -6.5
h-88c-6.66699 0 -12.167 2.16699 -16.5 6.5s-6.5 9.5 -6.5 15.5v184c0 6.66699 2.16699 12.167 6.5 16.5s9.83301 6.5 16.5 6.5h65v161c0 6.66699 2.16699 12.167 6.5 16.5s9.83301 6.5 16.5 6.5h65v161c0 6.66699 2.16699 12.167 6.5 16.5s9.83301 6.5 16.5 6.5h65v161
c0 6.66699 2.16699 12.167 6.5 16.5s9.5 6.5 15.5 6.5h88c6.66699 0 12.167 -2.16699 16.5 -6.5s6.5 -9.83301 6.5 -16.5v-184v0zM179 499c0 -7.33301 -2.33301 -13.333 -7 -18s-10.667 -7 -18 -7h-88c-7.33301 0 -13.333 2.33301 -18 7s-7 10.667 -7 18v175
c0 7.33301 2.33301 13.333 7 18s10.667 7 18 7h88c7.33301 0 13.333 -2.33301 18 -7s7 -10.667 7 -18v-175v0z" />
    <glyph glyph-name="ampersand" unicode="&#x26;" horiz-adv-x="597" 
d="M326 647h-149v-161h149v161zM550 374c0 -18.667 -0.166992 -30.668 -0.5 -36.001s-0.5 -9.33301 -0.5 -12c0 -2 -0.166992 -5 -0.5 -9s-0.5 -14 -0.5 -30c0 -7.33301 -2.33301 -13.333 -7 -18s-10.667 -7 -18 -7h-172c-7.33301 0 -13.333 2.33301 -18 7s-7 10.667 -7 18
v62h-149v-211h235v62c0 7.33301 2.33301 13.333 7 18s10.667 7 18 7h86c7.33301 0 13.333 -2.33301 18 -7s7 -10.667 7 -18v-87c0 -6.66699 -2.33301 -12.5 -7 -17.5s-10.667 -7.5 -18 -7.5h-61v-62c0 -6.66699 -2.33301 -12.5 -7 -17.5s-10.667 -7.5 -18 -7.5h-285
c-6.66699 0 -12.667 2.66699 -18 8c-4.66699 4.66699 -7 10.334 -7 17.001v62h-61c-7.33301 0 -13.333 2.5 -18 7.5s-7 10.833 -7 17.5v261c0 7.33301 2.33301 13.333 7 18s10.667 7 18 7h61v37h-61c-7.33301 0 -13.333 2.33301 -18 7s-7 10.667 -7 18v211
c0 7.33301 2.33301 13.333 7 18s10.667 7 18 7h61v61c0 7.33301 2.33301 13.333 7 18s10.667 7 18 7h199c7.33301 0 13.333 -2.33301 18 -7s7 -10.667 7 -18v-61h62c7.33301 0 13.333 -2.33301 18 -7s7 -10.667 7 -18v-211c0 -7.33301 -2.33301 -13.333 -7 -18
s-10.667 -7 -18 -7h-62v-37h149c7.33301 0 13.333 -2.33301 18 -7s7 -10.667 7 -18z" />
    <glyph glyph-name="quotesingle" unicode="'" horiz-adv-x="236" 
d="M177 584c0 -7.33301 -2.33301 -13.333 -7 -18s-10.667 -7 -18 -7h-86c-7.33301 0 -13.333 2.33301 -18 7s-7 10.667 -7 18v174c0 7.33301 2.33301 13.333 7 18s10.667 7 18 7h86c7.33301 0 13.333 -2.33301 18 -7s7 -10.667 7 -18v-174v0z" />
    <glyph glyph-name="parenleft" unicode="(" horiz-adv-x="391" 
d="M349 26c0 -7.33301 -2.33301 -13.333 -7 -18s-10.667 -7 -18 -7h-86c-7.33301 0 -13.333 2.33301 -18 7s-7 10.667 -7 18v62h-61c-7.33301 0 -13.333 2.33301 -18 7s-7 10.667 -7 18v62h-61c-7.33301 0 -13.333 2.33301 -18 7s-7 10.667 -7 18v384
c0 7.33301 2.33301 13.5 7 18.5s10.667 7.5 18 7.5h61v61c0 7.33301 2.33301 13.333 7 18s10.667 7 18 7h61v62c0 7.33301 2.33301 13.333 7 18s10.667 7 18 7h86c7.33301 0 13.333 -2.33301 18 -7s7 -10.667 7 -18v-87c0 -7.33301 -2.33301 -13.333 -7 -18
s-10.667 -7 -18 -7h-61v-62c0 -6.66699 -2.33301 -12.5 -7 -17.5s-10.667 -7.5 -18 -7.5h-61v-334h61c7.33301 0 13.333 -2.33301 18 -7s7 -10.667 7 -18v-62h61c7.33301 0 13.333 -2.33301 18 -7s7 -10.667 7 -18v-32v-15v-13c0 -5.33301 -0.333008 -15 -1 -29z" />
    <glyph glyph-name="parenright" unicode=")" horiz-adv-x="391" 
d="M42 24c-0.666992 14 -1 23.667 -1 29v13v15v32c0 7.33301 2.33301 13.333 7 18s10.667 7 18 7h61v62c0 7.33301 2.33301 13.333 7 18s10.667 7 18 7h61v334h-61c-7.33301 0 -13.333 2.5 -18 7.5s-7 10.833 -7 17.5v62h-61c-7.33301 0 -13.333 2.33301 -18 7
s-7 10.667 -7 18v87c0 7.33301 2.33301 13.333 7 18s10.667 7 18 7h86c7.33301 0 13.333 -2.33301 18 -7s7 -10.667 7 -18v-62h61c7.33301 0 13.333 -2.33301 18 -7s7 -10.667 7 -18v-61h61c7.33301 0 13.333 -2.5 18 -7.5s7 -11.167 7 -18.5v-384
c0 -7.33301 -2.33301 -13.333 -7 -18s-10.667 -7 -18 -7h-61v-62c0 -7.33301 -2.33301 -13.333 -7 -18s-10.667 -7 -18 -7h-61v-62c0 -7.33301 -2.33301 -13.333 -7 -18s-10.667 -7 -18 -7h-86c-7.33301 0 -13.333 2.33301 -18 7s-7 10.667 -7 18z" />
    <glyph glyph-name="asterisk" unicode="*" horiz-adv-x="593" 
d="M542 413c0 -6.66699 -1.66602 -12.167 -4.99902 -16.5s-8 -6.5 -14 -6.5h-87c-6.66699 0 -12 2.33301 -16 7c-4.66699 4 -7 9.33301 -7 16v64h-54v-147c0 -6.66699 -2.16699 -12.167 -6.5 -16.5s-9.5 -6.5 -15.5 -6.5h-87c-6.66699 0 -12.167 2.16699 -16.5 6.5
s-6.5 9.83301 -6.5 16.5v147h-53v-64c0 -6 -2.33301 -11.333 -7 -16c-4 -4.66699 -9.33301 -7 -16 -7h-87c-6.66699 0 -12.167 2.16699 -16.5 6.5s-6.5 9.83301 -6.5 16.5v87c0 6 2.16699 11.167 6.5 15.5s9.83301 6.5 16.5 6.5h64v42h-64
c-6.66699 0 -12.167 2.33301 -16.5 7s-6.5 10 -6.5 16v87c0 6.66699 2.16699 12.167 6.5 16.5s9.83301 6.5 16.5 6.5h87c6 0 11.333 -2.16699 16 -6.5s7 -9.83301 7 -16.5v-64h53v150c0 6.66699 2.16699 12.167 6.5 16.5s9.83301 6.5 16.5 6.5h87
c6 0 11.167 -2.16699 15.5 -6.5s6.5 -9.83301 6.5 -16.5v-150h54v64c0 6.66699 2.16699 12.167 6.5 16.5s9.5 6.5 15.5 6.5h88c6 0 11.167 -2.16699 15.5 -6.5s6.5 -9.83301 6.5 -16.5v-87c0 -6 -2.16699 -11.333 -6.5 -16s-9.5 -7 -15.5 -7h-65v-42h65
c6 0 11.167 -2.16699 15.5 -6.5s6.5 -9.5 6.5 -15.5c0 -12.667 0.166992 -25.667 0.5 -39s-0.833984 -29.333 -3.50098 -48z" />
    <glyph glyph-name="plus" unicode="+" horiz-adv-x="463" 
d="M417 253c0 -7.33301 -2.33301 -13.333 -7 -18s-10.667 -7 -18 -7h-93v-94c0 -7.33301 -2.5 -13.333 -7.5 -18s-11.167 -7 -18.5 -7h-87c-6.66699 0 -12.5 2.33301 -17.5 7s-7.5 10.667 -7.5 18v94h-95c-7.33301 0 -13.333 2.33301 -18 7s-7 10.667 -7 18v87
c0 7.33301 2.33301 13.333 7 18s10.667 7 18 7h95v101c0 7.33301 2.5 13.333 7.5 18s10.833 7 17.5 7h87c7.33301 0 13.5 -2.33301 18.5 -7s7.5 -10.667 7.5 -18v-101h93c7.33301 0 13.333 -2.33301 18 -7s7 -10.667 7 -18v-87v0z" />
    <glyph glyph-name="comma" unicode="," horiz-adv-x="240" 
d="M177 -62c0 -6.66699 -2.33301 -12.5 -7 -17.5s-10.667 -7.5 -18 -7.5h-86c-7.33301 0 -13.333 2.5 -18 7.5s-7 10.833 -7 17.5v175c0 6.66699 2.33301 12.5 7 17.5s10.667 7.5 18 7.5h86c7.33301 0 13.333 -2.5 18 -7.5s7 -10.833 7 -17.5v-175v0z" />
    <glyph glyph-name="hyphen" unicode="-" horiz-adv-x="345" 
d="M294 253c0 -7.33301 -2.33301 -13.333 -7 -18s-10.667 -7 -18 -7h-203c-7.33301 0 -13.333 2.33301 -18 7s-7 10.667 -7 18v87c0 7.33301 2.33301 13.333 7 18s10.667 7 18 7h203c7.33301 0 13.333 -2.33301 18 -7s7 -10.667 7 -18v-26
c0 -4.66699 -0.166992 -7.5 -0.5 -8.5l-0.5 -1.5c0 0.666992 0 0 0 -2v-14c0 -7.33301 0.333008 -19 1 -35z" />
    <glyph glyph-name="period" unicode="." horiz-adv-x="219" 
d="M177 25c0 -7.33301 -2.33301 -13.333 -7 -18s-10.667 -7 -18 -7h-86c-7.33301 -0 -13.333 2.33301 -18 7s-7 10.667 -7 18v87c0 7.33301 2.33301 13.333 7 18s10.667 7 18 7h86c7.33301 0 13.333 -2.33301 18 -7s7 -10.667 7 -18v-87v0z" />
    <glyph glyph-name="slash" unicode="/" horiz-adv-x="474" 
d="M437 577c0 -6.66699 -2.16699 -12.167 -6.5 -16.5s-9.83301 -6.5 -16.5 -6.5h-65v-161c0 -6 -2.16699 -11.167 -6.5 -15.5s-9.5 -6.5 -15.5 -6.5h-65v-161c0 -6.66699 -2.33301 -12.167 -7 -16.5s-10 -6.5 -16 -6.5h-65v-161c0 -6 -2.16699 -11.167 -6.5 -15.5
s-9.83301 -6.5 -16.5 -6.5h-87c-6.66699 0 -12.167 2.16699 -16.5 6.5s-6.5 9.5 -6.5 15.5v184c0 6 2.16699 11.167 6.5 15.5s9.83301 6.5 16.5 6.5h65v161c0 6.66699 2.16699 12.167 6.5 16.5s9.5 6.5 15.5 6.5h65v161c0 6 2.33301 11.167 7 15.5s10 6.5 16 6.5h65v161
c0 6.66699 2.16699 12.167 6.5 16.5s9.83301 6.5 16.5 6.5h87c6.66699 0 12.167 -2.16699 16.5 -6.5s6.5 -9.83301 6.5 -16.5v-183v0z" />
    <glyph glyph-name="zero" unicode="0" horiz-adv-x="833" 
d="M644 645h-455v-508h455v508zM782 111c0 -6.66699 -2.33301 -12.5 -7 -17.5s-10.667 -7.5 -18 -7.5h-63v-60c0 -7.33301 -2.33301 -13.333 -7 -18s-10.667 -7 -18 -7h-505c-7.33301 0 -13.333 2.33301 -18 7s-7 10.667 -7 18v60h-63c-7.33301 0 -13.333 2.5 -18 7.5
s-7 10.833 -7 17.5v560c0 6.66699 2.33301 12.5 7 17.5s10.667 7.5 18 7.5h63v62c0 7.33301 2.33301 13.333 7 18s10.667 7 18 7h505c7.33301 0 13.333 -2.33301 18 -7s7 -10.667 7 -18v-62h63c7.33301 0 13.333 -2.5 18 -7.5s7 -10.833 7 -17.5v-560v0z" />
    <glyph glyph-name="one" unicode="1" horiz-adv-x="704" 
d="M638 30c0 -7.33301 -2.5 -13.333 -7.5 -18s-10.833 -7 -17.5 -7h-505c-7.33301 0 -13.5 2.33301 -18.5 7s-7.5 10.667 -7.5 18v86c0 7.33301 2.5 13.333 7.5 18s11.167 7 18.5 7h184v509h-185c-7.33301 0 -13.333 2.33301 -18 7s-7 10.667 -7 18v87
c0 7.33301 2.5 13.333 7.5 18s11.167 7 18.5 7h209c7.33301 0 13.333 -2.33301 18 -7s7 -10.667 7 -18v-62h62c7.33301 0 13.333 -2.33301 18 -7s7 -10.667 7 -18v-534h184c6.66699 0 12.5 -2.33301 17.5 -7s7.5 -10.667 7.5 -18v-86v0z" />
    <glyph glyph-name="two" unicode="2" horiz-adv-x="833" 
d="M782 26c0 -7.33301 -2.33301 -13.333 -7 -18s-10.667 -7 -18 -7h-593c-7.33301 0 -13.333 2.33301 -18 7s-7 10.667 -7 18v61h-62c-7.33301 0 -13.5 2.33301 -18.5 7s-7.5 10.667 -7.5 18v235c0 7.33301 2.5 13.333 7.5 18s11.167 7 18.5 7h62v62
c0 7.33301 2.33301 13.333 7 18s10.667 7 18 7h480v187h-567c-7.33301 0 -13.5 2.33301 -18.5 7s-7.5 10.667 -7.5 18v87c0 7.33301 2.33301 13.333 7 18s10.667 7 18 7h593c7.33301 0 13.333 -2.33301 18 -7s7 -10.667 7 -18v-62h63c7.33301 0 13.333 -2.5 18 -7.5
s7 -10.833 7 -17.5v-237c0 -7.33301 -2.33301 -13.333 -7 -18s-10.667 -7 -18 -7h-63v-62c0 -7.33301 -2.33301 -13.333 -7 -18s-10.667 -7 -18 -7h-480v-185h568c7.33301 0 13.333 -2.33301 18 -7s7 -10.667 7 -18v-86v0z" />
    <glyph glyph-name="three" unicode="3" horiz-adv-x="833" 
d="M782 112c0 -7.33301 -2.33301 -13.333 -7 -18s-10.667 -7 -18 -7h-63v-61c0 -7.33301 -2.33301 -13.333 -7 -18s-10.667 -7 -18 -7h-593c-7.33301 0 -13.333 2.33301 -18 7s-7 10.667 -7 18v86c0 7.33301 2.33301 13.333 7 18s10.667 7 18 7h568v186h-480
c-7.33301 0 -13.333 2.33301 -18 7s-7 10.667 -7 18v86c0 7.33301 2.33301 13.333 7 18s10.667 7 18 7h480v187h-568c-7.33301 0 -13.333 2.33301 -18 7s-7 10.667 -7 18v87c0 7.33301 2.33301 13.333 7 18s10.667 7 18 7h593c7.33301 0 13.333 -2.33301 18 -7
s7 -10.667 7 -18v-62h63c7.33301 0 13.333 -2.5 18 -7.5s7 -10.833 7 -17.5v-237c0 -7.33301 -2.33301 -13.333 -7 -18s-10.667 -7 -18 -7h-63v-36h63c7.33301 0 13.333 -2.33301 18 -7s7 -10.667 7 -18v-236v0z" />
    <glyph glyph-name="four" unicode="4" horiz-adv-x="833" 
d="M782 26c0 -7.33301 -2.5 -13.333 -7.5 -18s-10.833 -7 -17.5 -7h-88c-7.33301 0 -13.333 2.33301 -18 7s-7 10.667 -7 18v297h-480c-7.33301 0 -13.333 2.33301 -18 7s-7 10.667 -7 18v61h-63c-7.33301 0 -13.333 2.33301 -18 7s-7 10.667 -7 18v324
c0 7.33301 2.33301 13.333 7 18s10.667 7 18 7h88c7.33301 0 13.333 -2.33301 18 -7s7 -10.667 7 -18v-299h455v299c0 7.33301 2.33301 13.333 7 18s10.667 7 18 7h88c6.66699 0 12.5 -2.33301 17.5 -7s7.5 -10.667 7.5 -18v-732v0z" />
    <glyph glyph-name="five" unicode="5" horiz-adv-x="833" 
d="M782 112c0 -7.33301 -2.5 -13.333 -7.5 -18s-10.833 -7 -17.5 -7h-63v-61c0 -7.33301 -2.33301 -13.333 -7 -18s-10.667 -7 -18 -7h-505c-7.33301 0 -13.333 2.33301 -18 7s-7 10.667 -7 18v86c0 7.33301 2.33301 13.333 7 18s10.667 7 18 7h480v186h-480
c-7.33301 0 -13.333 2.33301 -18 7s-7 10.667 -7 18v61h-63c-7.33301 0 -13.333 2.33301 -18 7s-7 10.667 -7 18v324c0 7.33301 2.33301 13.333 7 18s10.667 7 18 7h681c6.66699 0 12.5 -2.33301 17.5 -7s7.5 -10.667 7.5 -18v-87c0 -7.33301 -2.5 -13.333 -7.5 -18
s-10.833 -7 -17.5 -7h-568v-187h480c7.33301 0 13.333 -2.33301 18 -7s7 -10.667 7 -18v-61h63c6.66699 0 12.5 -2.33301 17.5 -7s7.5 -10.667 7.5 -18v-236v0z" />
    <glyph glyph-name="six" unicode="6" horiz-adv-x="833" 
d="M644 323h-455v-186h455v186zM782 112c0 -7.33301 -2.5 -13.334 -7.5 -18.001s-10.833 -7 -17.5 -7h-63v-61c0 -7.33301 -2.33301 -13.333 -7 -18s-10.667 -7 -18 -7h-505c-7.33301 0 -13.333 2.33301 -18 7s-7 10.667 -7 18v61h-62c-7.33301 0 -13.5 2.33301 -18.5 7
s-7.5 10.667 -7.5 18v559c0 6.66699 2.33301 12.334 7 17.001c5.33301 5.33301 11.333 8 18 8h63v62c0 7.33301 2.33301 13.333 7 18s10.667 7 18 7h593c6.66699 0 12.5 -2.33301 17.5 -7s7.5 -10.667 7.5 -18v-87c0 -7.33301 -2.5 -13.333 -7.5 -18s-10.833 -7 -17.5 -7
h-568v-187h480c7.33301 0 13.333 -2.33301 18 -7s7 -10.667 7 -18v-61h63c6.66699 0 12.5 -2.33301 17.5 -7s7.5 -10.667 7.5 -18v-236v0z" />
    <glyph glyph-name="seven" unicode="7" horiz-adv-x="833" 
d="M782 519c0 -7.33301 -2.5 -13.333 -7.5 -18s-10.833 -7 -17.5 -7h-63v-60c0 -7.33301 -2.33301 -13.333 -7 -18s-10.667 -7 -18 -7h-81v-61c0 -7.33301 -2.33301 -13.333 -7 -18s-10.667 -7 -18 -7h-78v-297c0 -7.33301 -2.33301 -13.333 -7 -18s-10.667 -7 -18 -7h-88
c-6.66699 0 -12.5 2.33301 -17.5 7s-7.5 10.667 -7.5 18v322c0 7.33301 2.5 13.333 7.5 18s10.833 7 17.5 7h63v61c0 7.33301 2.33301 13.333 7 18s10.667 7 18 7h78v60c0 7.33301 2.33301 13.333 7 18s10.667 7 18 7h81v102h-568c-7.33301 0 -13.333 2.33301 -18 7
s-7 10.667 -7 18v87c0 7.33301 2.33301 13.333 7 18s10.667 7 18 7h681c6.66699 0 12.5 -2.33301 17.5 -7s7.5 -10.667 7.5 -18v-239v0z" />
    <glyph glyph-name="eight" unicode="8" horiz-adv-x="833" 
d="M644 323h-455v-186h455v186zM644 645h-455v-186h455v186zM782 112c0 -7.33301 -2.33301 -13.333 -7 -18s-10.667 -7 -18 -7h-63v-61c0 -7.33301 -2.33301 -13.333 -7 -18s-10.667 -7 -18 -7h-505c-7.33301 0 -13.333 2.33301 -18 7c-5.33301 5.33301 -8 11.333 -8 18v61
h-62c-6.66699 0 -12.5 2.33301 -17.5 7s-7.5 10.667 -7.5 18v236c0 7.33301 2.5 13.333 7.5 18s10.833 7 17.5 7h63v36h-63c-6.66699 0 -12.5 2.33301 -17.5 7s-7.5 10.667 -7.5 18v236c0 7.33301 2.5 13.5 7.5 18.5s10.833 7.5 17.5 7.5h63v62
c0 7.33301 2.33301 13.333 7 18c6 4.66699 12 7 18 7h505c7.33301 0 13.333 -2.33301 18 -7s7 -10.667 7 -18v-62h63c7.33301 0 13.333 -2.5 18 -7.5s7 -11.167 7 -18.5v-236c0 -7.33301 -2.33301 -13.333 -7 -18s-10.667 -7 -18 -7h-63v-36h63
c7.33301 0 13.333 -2.33301 18 -7s7 -10.667 7 -18v-236v0z" />
    <glyph glyph-name="nine" unicode="9" horiz-adv-x="833" 
d="M644 645h-455v-186h455v186zM782 112c0 -7.33301 -2.5 -13.333 -7.5 -18s-11.167 -7 -18.5 -7h-62v-61c0 -7.33301 -2.33301 -13.333 -7 -18s-10.667 -7 -18 -7h-505c-7.33301 0 -13.333 2.33301 -18 7s-7 10.667 -7 18v86c0 6.66699 2.33301 12.5 7 17.5
s10.667 7.5 18 7.5h480v186h-480c-7.33301 0 -13.333 2.33301 -18 7s-7 10.667 -7 18v61h-63c-7.33301 0 -13.333 2.33301 -18 7s-7 10.667 -7 18v236c0 7.33301 2.33301 13.5 7 18.5s10.667 7.5 18 7.5h63v62c0 7.33301 2.33301 13.333 7 18s10.667 7 18 7h505
c6 0 12 -2.33301 18 -7c4.66699 -6 7 -12 7 -18v-62h62c7.33301 0 13.5 -2.5 18.5 -7.5s7.5 -11.167 7.5 -18.5v-558v0z" />
    <glyph glyph-name="colon" unicode=":" horiz-adv-x="235" 
d="M177 113c0 -7.33301 -2.33301 -13.333 -7 -18s-10.667 -7 -18 -7h-86c-7.33301 0 -13.333 2.33301 -18 7s-7 10.667 -7 18v87c0 7.33301 2.33301 13.333 7 18s10.667 7 18 7h86c7.33301 0 13.333 -2.33301 18 -7s7 -10.667 7 -18v-87v0zM177 481
c0 -7.33301 -2.33301 -13.333 -7 -18s-10.667 -7 -18 -7h-86c-7.33301 0 -13.333 2.33301 -18 7s-7 10.667 -7 18v86c0 7.33301 2.33301 13.333 7 18s10.667 7 18 7h86c7.33301 0 13.333 -2.33301 18 -7s7 -10.667 7 -18v-86v0z" />
    <glyph glyph-name="semicolon" unicode=";" horiz-adv-x="235" 
d="M177 26c0 -7.33301 -2.33301 -13.5 -7 -18.5s-10.667 -7.5 -18 -7.5h-86c-7.33301 0 -13.333 2.5 -18 7.5s-7 11.167 -7 18.5v174c0 7.33301 2.33301 13.333 7 18s10.667 7 18 7h86c7.33301 0 13.333 -2.33301 18 -7s7 -10.667 7 -18v-174v0zM177 481
c0 -7.33301 -2.33301 -13.333 -7 -18s-10.667 -7 -18 -7h-86c-7.33301 0 -13.333 2.33301 -18 7s-7 10.667 -7 18v86c0 7.33301 2.33301 13.333 7 18s10.667 7 18 7h86c7.33301 0 13.333 -2.33301 18 -7s7 -10.667 7 -18v-86v0z" />
    <glyph glyph-name="less" unicode="&#x3c;" horiz-adv-x="477" 
d="M435 -8c0 -7.33301 -2.5 -13.333 -7.5 -18s-10.833 -7 -17.5 -7h-86c-7.33301 0 -13.333 2.33301 -18 7s-7 10.667 -7 18v62h-61c-7.33301 0 -13.333 2.33301 -18 7s-7 10.667 -7 18v62h-61c-7.33301 0 -13.333 2.33301 -18 7s-7 10.667 -7 18v62h-61
c-7.33301 0 -13.333 2.33301 -18 7s-7 10.667 -7 18v87c0 7.33301 2.33301 13.333 7 18s10.667 7 18 7h61v62c0 7.33301 2.33301 13.333 7 18s10.667 7 18 7h61v62c0 7.33301 2.33301 13.333 7 18s10.667 7 18 7h61v62c0 7.33301 2.33301 13.333 7 18s10.667 7 18 7h86
c6.66699 0 12.5 -2.33301 17.5 -7s7.5 -10.667 7.5 -18v-87c0 -7.33301 -2.5 -13.333 -7.5 -18s-10.833 -7 -17.5 -7h-61v-62c0 -7.33301 -2.33301 -13.333 -7 -18s-10.667 -7 -18 -7h-61v-62c0 -7.33301 -2.33301 -13.333 -7 -18s-10.667 -7 -18 -7h-61v-37h61
c7.33301 0 13.333 -2.33301 18 -7s7 -10.667 7 -18v-62h61c7.33301 0 13.333 -2.33301 18 -7s7 -10.667 7 -18v-62h61c6.66699 0 12.5 -2.33301 17.5 -7s7.5 -10.667 7.5 -18v-11v-16v-24v-36z" />
    <glyph glyph-name="equal" unicode="=" horiz-adv-x="336" 
d="M294 144c0 -7.33301 -2.33301 -13.333 -7 -18s-10.667 -7 -18 -7h-203c-7.33301 0 -13.333 2.33301 -18 7s-7 10.667 -7 18v87c0 7.33301 2.33301 13.333 7 18s10.667 7 18 7h203c7.33301 0 13.333 -2.33301 18 -7s7 -10.667 7 -18v-32
c0 -6 -0.166992 -9.83301 -0.5 -11.5s-0.5 -2.16699 -0.5 -1.5v0v-11c0 -6 0.333008 -16.333 1 -31zM294 363c0 -7.33301 -2.33301 -13.499 -7 -18.499s-10.667 -7.5 -18 -7.5h-203c-7.33301 0 -13.333 2.5 -18 7.5s-7 11.167 -7 18.5v86c0 6.66699 2.33301 12.5 7 17.5
s10.667 7.5 18 7.5h203c7.33301 0 13.333 -2.5 18 -7.5s7 -10.833 7 -17.5c0 -22.667 -0.166992 -37.334 -0.5 -44.001s-0.5 -10.667 -0.5 -12v-6c0 -2 0.333008 -10 1 -24z" />
    <glyph glyph-name="greater" unicode="&#x3e;" horiz-adv-x="470" 
d="M435 253c0 -7.33301 -2.5 -13.333 -7.5 -18s-10.833 -7 -17.5 -7h-61v-62c0 -7.33301 -2.33301 -13.333 -7 -18s-10.667 -7 -18 -7h-61v-62c0 -7.33301 -2.33301 -13.333 -7 -18s-10.667 -7 -18 -7h-61v-62c0 -7.33301 -2.33301 -13.333 -7 -18s-10.667 -7 -18 -7h-86
c-7.33301 0 -13.333 2.33301 -18 7s-7 10.667 -7 18v87c0 7.33301 2.33301 13.333 7 18s10.667 7 18 7h61v62c0 7.33301 2.33301 13.333 7 18s10.667 7 18 7h61v62c0 7.33301 2.33301 13.333 7 18s10.667 7 18 7h61v37h-61c-7.33301 0 -13.333 2.33301 -18 7
s-7 10.667 -7 18v62h-61c-7.33301 0 -13.333 2.33301 -18 7s-7 10.667 -7 18v62h-61c-7.33301 0 -13.333 2.33301 -18 7s-7 10.667 -7 18v87c0 7.33301 2.33301 13.333 7 18s10.667 7 18 7h86c7.33301 0 13.333 -2.33301 18 -7s7 -10.667 7 -18v-62h61
c7.33301 0 13.333 -2.33301 18 -7s7 -10.667 7 -18v-62h61c7.33301 0 13.333 -2.33301 18 -7s7 -10.667 7 -18v-62h61c6.66699 0 12.5 -2.33301 17.5 -7s7.5 -10.667 7.5 -18v-87v0z" />
    <glyph glyph-name="question" unicode="?" horiz-adv-x="608" 
d="M376 26c0 -6.66699 -2.66699 -12.667 -8 -18c-4.66699 -4.66699 -10.667 -7 -18 -7h-87c-7.33301 0 -13.333 2.33301 -18 7s-7 10.667 -7 18v85c0 7.33301 2.33301 13.333 7 18s10.667 7 18 7h87c7.33301 0 13.5 -2.33301 18.5 -7s7.5 -10.667 7.5 -18v-85v0zM550 478
c0 -7.33301 -2.33398 -13.333 -7.00098 -18s-10.667 -7 -18 -7h-62v-62c0 -6 -2.33301 -12 -7 -18c-4.66699 -4.66699 -10.667 -7 -18 -7h-62v-149c0 -7.33301 -2.5 -13.333 -7.5 -18s-11.167 -7 -18.5 -7h-87c-7.33301 0 -13.333 2.33301 -18 7s-7 10.667 -7 18v174
c0 6 2.33301 12 7 18c6 4.66699 12 7 18 7h62v62c0 6.66699 2.66699 12.667 8 18c4 4.66699 9.66699 7 17 7h63v145h-234v-170c0 -7.33301 -2.33301 -13.333 -7 -18s-10.667 -7 -18 -7h-88c-7.33301 0 -13.333 2.33301 -18 7s-7 10.667 -7 18v195
c0 6.66699 2.66699 12.667 8 18c4.66699 4.66699 10.334 7 17.001 7h63v60c0 7.33301 2.33301 13.333 7 18c6 4.66699 12 7 18 7h284c7.33301 0 13.333 -2.33301 18 -7s7 -10.667 7 -18v-60h62c7.33301 0 13.333 -2.33301 18 -7s7 -10.667 7 -18v-195v0z" />
    <glyph glyph-name="at" unicode="@" horiz-adv-x="796" 
d="M434 473h-83v-161h83v161zM744 26c0 -6.66699 -2.50098 -12.5029 -7.50098 -17.5029s-11.167 -7.5 -18.5 -7.5h-566c-7.33301 0 -13.333 2.5 -18 7.5s-7 10.833 -7 17.5v62h-61c-7.33301 0 -13.333 2.5 -18 7.5s-7 10.833 -7 17.5v559c0 7.33301 2.33301 13.333 7 18
s10.667 7 18 7h61v61c0 7.33301 2.33301 13.333 7 18s10.667 7 18 7h481c7.33301 0 13.333 -2.33301 18 -7s7 -10.667 7 -18v-61h60c7.33301 0 13.5 -2.33301 18.5 -7s7.5 -10.667 7.5 -18v-471c0 -7.33301 -2.5 -13.5 -7.5 -18.5s-11.167 -7.5 -18.5 -7.5h-392
c-6.66699 0 -12.667 2.66699 -18 8c-4.66699 4.66699 -7 10.334 -7 17.001v62h-62c-7.33301 0 -13.333 2.33301 -18 7s-7 10.667 -7 18v211c0 7.33301 2.33301 13.333 7 18s10.667 7 18 7h62v62c0 7.33301 2.33301 13.333 7 18s10.667 7 18 7h220
c7.33301 0 13.333 -2.33301 18 -7s7 -10.667 7 -18v-273h37v335h-431v-509h541c7.33301 0 13.5 -2.33301 18.5 -7s7.5 -10.667 7.5 -18c0 -3.33301 0.333008 -6.66602 1 -9.99902s1.16699 -8.16602 1.5 -14.499s0.333008 -14.333 0 -24s-1.16602 -22.5 -2.49902 -38.5z" />
    <glyph glyph-name="A" unicode="A" horiz-adv-x="809" 
d="M613 647h-436v-217h436v217zM749 26c0 -7.33301 -2.33301 -13.333 -7 -18s-10.667 -7 -18 -7h-86c-7.33301 0 -13.333 2.33301 -18 7s-7 10.667 -7 18v268h-436v-268c0 -7.33301 -2.33301 -13.333 -7 -18s-10.667 -7 -18 -7h-86c-7.33301 0 -13.333 2.33301 -18 7
s-7 10.667 -7 18v646c0 7.33301 2.33301 13.333 7 18s10.667 7 18 7h61v61c0 7.33301 2.33301 13.333 7 18s10.667 7 18 7h486c7.33301 0 13.333 -2.33301 18 -7s7 -10.667 7 -18v-61h61c7.33301 0 13.333 -2.33301 18 -7s7 -10.667 7 -18v-646v0z" />
    <glyph glyph-name="B" unicode="B" horiz-adv-x="844" 
d="M649 324h-412v-186h412v186zM649 647h-412v-187h412v187zM785 113c0 -7.33301 -2.33301 -13.333 -7 -18s-10.667 -7 -18 -7h-61v-62c0 -7.33301 -2.33301 -13.333 -7 -18s-10.667 -7 -18 -7h-608c-7.33301 0 -13.333 2.33301 -18 7s-7 10.667 -7 18v87
c0 7.33301 2.33301 13.333 7 18s10.667 7 18 7h35v509h-35c-7.33301 0 -13.333 2.33301 -18 7s-7 10.667 -7 18v86c0 7.33301 2.33301 13.333 7 18s10.667 7 18 7h608c7.33301 0 13.333 -2.33301 18 -7s7 -10.667 7 -18v-61h61c7.33301 0 13.333 -2.33301 18 -7
s7 -10.667 7 -18v-237c0 -7.33301 -2.33301 -13.333 -7 -18s-10.667 -7 -18 -7h-61v-35h61c7.33301 0 13.333 -2.5 18 -7.5s7 -11.167 7 -18.5v-236v0z" />
    <glyph glyph-name="C" unicode="C" horiz-adv-x="772" 
d="M724 26c0 -7.33301 -2.33301 -13.333 -7 -18s-10.667 -7 -18 -7h-547c-7.33301 0 -13.333 2.33301 -18 7s-7 10.667 -7 18v62h-61c-7.33301 0 -13.333 2.33301 -18 7s-7 10.667 -7 18v559c0 7.33301 2.33301 13.333 7 18s10.667 7 18 7h61v61
c0 7.33301 2.33301 13.333 7 18c6 4.66699 12 7 18 7h547c7.33301 0 13.333 -2.33301 18 -7s7 -10.667 7 -18v-86c0 -7.33301 -2.33301 -13.333 -7 -18s-10.667 -7 -18 -7h-522v-509h522c7.33301 0 13.333 -2.33301 18 -7s7 -10.667 7 -18
c0 -4 -0.166992 -8.16699 -0.5 -12.5s-0.5 -9.83301 -0.5 -16.5v-23c0 -9.33301 0.333008 -21 1 -35z" />
    <glyph glyph-name="D" unicode="D" horiz-adv-x="864" 
d="M669 646h-445v-508h445v508zM805 113c0 -7.33301 -2.5 -13.5 -7.5 -18.5s-10.833 -7.5 -17.5 -7.5h-61v-60c0 -7.33301 -2.33301 -13.333 -7 -18s-10.667 -7 -18 -7h-642c-7.33301 0 -13.333 2.33301 -18 7s-7 10.667 -7 18v86c0 6.66699 2.33301 12.5 7 17.5
s10.667 7.5 18 7.5h36v508h-36c-7.33301 0 -13.333 2.5 -18 7.5s-7 10.833 -7 17.5v86c0 7.33301 2.33301 13.333 7 18s10.667 7 18 7h643c6.66699 0 12 -2 16 -6c5.33301 -5.33301 8 -11.333 8 -18v-61h61c6.66699 0 12.5 -2.5 17.5 -7.5s7.5 -11.167 7.5 -18.5v-558v0z
" />
    <glyph glyph-name="E" unicode="E" horiz-adv-x="752" 
d="M709 26c0 -7.33301 -2.50098 -13.335 -7.50098 -18.002s-10.833 -7 -17.5 -7h-618c-7.33301 0 -13.333 2.33301 -18 7s-7 10.667 -7 18v323c0 6 2.33301 12 7 18c5.33301 5.33301 11.333 8 18 8h61v35h-61c-7.33301 0 -13.333 2.33301 -18 7s-7 10.667 -7 18v323
c0 7.33301 2.33301 13.333 7 18s10.667 7 18 7h618c6.66699 0 12.5 -2.33301 17.5 -7s7.5 -10.667 7.5 -18v-86c0 -7.33301 -2.5 -13.333 -7.5 -18s-10.833 -7 -17.5 -7h-507v-187h393c7.33301 0 13.333 -2.33301 18 -7s7 -10.667 7 -18v-86
c0 -6.66699 -2.33301 -12.5 -7 -17.5s-10.667 -7.5 -18 -7.5h-393v-186h507c6.66699 0 12.5 -2.33301 17.5 -7s7.5 -10.667 7.5 -18c0 -4 -0.166992 -8.16699 -0.5 -12.5s-0.666016 -9.66602 -0.999023 -15.999s-0.5 -14.166 -0.5 -23.499s0.666992 -21 2 -35z" />
    <glyph glyph-name="F" unicode="F" horiz-adv-x="765" 
d="M780 671c0 -7.33301 -2.33301 -13.333 -7 -18s-10.667 -7 -18 -7h-519v-186h405c7.33301 0 13.333 -2.33301 18 -7s7 -10.667 7 -18v-86c0 -6.66699 -2.33301 -12.5 -7 -17.5s-10.667 -7.5 -18 -7.5h-405v-298c0 -7.33301 -2.33301 -13.333 -7 -18s-10.667 -7 -18 -7h-86
c-7.33301 0 -13.333 2.33301 -18 7s-7 10.667 -7 18v323c0 6 2.33301 12 7 18c5.33301 5.33301 11.333 8 18 8h61v35h-61c-7.33301 0 -13.333 2.33301 -18 7s-7 10.667 -7 18v211h-34c-7.33301 0 -13.333 2.33301 -18 7s-7 10.667 -7 18v87c0 7.33301 2.33301 13.333 7 18
s10.667 7 18 7h689c7.33301 0 13.333 -2.33301 18 -7s7 -10.667 7 -18v-87v0z" />
    <glyph glyph-name="G" unicode="G" horiz-adv-x="759" 
d="M725 113c0 -7.33301 -2.5 -13.333 -7.5 -18s-11.167 -7 -18.5 -7h-60v-62c0 -7.33301 -2.33301 -13.333 -7 -18s-10.667 -7 -18 -7h-462c-7.33301 0 -13.333 2.33301 -18 7s-7 10.667 -7 18v62h-61c-7.33301 0 -13.333 2.33301 -18 7s-7 10.667 -7 18v559
c0 7.33301 2.33301 13.333 7 18s10.667 7 18 7h61v61c0 7.33301 2.33301 13.333 7 18s10.667 7 18 7h547c7.33301 0 13.5 -2.33301 18.5 -7s7.5 -10.667 7.5 -18v-86c0 -7.33301 -2.5 -13.333 -7.5 -18s-11.167 -7 -18.5 -7h-522v-509h412v186h-218
c-7.33301 0 -13.333 2.5 -18 7.5s-7 10.833 -7 17.5v86c0 7.33301 2.33301 13.333 7 18s10.667 7 18 7h328c7.33301 0 13.5 -2.33301 18.5 -7s7.5 -10.667 7.5 -18v-322v0z" />
    <glyph glyph-name="H" unicode="H" horiz-adv-x="787" 
d="M726 26c0 -7.33301 -2.33301 -13.333 -7 -18s-10.667 -7 -18 -7h-86c-7.33301 0 -13.333 2.33301 -18 7s-7 10.667 -7 18v298h-413v-298c0 -7.33301 -2.33301 -13.333 -7 -18s-10.667 -7 -18 -7h-86c-7.33301 0 -13.333 2.33301 -18 7s-7 10.667 -7 18v323
c0 7.33301 2.33301 13.5 7 18.5s10.667 7.5 18 7.5h61v35h-61c-7.33301 0 -13.333 2.33301 -18 7s-7 10.667 -7 18v323c0 7.33301 2.33301 13.333 7 18s10.667 7 18 7h86c7.33301 0 13.333 -2.33301 18 -7s7 -10.667 7 -18v-298h413v298c0 7.33301 2.33301 13.333 7 18
s10.667 7 18 7h86c7.33301 0 13.333 -2.33301 18 -7s7 -10.667 7 -18v-323c0 -7.33301 -2.33301 -13.333 -7 -18s-10.667 -7 -18 -7h-61v-35h61c7.33301 0 13.333 -2.5 18 -7.5s7 -11.167 7 -18.5v-323v0z" />
    <glyph glyph-name="I" unicode="I" horiz-adv-x="240" 
d="M179 26c0 -7.33301 -2.33301 -13.333 -7 -18s-10.667 -7 -18 -7h-88c-7.33301 0 -13.333 2.33301 -18 7s-7 10.667 -7 18v732c0 7.33301 2.33301 13.333 7 18s10.667 7 18 7h88c7.33301 0 13.333 -2.33301 18 -7s7 -10.667 7 -18v-732v0z" />
    <glyph glyph-name="J" unicode="J" horiz-adv-x="786" 
d="M726 113c0 -7.33301 -2.33301 -13.333 -7 -18s-10.667 -7 -18 -7h-61v-62c0 -7.33301 -2.33301 -13.333 -7 -18s-10.667 -7 -18 -7h-463c-7.33301 0 -13.333 2.33301 -18 7s-7 10.667 -7 18v62h-61c-7.33301 0 -13.333 2.33301 -18 7s-7 10.667 -7 18v322
c0 7.33301 2.33301 13.333 7 18s10.667 7 18 7h86c7.33301 0 13.333 -2.33301 18 -7s7 -10.667 7 -18v-297h413v620c0 7.33301 2.33301 13.333 7 18s10.667 7 18 7h86c7.33301 0 13.333 -2.33301 18 -7s7 -10.667 7 -18v-645v0z" />
    <glyph glyph-name="K" unicode="K" horiz-adv-x="789" 
d="M730 491c0 -7.33301 -2.5 -13.333 -7.5 -18s-10.833 -7 -17.5 -7h-62v-61c0 -7.33301 -2.5 -13.333 -7.5 -18s-11.167 -7 -18.5 -7h-60v-36h146c7.33301 0 13.333 -2.33301 18 -7s7 -10.667 7 -18v-293c0 -7.33301 -2.33301 -13.333 -7 -18s-10.667 -7 -18 -7h-86
c-6.66699 0 -12.5 2.33301 -17.5 7s-7.5 10.667 -7.5 18v268h-415v-268c0 -7.33301 -2.33301 -13.333 -7 -18s-10.667 -7 -18 -7h-86c-7.33301 0 -13.333 2.33301 -18 7s-7 10.667 -7 18v732c0 7.33301 2.33301 13.333 7 18s10.667 7 18 7h86
c7.33301 0 13.333 -2.33301 18 -7s7 -10.667 7 -18v-328h329v61c0 6.66699 2.5 12.5 7.5 17.5s10.833 7.5 17.5 7.5h61v242c0 7.33301 2.5 13.333 7.5 18s10.833 7 17.5 7h88c6.66699 0 12.5 -2.33301 17.5 -7s7.5 -10.667 7.5 -18v-267v0z" />
    <glyph glyph-name="L" unicode="L" horiz-adv-x="725" 
d="M723 26c0 -7.33301 -2.33203 -13.333 -6.99902 -18s-10.667 -7 -18 -7h-546c-7.33301 0 -13.333 2.33301 -18 7s-7 10.667 -7 18v62h-61c-7.33301 0 -13.333 2.33301 -18 7s-7 10.667 -7 18v645c0 7.33301 2 13.5 6 18.5s9.66699 7.5 17 7.5h43c7.33301 0 10 0 8 0h-15
c-8 0 -16 -0.166992 -24 -0.5s-14.667 -0.5 -20 -0.5c-4.66699 0 -5.33398 0 -2.00098 0h27h71c7.33301 0 13.333 -2.33301 18 -7s7 -10.667 7 -18v-620h521c7.33301 0 13.333 -2.33301 18 -7s7 -10.667 7 -18c0 -4 0.166992 -8.16699 0.5 -12.5s0.5 -9.83301 0.5 -16.5v-23
c0 -9.33301 -0.333008 -21 -1 -35z" />
    <glyph glyph-name="M" unicode="M" horiz-adv-x="981" 
d="M920 26c0 -7.33301 -2.33301 -13.333 -7 -18s-10.667 -7 -18 -7h-86c-7.33301 0 -13.333 2.33301 -18 7s-7 10.667 -7 18v621h-236v-621c0 -7.33301 -2.33301 -13.333 -7 -18s-10.667 -7 -18 -7h-87c-7.33301 0 -13.333 2.33301 -18 7s-7 10.667 -7 18v621h-234v-621
c0 -7.33301 -2.33301 -13.333 -7 -18s-10.667 -7 -18 -7h-86c-7.33301 0 -13.333 2.33301 -18 7s-7 10.667 -7 18v732c0 7.33301 2.33301 13.333 7 18s10.667 7 18 7h370c7.33301 0 13.333 -2.33301 18 -7s7 -10.667 7 -18v-61h37v61c0 7.33301 2.33301 13.333 7 18
s10.667 7 18 7h372c7.33301 0 13.333 -2.33301 18 -7s7 -10.667 7 -18v-732v0z" />
    <glyph glyph-name="N" unicode="N" horiz-adv-x="843" 
d="M782 26c0 -7.33301 -2.33301 -13.333 -7 -18s-10.667 -7 -18 -7h-86c-7.33301 0 -13.333 2.33301 -18 7s-7 10.667 -7 18v621h-445v-621c0 -7.33301 -2.33301 -13.333 -7 -18s-10.667 -7 -18 -7h-86c-7.33301 0 -13.333 2.33301 -18 7s-7 10.667 -7 18v621h-34
c-7.33301 0 -13.333 2.33301 -18 7s-7 10.667 -7 18v86c0 7.33301 2.33301 13.333 7 18s10.667 7 18 7h640c7.33301 0 13.333 -2.33301 18 -7s7 -10.667 7 -18v-61h61c7.33301 0 13.333 -2.33301 18 -7s7 -10.667 7 -18v-646v0z" />
    <glyph glyph-name="O" unicode="O" horiz-adv-x="803" 
d="M608 647h-431v-509h431v509zM744 113c0 -7.33301 -2.33301 -13.333 -7 -18s-10.667 -7 -18 -7h-61v-62c0 -7.33301 -2.33301 -13.333 -7 -18s-10.667 -7 -18 -7h-481c-7.33301 0 -13.333 2.33301 -18 7s-7 10.667 -7 18v62h-61c-7.33301 0 -13.333 2.33301 -18 7
s-7 10.667 -7 18v559c0 7.33301 2.33301 13.333 7 18s10.667 7 18 7h61v61c0 7.33301 2.33301 13.333 7 18s10.667 7 18 7h481c7.33301 0 13.333 -2.33301 18 -7s7 -10.667 7 -18v-61h61c7.33301 0 13.333 -2.33301 18 -7s7 -10.667 7 -18v-559v0z" />
    <glyph glyph-name="P" unicode="P" horiz-adv-x="808" 
d="M654 647h-418v-217h418v217zM790 405c0 -7.33301 -2.33301 -13.333 -7 -18s-10.667 -7 -18 -7h-61v-61c0 -7.33301 -2.33301 -13.333 -7 -18s-10.667 -7 -18 -7h-443v-268c0 -7.33301 -2.33301 -13.333 -7 -18s-10.667 -7 -18 -7h-86c-7.33301 0 -13.333 2.33301 -18 7
s-7 10.667 -7 18v621h-34c-7.33301 0 -13.333 2.33301 -18 7s-7 10.667 -7 18v86c0 7.33301 2.33301 13.333 7 18s10.667 7 18 7h613c7.33301 0 13.333 -2.33301 18 -7s7 -10.667 7 -18v-61h61c7.33301 0 13.333 -2.33301 18 -7s7 -10.667 7 -18v-267v0z" />
    <glyph glyph-name="Q" unicode="Q" horiz-adv-x="780" 
d="M610 647h-433v-509h220v76c0 7.33301 2.33301 13.5 7 18.5s10.667 7.5 18 7.5h85c7.33301 0 13.5 -2.5 18.5 -7.5s7.5 -11.167 7.5 -18.5v-76h77v509zM535 -66c0 -7.33301 -2.33301 -13.333 -7 -18s-10.667 -7 -18 -7h-86c-7.33301 0 -13.333 2.33301 -18 7
s-7 10.667 -7 18v67h-247c-7.33301 0 -13.333 2.33301 -18 7s-7 10.667 -7 18v62h-61c-7.33301 0 -13.333 2.33301 -18 7s-7 10.667 -7 18v559c0 7.33301 2.33301 13.333 7 18s10.667 7 18 7h61v61c0 7.33301 2.33301 13.333 7 18s10.667 7 18 7h483
c7.33301 0 13.333 -2.33301 18 -7s7 -10.667 7 -18v-61h61c6.66699 0 12.5 -2.33301 17.5 -7s7.5 -10.667 7.5 -18v-559c0 -7.33301 -2.5 -13.333 -7.5 -18s-10.833 -7 -17.5 -7h-61v-62c0 -7.33301 -2.33301 -13.333 -7 -18s-10.667 -7 -18 -7h-100v-67v0z" />
    <glyph glyph-name="R" unicode="R" horiz-adv-x="887" 
d="M698 647h-462v-217h462v217zM835 405c0 -7.33301 -2.33301 -13.333 -7 -18s-10.667 -7 -18 -7h-60v-354c0 -7.33301 -2.5 -13.333 -7.5 -18s-11.167 -7 -18.5 -7h-85c-7.33301 0 -13.5 2.33301 -18.5 7s-7.5 10.667 -7.5 18v268h-377v-268
c0 -7.33301 -2.33301 -13.333 -7 -18s-10.667 -7 -18 -7h-86c-7.33301 0 -13.333 2.33301 -18 7s-7 10.667 -7 18v621h-34c-7.33301 0 -13.333 2.33301 -18 7s-7 10.667 -7 18v86c0 7.33301 2.33301 13.333 7 18s10.667 7 18 7h658c7.33301 0 13.5 -2.33301 18.5 -7
s7.5 -10.667 7.5 -18v-61h60c7.33301 0 13.333 -2.33301 18 -7s7 -10.667 7 -18v-267v0z" />
    <glyph glyph-name="S" unicode="S" horiz-adv-x="759" 
d="M726 113c0 -7.33301 -2.33301 -13.333 -7 -18s-10.667 -7 -18 -7h-60v-62c0 -7.33301 -2.5 -13.333 -7.5 -18s-11.167 -7 -18.5 -7h-463c-7.33301 0 -13.333 2.33301 -18 7s-7 10.667 -7 18v87c0 7.33301 2.33301 13.333 7 18s10.667 7 18 7h438v186h-438
c-7.33301 0 -13.333 2.5 -18 7.5s-7 10.833 -7 17.5v61h-61c-7.33301 0 -13.333 2.33301 -18 7s-7 10.667 -7 18v237c0 7.33301 2.33301 13.333 7 18s10.667 7 18 7h61v61c0 7.33301 2.33301 13.333 7 18s10.667 7 18 7h549c7.33301 0 13.333 -2.33301 18 -7
s7 -10.667 7 -18v-86c0 -7.33301 -2.33301 -13.333 -7 -18s-10.667 -7 -18 -7h-524v-187h438c7.33301 0 13.5 -2.33301 18.5 -7s7.5 -10.667 7.5 -18v-60h60c7.33301 0 13.333 -2.5 18 -7.5s7 -11.167 7 -18.5v-236v0z" />
    <glyph glyph-name="T" unicode="T" horiz-adv-x="780" 
d="M768 672c0 -7.33301 -2.33301 -13.333 -7 -18s-10.667 -7 -18 -7h-270v-621c0 -7.33301 -2.5 -13.333 -7.5 -18s-10.833 -7 -17.5 -7h-86c-7.33301 0 -13.333 2.33301 -18 7s-7 10.667 -7 18v621h-271c-7.33301 0 -13.333 2.33301 -18 7s-7 10.667 -7 18v86
c0 7.33301 2.33301 13.333 7 18s10.667 7 18 7h296c7.33301 0 13.333 -2.33301 18 -7s7 -10.667 7 -18v-61h35v61c0 7.33301 2.5 13.333 7.5 18s11.167 7 18.5 7h295c7.33301 0 13.333 -2.33301 18 -7s7 -10.667 7 -18v-86z" />
    <glyph glyph-name="U" unicode="U" horiz-adv-x="767" 
d="M707 113c0 -7.33301 -2.5 -13.333 -7.5 -18s-10.833 -7 -17.5 -7h-61v-62c0 -7.33301 -2.33301 -13.333 -7 -18s-10.667 -7 -18 -7h-444c-7.33301 0 -13.333 2.33301 -18 7s-7 10.667 -7 18v62h-61c-7.33301 0 -13.333 2.33301 -18 7s-7 10.667 -7 18v645
c0 7.33301 2.33301 13.333 7 18s10.667 7 18 7h86c7.33301 0 13.333 -2.33301 18 -7s7 -10.667 7 -18v-620h394v620c0 7.33301 2.33301 13.333 7 18s10.667 7 18 7h86c6.66699 0 12.5 -2.33301 17.5 -7s7.5 -10.667 7.5 -18v-645v0z" />
    <glyph glyph-name="V" unicode="V" horiz-adv-x="822" 
d="M772 287c0 -7.33301 -2.33301 -13.333 -7 -18s-10.667 -7 -18 -7h-61v-62c0 -7.33301 -2.33301 -13.333 -7 -18s-10.667 -7 -18 -7h-61v-62c0 -7.33301 -2.33301 -13.333 -7 -18s-10.667 -7 -18 -7h-61v-62c0 -7.33301 -2.33301 -13.333 -7 -18s-10.667 -7 -18 -7h-165
c-7.33301 0 -13.333 2.33301 -18 7s-7 10.667 -7 18v62h-61c-7.33301 0 -13.333 2.33301 -18 7s-7 10.667 -7 18v62h-61c-7.33301 0 -13.333 2.33301 -18 7s-7 10.667 -7 18v62h-61c-7.33301 0 -13.333 2.33301 -18 7s-7 10.667 -7 18v471c0 7.33301 2.33301 13.333 7 18
s10.667 7 18 7h86c7.33301 0 13.333 -2.33301 18 -7s7 -10.667 7 -18v-446h61c7.33301 0 13.333 -2.33301 18 -7s7 -10.667 7 -18v-62h61c7.33301 0 13.333 -2.33301 18 -7s7 -10.667 7 -18v-62h115v62c0 7.33301 2.33301 13.333 7 18s10.667 7 18 7h61v62
c0 7.33301 2.33301 13.333 7 18s10.667 7 18 7h61v446c0 7.33301 2.33301 13.333 7 18s10.667 7 18 7h86c7.33301 0 13.333 -2.33301 18 -7s7 -10.667 7 -18v-471v0z" />
    <glyph glyph-name="W" unicode="W" horiz-adv-x="1018" 
d="M961 200c0 -6.66699 -2.5 -12.5 -7.5 -17.5s-11.167 -7.5 -18.5 -7.5h-60v-61c0 -7.33301 -2.33301 -13.5 -7 -18.5s-10.667 -7.5 -18 -7.5h-61v-61c0 -7.33301 -2.33301 -13.333 -7 -18s-10.667 -7 -18 -7h-241c-7.33301 0 -13.333 2.33301 -18 7s-7 10.667 -7 18v61
h-36v-61c0 -7.33301 -2.33301 -13.333 -7 -18s-10.667 -7 -18 -7h-285c-7.33301 0 -13.333 2.33301 -18 7s-7 10.667 -7 18v61h-61c-7.33301 0 -13.333 2.5 -18 7.5s-7 11.167 -7 18.5v644c0 7.33301 2.5 13.5 7.5 18.5s11.167 7.5 18.5 7.5h46c8 0 11 0 9 0h-15
c-8 0 -16.167 -0.166992 -24.5 -0.5s-15.5 -0.5 -21.5 -0.5s-7.66699 0 -5 0h26h70c7.33301 0 13.333 -2.33301 18 -7s7 -10.667 7 -18v-619h235v619c0 7.33301 2.33301 13.333 7 18s10.667 7 18 7h86c6.66699 0 12.5 -2.33301 17.5 -7s7.5 -10.667 7.5 -18v-619h191v61
c0 7.33301 2.33301 13.5 7 18.5s10.667 7.5 18 7.5h61v532c0 7.33301 2.33301 13.333 7 18s10.667 7 18 7h85c7.33301 0 13.5 -2.33301 18.5 -7s7.5 -10.667 7.5 -18v-558v0z" />
    <glyph glyph-name="X" unicode="X" horiz-adv-x="789" 
d="M731 27c0 -7.33301 -2.5 -13.333 -7.5 -18s-10.833 -7 -17.5 -7h-86c-7.33301 0 -13.333 2.33301 -18 7s-7 10.667 -7 18v211h-61c-7.33301 0 -13.333 2.5 -18 7.5s-7 11.167 -7 18.5v60h-246v-60c0 -7.33301 -2.33301 -13.5 -7 -18.5s-10.667 -7.5 -18 -7.5h-61v-211
c0 -7.33301 -2.33301 -13.333 -7 -18s-10.667 -7 -18 -7h-86c-7.33301 0 -13.333 2.33301 -18 7s-7 10.667 -7 18v237c0 6.66699 2.33301 12.5 7 17.5s10.667 7.5 18 7.5h61v60c0 7.33301 2.33301 13.333 7 18s10.667 7 18 7h61v36h-61c-7.33301 0 -13.333 2.33301 -18 7
s-7 10.667 -7 18v61h-61c-7.33301 0 -13.333 2.33301 -18 7s-7 10.667 -7 18v237c0 7.33301 2.33301 13.333 7 18s10.667 7 18 7h86c7.33301 0 13.333 -2.33301 18 -7s7 -10.667 7 -18v-212h61c7.33301 0 13.333 -2.33301 18 -7s7 -10.667 7 -18v-61h246v61
c0 7.33301 2.33301 13.333 7 18s10.667 7 18 7h61v212c0 7.33301 2.33301 13.333 7 18s10.667 7 18 7h86c6.66699 0 12.5 -2.33301 17.5 -7s7.5 -10.667 7.5 -18v-237c0 -7.33301 -2.5 -13.333 -7.5 -18s-10.833 -7 -17.5 -7h-61v-61c0 -7.33301 -2.33301 -13.333 -7 -18
s-10.667 -7 -18 -7h-61v-36h61c7.33301 0 13.333 -2.33301 18 -7s7 -10.667 7 -18v-60h61c6.66699 0 12.5 -2.5 17.5 -7.5s7.5 -10.833 7.5 -17.5v-237v0z" />
    <glyph glyph-name="Y" unicode="Y" horiz-adv-x="784" 
d="M745 404c0 -7.33301 -2.33301 -13.333 -7 -18s-10.667 -7 -18 -7h-60v-61c0 -7.33301 -2.5 -13.333 -7.5 -18s-11.167 -7 -18.5 -7h-173v-266c0 -7.33301 -2.33301 -13.5 -7 -18.5s-10.667 -7.5 -18 -7.5h-86c-7.33301 0 -13.333 2.5 -18 7.5s-7 11.167 -7 18.5v266h-173
c-7.33301 0 -13.333 2.33301 -18 7s-7 10.667 -7 18v61h-61c-7.33301 0 -13.333 2.33301 -18 7s-7 10.667 -7 18v354c0 7.33301 2.33301 13.333 7 18s10.667 7 18 7h86c7.33301 0 13.333 -2.33301 18 -7s7 -10.667 7 -18v-329h173c7.33301 0 13.333 -2.33301 18 -7
s7 -10.667 7 -18v-61h36v61c0 7.33301 2.33301 13.333 7 18s10.667 7 18 7h173v329c0 7.33301 2.5 13.333 7.5 18s10.833 7 17.5 7h86c7.33301 0 13.333 -2.33301 18 -7s7 -10.667 7 -18v-354v0z" />
    <glyph glyph-name="Z" unicode="Z" horiz-adv-x="732" 
d="M706 27c0 -7.33301 -2.33203 -13.333 -6.99902 -18s-10.667 -7 -18 -7l-615 -1c-3.33301 1.33301 -6.5 2.33301 -9.5 3s-5.5 2.33398 -7.5 5.00098c-5.33301 5.33301 -8 11.333 -8 18v325c0 7.33301 2.33301 13.333 7 18s10.667 7 18 7h61v61
c0 7.33301 2.33301 13.333 7 18s10.667 7 18 7h418v184h-504c-7.33301 0 -13.333 2.33301 -18 7s-7 10.667 -7 18v86c0 7.33301 2.33301 13.333 7 18s10.667 7 18 7h615c7.33301 0 13.333 -2.33301 18 -7s7 -10.667 7 -18v-320c0 -7.33301 -2.33301 -13.333 -7 -18
s-10.667 -7 -18 -7h-61v-61c0 -7.33301 -2.33301 -13.333 -7 -18s-10.667 -7 -18 -7h-418v-188h504c7.33301 0 13.333 -2.33301 18 -7s7 -10.667 7 -18c0 -3.33301 -0.333008 -6.33301 -1 -9s-1.16699 -6.83398 -1.5 -12.501s-0.333008 -13.5 0 -23.5
s1.16602 -24 2.49902 -42z" />
    <glyph glyph-name="bracketleft" unicode="[" horiz-adv-x="313" 
d="M263 26c0 -7.33301 -2.33301 -13.3301 -7 -17.9971s-10.667 -7 -18 -7h-86c-7.33301 0 -13.333 2.33301 -18 7s-7 10.667 -7 18v62h-61c-7.33301 0 -13.333 2.33301 -18 7s-7 10.667 -7 18v558c0 7.33301 2.33301 13.333 7 18s10.667 7 18 7h61v62
c0 7.33301 2.33301 13.333 7 18s10.667 7 18 7h86c7.33301 0 13.333 -2.33301 18 -7s7 -10.667 7 -18v-87c0 -7.33301 -2.33301 -13.333 -7 -18s-10.667 -7 -18 -7h-61v-508h61c7.33301 0 13.333 -2.33301 18 -7s7 -10.667 7 -18v-25
c0 -4.66699 -0.166992 -7.83398 -0.5 -9.50098s-0.5 -2.83398 -0.5 -3.50098v-4v-13c0 -6.66699 0.333008 -17.334 1 -32.001z" />
    <glyph glyph-name="backslash" unicode="\" horiz-adv-x="481" 
d="M437 26c0 -6 -2.16895 -11.167 -6.50195 -15.5s-9.83301 -6.5 -16.5 -6.5h-87c-6.66699 0 -12.167 2.16699 -16.5 6.5s-6.5 9.5 -6.5 15.5v161h-65c-6 0 -11.333 2.16699 -16 6.5s-7 9.83301 -7 16.5v161h-65c-6 0 -11.167 2.16699 -15.5 6.5s-6.5 9.5 -6.5 15.5v161h-65
c-6.66699 0 -12.167 2.16699 -16.5 6.5s-6.5 9.83301 -6.5 16.5v183c0 6.66699 2.16699 12 6.5 16s9.83301 6 16.5 6h29c3.33301 0 3.33301 0 0 0h-13c-5.33301 0 -7.66602 0 -6.99902 0h17h60c6.66699 0 12.334 -2 17.001 -6s7 -9.33301 7 -16v-161h65
c6 0 11.333 -2.16699 16 -6.5s7 -9.5 7 -15.5v-161h65c6 0 11.167 -2.16699 15.5 -6.5s6.5 -9.83301 6.5 -16.5v-161h65c6.66699 0 12.167 -2.16699 16.5 -6.5s6.5 -9.5 6.5 -15.5v-184v0z" />
    <glyph glyph-name="bracketright" unicode="]" horiz-adv-x="313" 
d="M41 26c0 14.667 0.166992 25.3311 0.5 31.998s0.5 11 0.5 13v4c0 0.666992 -0.166992 1.83398 -0.5 3.50098s-0.5 4.83398 -0.5 9.50098v25c0 7.33301 2.33301 13.333 7 18s10.667 7 18 7h61v508h-61c-7.33301 0 -13.333 2.33301 -18 7s-7 10.667 -7 18v87
c0 7.33301 2.33301 13.333 7 18s10.667 7 18 7h86c7.33301 0 13.333 -2.33301 18 -7s7 -10.667 7 -18v-62h61c7.33301 0 13.333 -2.33301 18 -7s7 -10.667 7 -18v-558c0 -7.33301 -2.33301 -13.333 -7 -18s-10.667 -7 -18 -7h-61v-62c0 -7.33301 -2.33301 -13.333 -7 -18
s-10.667 -7 -18 -7h-86c-7.33301 0 -13.333 2.33301 -18 7s-7 10.667 -7 18z" />
    <glyph glyph-name="asciicircum" unicode="^" horiz-adv-x="600" 
d="M549 503c0 -6.66699 -2.16602 -12.168 -6.49902 -16.501s-9.5 -6.5 -15.5 -6.5h-88c-6 0 -11.167 2.16699 -15.5 6.5s-6.5 9.83301 -6.5 16.5v64h-76c-6.66699 0 -12.167 2.33301 -16.5 7s-6.5 10 -6.5 16v65h-42v-65c0 -6 -2.16699 -11.333 -6.5 -16s-9.5 -7 -15.5 -7
h-76v-65c0 -6 -2.33301 -11.167 -7 -15.5s-10 -6.5 -16 -6.5h-87c-6.66699 0 -12.167 2.16699 -16.5 6.5s-6.5 9.5 -6.5 15.5v88c0 6.66699 2.16699 12.167 6.5 16.5s9.83301 6.5 16.5 6.5h64v64c0 6.66699 2.33301 12.167 7 16.5s10 6.5 16 6.5h76v63
c0 6.66699 2.16699 12.167 6.5 16.5s9.83301 6.5 16.5 6.5h87c6 0 11.167 -2.16699 15.5 -6.5s6.5 -9.83301 6.5 -16.5v-63h76c6.66699 0 12.167 -2.16699 16.5 -6.5s6.5 -9.83301 6.5 -16.5v-64h65c6 0 11.167 -2.16699 15.5 -6.5s6.5 -9.83301 6.5 -16.5
c0 -3.33301 0.166992 -6.83301 0.5 -10.5s0.666016 -8.66699 0.999023 -15s0.5 -14.5 0.5 -24.5c0 -9.33301 -0.666992 -21.666 -2 -36.999z" />
    <glyph glyph-name="underscore" unicode="_" horiz-adv-x="363" 
d="M294 26c0 -7.33301 -2.33301 -13.501 -7 -18.501s-10.667 -7.5 -18 -7.5h-203c-7.33301 0 -13.333 2.5 -18 7.5s-7 11.167 -7 18.5v87c0 6.66699 2.33301 12.5 7 17.5s10.667 7.5 18 7.5h203c7.33301 0 13.333 -2.5 18 -7.5s7 -10.833 7 -17.5v-35
c0 -6.66699 -0.166992 -11.167 -0.5 -13.5l-0.5 -3.5c0 0.666992 0 0.333984 0 -0.999023v-9c0 -4.66699 0.333008 -13 1 -25z" />
    <glyph glyph-name="grave" unicode="`" horiz-adv-x="321" 
d="M263 584c0 -6.66699 -2.33301 -12.5 -7 -17.5s-10.667 -7.5 -18 -7.5h-86c-7.33301 0 -13.333 2.5 -18 7.5s-7 10.833 -7 17.5v62h-61c-7.33301 0 -13.333 2.33301 -18 7s-7 10.667 -7 18v87c0 7.33301 2.33301 13.333 7 18s10.667 7 18 7h86
c7.33301 0 13.333 -2.33301 18 -7s7 -10.667 7 -18v-62h61c7.33301 0 13.333 -2.33301 18 -7s7 -10.667 7 -18v-87v0z" />
    <glyph glyph-name="a" unicode="a" horiz-adv-x="666" 
d="M412 456h-234v-320h234v320zM610 25c0 -7.33301 -2.33301 -13.333 -7 -18s-10.667 -7 -18 -7h-432c-7.33301 -0 -13.333 2.33301 -18 7s-7 10.667 -7 18v61h-62c-7.33301 0 -13.333 2.33301 -18 7s-7 10.667 -7 18v370c0 7.33301 2.33301 13.333 7 18s10.667 7 18 7h62
v60c0 7.33301 2.33301 13.333 7 18s10.667 7 18 7h371c7.33301 0 13.333 -2.33301 18 -7s7 -10.667 7 -18v-430h36c7.33301 0 13.333 -2.33301 18 -7s7 -10.667 7 -18v-86v0z" />
    <glyph glyph-name="b" unicode="b" horiz-adv-x="604" 
d="M412 456h-233v-320h233v320zM550 111c0 -7.33301 -2.33301 -13.333 -7 -18s-10.667 -7 -18 -7h-62v-61c0 -7.33301 -2.5 -13.333 -7.5 -18s-11.167 -7 -18.5 -7h-284c-6.66699 -0 -12.5 2.33301 -17.5 7s-7.5 10.667 -7.5 18v61h-62c-7.33301 0 -13.333 2.33301 -18 7
s-7 10.667 -7 18v647c0 7.33301 2.33301 13.333 7 18s10.667 7 18 7h87c7.33301 0 13.5 -2.33301 18.5 -7s7.5 -10.667 7.5 -18v-166h258c7.33301 0 13.5 -2.33301 18.5 -7s7.5 -10.667 7.5 -18v-60h62c7.33301 0 13.333 -2.5 18 -7.5s7 -11.167 7 -18.5v-370v0z" />
    <glyph glyph-name="c" unicode="c" horiz-adv-x="568" 
d="M550 25c0 -7.33301 -2.5 -13.333 -7.5 -18s-10.833 -7 -17.5 -7h-371c-7.33301 -0 -13.5 2.33301 -18.5 7s-7.5 10.667 -7.5 18v61h-62c-7.33301 0 -13.333 2.33301 -18 7s-7 10.667 -7 18v370c0 7.33301 2.33301 13.333 7 18s10.667 7 18 7h62v60
c0 7.33301 2.5 13.333 7.5 18s11.167 7 18.5 7h371c6.66699 0 12.5 -2.33301 17.5 -7s7.5 -10.667 7.5 -18v-85c0 -7.33301 -2.5 -13.333 -7.5 -18s-10.833 -7 -17.5 -7h-346v-320h346c6.66699 0 12.5 -2.33301 17.5 -7s7.5 -10.667 7.5 -18v-86v0z" />
    <glyph glyph-name="d" unicode="d" horiz-adv-x="668" 
d="M412 456h-233v-320h233v320zM610 25c0 -7.33301 -2.33301 -13.333 -7 -18s-10.667 -7 -18 -7h-432c-6.66699 -0 -12.5 2.33301 -17.5 7s-7.5 10.667 -7.5 18v61h-62c-7.33301 0 -13.333 2.33301 -18 7s-7 10.667 -7 18v370c0 7.33301 2.33301 13.5 7 18.5
s10.667 7.5 18 7.5h62v60c0 7.33301 2.5 13.333 7.5 18s10.833 7 17.5 7h259v166c0 7.33301 2.33301 13.333 7 18s10.667 7 18 7h88c7.33301 0 13.333 -2.33301 18 -7s7 -10.667 7 -18v-622h35c7.33301 0 13.333 -2.33301 18 -7s7 -10.667 7 -18v-86v0z" />
    <glyph glyph-name="e" unicode="e" horiz-adv-x="598" 
d="M412 456h-234v-93h234v93zM550 25c0 -7.33301 -2.5 -13.333 -7.5 -18s-10.833 -7 -17.5 -7h-372c-6.66699 -0 -12.5 2.33301 -17.5 7s-7.5 10.667 -7.5 18v61h-62c-7.33301 0 -13.333 2.33301 -18 7s-7 10.667 -7 18v370c0 7.33301 2.33301 13.333 7 18s10.667 7 18 7h62
v60c0 7.33301 2.5 13.333 7.5 18s10.833 7 17.5 7h284c7.33301 0 13.333 -2.33301 18 -7c4.66699 -6 7 -12 7 -18v-60h62c6.66699 0 12.5 -2.33301 17.5 -7s7.5 -10.667 7.5 -18v-143c0 -7.33301 -2.5 -13.333 -7.5 -18s-10.833 -7 -17.5 -7h-62v-61
c0 -7.33301 -2.33301 -13.333 -7 -18s-10.667 -7 -18 -7h-259v-91h347c6.66699 0 12.5 -2.33301 17.5 -7s7.5 -10.667 7.5 -18v-86v0z" />
    <glyph glyph-name="f" unicode="f" horiz-adv-x="502" 
d="M434 481c0 -6.66699 -2.33301 -12.5 -7 -17.5s-10.667 -7.5 -18 -7.5h-112v-431c0 -7.33301 -2.33301 -13.333 -7 -18s-10.667 -7 -18 -7h-87c-7.33301 -0 -13.333 2.33301 -18 7s-7 10.667 -7 18v431h-108c-7.33301 0 -13.333 2.5 -18 7.5s-7 10.833 -7 17.5v86
c0 7.33301 2.33301 13.333 7 18s10.667 7 18 7h108v81c0 7.33301 2.33301 13.333 7 18s10.667 7 18 7h62v60c0 7.33301 2.33301 13.333 7 18s10.667 7 18 7h186c7.33301 0 13.333 -2.33301 18 -7s7 -10.667 7 -18v-85c0 -7.33301 -2.33301 -13.333 -7 -18s-10.667 -7 -18 -7
h-161v-56h112c7.33301 0 13.333 -2.33301 18 -7s7 -10.667 7 -18v-86v0z" />
    <glyph glyph-name="g" unicode="g" horiz-adv-x="610" 
d="M412 456h-234v-320h234v320zM549 -106c0 -7.33301 -2.33301 -13.333 -7 -18s-10.667 -7 -18 -7h-62v-61c0 -7.33301 -2.33301 -13.333 -7 -18s-10.667 -7 -18 -7h-284c-7.33301 0 -13.333 2.33301 -18 7s-7 10.667 -7 18v86c0 7.33301 2.33301 13.333 7 18s10.667 7 18 7
h259v81h-259c-7.33301 -0 -13.333 2.33301 -18 7s-7 10.667 -7 18v61h-62c-7.33301 0 -13.333 2.33301 -18 7s-7 10.667 -7 18v370c0 7.33301 2.33301 13.333 7 18s10.667 7 18 7h62v60c0 7.33301 2.33301 13.333 7 18s10.667 7 18 7h371c7.33301 0 13.333 -2.33301 18 -7
s7 -10.667 7 -18v-455c0 -7.33301 -2.33301 -13.333 -7 -18s-10.667 -7 -18 -7h-62v-36h62c7.33301 0 13.333 -2.33301 18 -7s7 -10.667 7 -18v-131v0z" />
    <glyph glyph-name="h" unicode="h" 
d="M550 25c0 -7.33301 -2.33301 -13.333 -7 -18s-10.667 -7 -18 -7h-87c-7.33301 -0 -13.333 2.33301 -18 7s-7 10.667 -7 18v431h-234v-431c0 -7.33301 -2.5 -13.333 -7.5 -18s-10.833 -7 -17.5 -7h-88c-7.33301 -0 -13.333 2.33301 -18 7s-7 10.667 -7 18v733
c0 7.33301 2.33301 13.333 7 18s10.667 7 18 7h88c6.66699 0 12.5 -2.33301 17.5 -7s7.5 -10.667 7.5 -18v-166h259c7.33301 0 13.333 -2.33301 18 -7s7 -10.667 7 -18v-60h62c7.33301 0 13.333 -2.5 18 -7.5s7 -11.167 7 -18.5v-456v0z" />
    <glyph glyph-name="i" unicode="i" horiz-adv-x="239" 
d="M179 673c0 -7.33301 -2.5 -13.333 -7.5 -18s-10.833 -7 -17.5 -7h-88c-7.33301 0 -13.333 2.33301 -18 7s-7 10.667 -7 18v85c0 7.33301 2.33301 13.333 7 18s10.667 7 18 7h88c6.66699 0 12.5 -2.33301 17.5 -7s7.5 -10.667 7.5 -18v-85v0zM179 26
c0 -7.33301 -2.5 -13.5 -7.5 -18.5s-10.833 -7.5 -17.5 -7.5h-88c-7.33301 0 -13.333 2.5 -18 7.5s-7 11.167 -7 18.5v541c0 7.33301 2.33301 13.333 7 18s10.667 7 18 7h88c6.66699 0 12.5 -2.33301 17.5 -7s7.5 -10.667 7.5 -18v-541v0z" />
    <glyph glyph-name="j" unicode="j" horiz-adv-x="424" 
d="M364 -106c0 -7.33301 -2.33301 -13.333 -7 -18s-10.667 -7 -18 -7h-62v-61c0 -7.33301 -2.33301 -13.333 -7 -18s-10.667 -7 -18 -7h-186c-7.33301 0 -13.333 2.33301 -18 7s-7 10.667 -7 18v86c0 7.33301 2.33301 13.333 7 18s10.667 7 18 7h161v648
c0 7.33301 2.33301 13.333 7 18s10.667 7 18 7h87c7.33301 0 13.333 -2.33301 18 -7s7 -10.667 7 -18v-673v0zM364 673c0 -7.33301 -2.33301 -13.333 -7 -18s-10.667 -7 -18 -7h-87c-7.33301 0 -13.333 2.33301 -18 7s-7 10.667 -7 18v85c0 7.33301 2.33301 13.333 7 18
s10.667 7 18 7h87c7.33301 0 13.333 -2.33301 18 -7s7 -10.667 7 -18v-85v0z" />
    <glyph glyph-name="k" unicode="k" horiz-adv-x="610" 
d="M550 25c0 -7.33301 -2.33301 -13.333 -7 -18s-10.667 -7 -18 -7h-87c-7.33301 -0 -13.333 2.33301 -18 7s-7 10.667 -7 18v203h-234v-203c0 -7.33301 -2.33301 -13.333 -7 -18s-10.667 -7 -18 -7h-88c-7.33301 -0 -13.333 2.33301 -18 7s-7 10.667 -7 18v733
c0 7.33301 2.33301 13.333 7 18s10.667 7 18 7h88c7.33301 0 13.333 -2.33301 18 -7s7 -10.667 7 -18v-394h234v203c0 7.33301 2.33301 13.333 7 18s10.667 7 18 7h87c7.33301 0 13.333 -2.33301 18 -7s7 -10.667 7 -18v-228c0 -7.33301 -2.33301 -13.5 -7 -18.5
s-10.667 -7.5 -18 -7.5h-62v-34h62c7.33301 0 13.333 -2.5 18 -7.5s7 -11.167 7 -18.5v-228v0z" />
    <glyph glyph-name="l" unicode="l" horiz-adv-x="240" 
d="M179 25c0 -7.33301 -2.33301 -13.333 -7 -18s-10.667 -7 -18 -7h-88c-7.33301 -0 -13.333 2.33301 -18 7s-7 10.667 -7 18v733c0 7.33301 2.33301 13.333 7 18s10.667 7 18 7h88c7.33301 0 13.333 -2.33301 18 -7s7 -10.667 7 -18v-733v0z" />
    <glyph glyph-name="m" unicode="m" horiz-adv-x="842" 
d="M783 25c0 -7.33301 -2.5 -13.333 -7.5 -18s-11.167 -7 -18.5 -7h-87c-7.33301 -0 -13.333 2.33301 -18 7s-7 10.667 -7 18v431h-164v-431c0 -7.33301 -2.5 -13.333 -7.5 -18s-11.167 -7 -18.5 -7h-87c-7.33301 -0 -13.333 2.33301 -18 7s-7 10.667 -7 18v431h-164v-431
c0 -7.33301 -2.5 -13.333 -7.5 -18s-10.833 -7 -17.5 -7h-88c-7.33301 -0 -13.333 2.33301 -18 7s-7 10.667 -7 18v541c0 7.33301 2.33301 13.333 7 18s10.667 7 18 7h302c7.33301 0 13.333 -2.33301 18 -7s7 -10.667 7 -18v-60h37v60c0 7.33301 2.5 13.333 7.5 18
s10.833 7 17.5 7h215c7.33301 0 13.333 -2.33301 18 -7s7 -10.667 7 -18v-60h62c7.33301 0 13.5 -2.33301 18.5 -7s7.5 -10.667 7.5 -18v-456v0z" />
    <glyph glyph-name="n" unicode="n" horiz-adv-x="583" 
d="M549 25c0 -7.33301 -2.33301 -13.333 -7 -18s-10.667 -7 -18 -7h-87c-7.33301 -0 -13.333 2.33301 -18 7s-7 10.667 -7 18v431h-234v-431c0 -7.33301 -2.33301 -13.333 -7 -18s-10.667 -7 -18 -7h-87c-7.33301 -0 -13.333 2.33301 -18 7s-7 10.667 -7 18v541
c0 7.33301 2.33301 13.333 7 18s10.667 7 18 7h371c7.33301 0 13.333 -2.33301 18 -7s7 -10.667 7 -18v-60h62c7.33301 0 13.333 -2.33301 18 -7s7 -10.667 7 -18v-456v0z" />
    <glyph glyph-name="o" unicode="o" 
d="M412 456h-234v-320h234v320zM550 111c0 -7.33301 -2.5 -13.333 -7.5 -18s-11.167 -7 -18.5 -7h-62v-61c0 -7.33301 -2.33301 -13.333 -7 -18s-10.667 -7 -18 -7h-284c-7.33301 -0 -13.333 2.33301 -18 7s-7 10.667 -7 18v61h-62c-7.33301 0 -13.333 2.33301 -18 7
s-7 10.667 -7 18v370c0 7.33301 2.33301 13.333 7 18s10.667 7 18 7h62v60c0 7.33301 2.33301 13.333 7 18s10.667 7 18 7h284c7.33301 0 13.333 -2.33301 18 -7s7 -10.667 7 -18v-60h62c7.33301 0 13.5 -2.33301 18.5 -7s7.5 -10.667 7.5 -18v-370v0z" />
    <glyph glyph-name="p" unicode="p" 
d="M412 456h-233v-320h233v320zM550 111c0 -6.66699 -2.66699 -12.667 -8 -18c-4 -4.66699 -9.66699 -7 -17 -7h-63v-61c0 -7.33301 -2.33301 -13.333 -7 -18s-10.667 -7 -18 -7h-258v-192c0 -7.33301 -2.5 -13.333 -7.5 -18s-10.833 -7 -17.5 -7h-88
c-7.33301 0 -13.333 2.33301 -18 7s-7 10.667 -7 18v673c0 7.33301 2.33301 13.333 7 18s10.667 7 18 7h62v60c0 7.33301 2.5 13.333 7.5 18s11.167 7 18.5 7h283c7.33301 0 13.333 -2.33301 18 -7s7 -10.667 7 -18v-60h62c7.33301 0 13.333 -2.33301 18 -7s7 -10.667 7 -18
l1 -370v0z" />
    <glyph glyph-name="q" unicode="q" horiz-adv-x="610" 
d="M412 456h-233v-320h233v320zM550 -192c0 -7.33301 -2.5 -13.333 -7.5 -18s-10.833 -7 -17.5 -7h-88c-6.66699 0 -12.5 2.33301 -17.5 7s-7.5 10.667 -7.5 18v192h-258c-7.33301 -0 -13.5 2.33301 -18.5 7s-7.5 10.667 -7.5 18v61h-62c-7.33301 0 -13.333 2.33301 -18 7
s-7 10.667 -7 18v370c0 7.33301 2.33301 13.333 7 18s10.667 7 18 7h62v60c0 7.33301 2.5 13.333 7.5 18s11.167 7 18.5 7h371c6.66699 0 12.5 -2.33301 17.5 -7s7.5 -10.667 7.5 -18v-758v0z" />
    <glyph glyph-name="r" unicode="r" horiz-adv-x="476" 
d="M461 481c0 -7.33301 -2.16797 -13.333 -6.50098 -18s-10.166 -7 -17.499 -7h-258v-431c0 -7.33301 -2.5 -13.333 -7.5 -18s-10.833 -7 -17.5 -7h-88c-7.33301 -0 -13.333 2.33301 -18 7s-7 10.667 -7 18v456c0 7.33301 2.33301 13.333 7 18s10.667 7 18 7h62v60
c0 7.33301 2.5 13.333 7.5 18s11.167 7 18.5 7h283c7.33301 0 13.333 -2.33301 18 -7s7 -10.667 7 -18z" />
    <glyph glyph-name="s" unicode="s" horiz-adv-x="599" 
d="M550 111c0 -7.33301 -2.50098 -13.333 -7.50098 -18s-10.833 -7 -17.5 -7h-63v-61c0 -7.33301 -2.33301 -13.333 -7 -18s-10.667 -7 -18 -7h-371c-7.33301 -0 -13.333 2.33301 -18 7s-7 10.667 -7 18v86c0 7.33301 2.33301 13.333 7 18s10.667 7 18 7h346v91h-258
c-7.33301 0 -13.5 2.33301 -18.5 7s-7.5 10.667 -7.5 18v60h-62c-7.33301 0 -13.333 2.5 -18 7.5s-7 10.833 -7 17.5v144c0 6 2.33301 12 7 18c6 4.66699 12 7 18 7h62v60c0 6.66699 2.66699 12.667 8 18c4.66699 4.66699 10.334 7 17.001 7h372
c6.66699 0 12.5 -2.33301 17.5 -7s7.5 -10.667 7.5 -18v-85c0 -7.33301 -2.5 -13.333 -7.5 -18s-10.833 -7 -17.5 -7h-346v-93h258c7.33301 0 13.333 -2.5 18 -7.5s7 -11.167 7 -18.5v-60h63c6.66699 0 12.5 -2.5 17.5 -7.5s7.5 -10.833 7.5 -17.5v-141v0z" />
    <glyph glyph-name="t" unicode="t" horiz-adv-x="588" 
d="M550 25c0 -7.33301 -2.33301 -13.333 -7 -18s-10.667 -7 -18 -7h-186c-7.33301 -0 -13.333 2.33301 -18 7s-7 10.667 -7 18v61h-62c-7.33301 0 -13.333 2.33301 -18 7s-7 10.667 -7 18v345h-161c-7.33301 0 -13.333 2.5 -18 7.5s-7 10.833 -7 17.5v86
c0 6.66699 2.33301 12.5 7 17.5s10.667 7.5 18 7.5h161v166c0 7.33301 2.33301 13.333 7 18s10.667 7 18 7h87c7.33301 0 13.333 -2.33301 18 -7s7 -10.667 7 -18v-166h161c7.33301 0 13.333 -2.5 18 -7.5s7 -10.833 7 -17.5v-86c0 -6.66699 -2.33301 -12.5 -7 -17.5
s-10.667 -7.5 -18 -7.5h-161v-320h161c7.33301 0 13.333 -2.33301 18 -7s7 -10.667 7 -18v-86v0z" />
    <glyph glyph-name="u" unicode="u" 
d="M550 111c0 -7.33301 -2.33301 -13.333 -7 -18s-10.667 -7 -18 -7h-63v-61c0 -7.33301 -2.33301 -13.333 -7 -18s-10.667 -7 -18 -7h-283c-7.33301 -0 -13.333 2.33301 -18 7s-7 10.667 -7 18v61h-63c-7.33301 0 -13 2.33301 -17 7c-5.33301 5.33301 -8 11.333 -8 18v455
c0 7.33301 2.33301 13.333 7 18s10.667 7 18 7h88c6.66699 0 12.5 -2.33301 17.5 -7s7.5 -10.667 7.5 -18v-430h233v430c0 7.33301 2.5 13.333 7.5 18s10.833 7 17.5 7h88c7.33301 0 13.333 -2.33301 18 -7s7 -10.667 7 -18v-455v0z" />
    <glyph glyph-name="v" unicode="v" horiz-adv-x="607" 
d="M550 196c0 -6.66699 -2.33301 -12.5 -7 -17.5s-10.667 -7.5 -18 -7.5h-62v-60c0 -7.33301 -2.5 -13.333 -7.5 -18s-11.167 -7 -18.5 -7h-73v-61c0 -7.33301 -2.33301 -13.333 -7 -18s-10.667 -7 -18 -7h-185c-7.33301 -0 -13.333 2.33301 -18 7s-7 10.667 -7 18v61h-63
c-7.33301 0 -13.333 2.33301 -18 7s-7 10.667 -7 18v455c0 7.33301 2.33301 13.333 7 18s10.667 7 18 7h88c6.66699 0 12.5 -2.33301 17.5 -7s7.5 -10.667 7.5 -18v-430h135v60c0 7.33301 2.33301 13.5 7 18.5s10.667 7.5 18 7.5h73v344c0 7.33301 2.5 13.333 7.5 18
s10.833 7 17.5 7h88c7.33301 0 13.333 -2.33301 18 -7s7 -10.667 7 -18v-370v0z" />
    <glyph glyph-name="w" unicode="w" horiz-adv-x="882" 
d="M824 196c0 -6.66699 -2.33301 -12.5 -7 -17.5s-10.667 -7.5 -18 -7.5h-63v-60c0 -7.33301 -2.33301 -13.333 -7 -18s-10.667 -7 -18 -7h-63v-61c0 -7.33301 -2.33301 -13.333 -7 -18s-10.667 -7 -18 -7h-154c-7.33301 -0 -13.333 2.33301 -18 7s-7 10.667 -7 18v61h-37
v-61c0 -7.33301 -2.5 -13.333 -7.5 -18s-11.167 -7 -18.5 -7h-227c-7.33301 -0 -13.333 2.33301 -18 7s-7 10.667 -7 18v61h-63c-7.33301 0 -13 2.33301 -17 7c-5.33301 5.33301 -8 11.333 -8 18v455c0 7.33301 2.33301 13.333 7 18s10.667 7 18 7h88
c6.66699 0 12.5 -2.33301 17.5 -7s7.5 -10.667 7.5 -18v-430h177v430c0 7.33301 2.5 13.333 7.5 18s10.833 7 17.5 7h88c7.33301 0 13.333 -2.33301 18 -7s7 -10.667 7 -18v-430h104v60c0 7.33301 2.5 13.5 7.5 18.5s10.833 7.5 17.5 7.5h63v344
c0 7.33301 2.33301 13.333 7 18s10.667 7 18 7h88c7.33301 0 13.333 -2.33301 18 -7s7 -10.667 7 -18v-370v0z" />
    <glyph glyph-name="x" unicode="x" 
d="M550 25c0 -7.33301 -2.5 -13.332 -7.5 -17.999s-10.833 -7 -17.5 -7h-88c-7.33301 0 -13.333 2.33301 -18 7s-7 10.667 -7 18v116h-73c-7.33301 0 -13.333 2.33301 -18 7s-7 10.667 -7 18v61h-37v-61c0 -7.33301 -2.33301 -13.333 -7 -18s-10.667 -7 -18 -7h-73v-116
c0 -7.33301 -2.33301 -13.333 -7 -18s-10.667 -7 -18 -7h-88c-7.33301 0 -13.333 2.33301 -18 7s-7 10.667 -7 18v141c0 7.33301 2.33301 13.333 7 18s10.667 7 18 7h63v61c0 6.66699 2.33301 12.5 7 17.5s10.667 7.5 18 7.5h73v35h-73c-7.33301 0 -13.333 2.5 -18 7.5
s-7 10.833 -7 17.5v61h-63c-7.33301 0 -13.333 2.33301 -18 7s-7 10.667 -7 18v143c0 7.33301 2.33301 13.333 7 18s10.667 7 18 7h88c7.33301 0 13.333 -2.33301 18 -7s7 -10.667 7 -18v-118h73c7.33301 0 13.333 -2.33301 18 -7s7 -10.667 7 -18v-61h37v61
c0 7.33301 2.33301 13.333 7 18s10.667 7 18 7h73v118c0 7.33301 2.33301 13.333 7 18s10.667 7 18 7h88c6.66699 0 12.5 -2.33301 17.5 -7s7.5 -10.667 7.5 -18v-143c0 -7.33301 -2.66699 -13 -8 -17c-4 -5.33301 -9.66699 -8 -17 -8h-63v-61
c0 -6.66699 -2.33301 -12.334 -7 -17.001c-5.33301 -5.33301 -11.333 -8 -18 -8h-73v-35h73c7.33301 0 13.333 -2.5 18 -7.5s7 -10.833 7 -17.5v-61h63c7.33301 0 13 -2.66699 17 -8c5.33301 -4 8 -9.66699 8 -17v-141v0z" />
    <glyph glyph-name="y" unicode="y" horiz-adv-x="610" 
d="M550 -106c0 -7.33301 -2.5 -13.333 -7.5 -18s-11.167 -7 -18.5 -7h-62v-61c0 -7.33301 -2.33301 -13.333 -7 -18s-10.667 -7 -18 -7h-284c-6.66699 0 -12.5 2.33301 -17.5 7s-7.5 10.667 -7.5 18v86c0 7.33301 2.33301 13.333 7 18s10.667 7 18 7h259v82h-259
c-6.66699 0 -12.5 2.33301 -17.5 7s-7.5 10.667 -7.5 18v60h-62c-7.33301 0 -13.333 2.33301 -18 7s-7 10.667 -7 18v455c0 7.33301 2.33301 13.333 7 18s10.667 7 18 7h87c7.33301 0 13.5 -2.33301 18.5 -7s7.5 -10.667 7.5 -18v-430h233v430
c0 7.33301 2.33301 13.333 7 18s10.667 7 18 7h87c7.33301 0 13.5 -2.33301 18.5 -7s7.5 -10.667 7.5 -18v-672v0z" />
    <glyph glyph-name="z" unicode="z" horiz-adv-x="600" 
d="M550 25c0 -7.33301 -2.33301 -13.333 -7 -18s-10.667 -7 -18 -7h-458c-7.33301 -0 -13.5 2.33301 -18.5 7s-7.5 10.667 -7.5 18v184c0 7.33301 2.5 13.333 7.5 18s11.167 7 18.5 7h62v61c0 6.66699 2.33301 12.5 7 17.5s10.667 7.5 18 7.5h116v60
c0 7.33301 2.5 13.333 7.5 18s10.833 7 17.5 7h117v49h-346c-7.33301 0 -13.333 2.33301 -18 7s-7 10.667 -7 18v87c0 7.33301 2.33301 13.333 7 18s10.667 7 18 7h459c6.66699 0 12.5 -2.33301 17.5 -7s7.5 -10.667 7.5 -18v-186c0 -7.33301 -2.66699 -13 -8 -17
c-4 -5.33301 -9.66699 -8 -17 -8h-63v-60c0 -7.33301 -2.33301 -13.5 -7 -18.5s-10.667 -7.5 -18 -7.5h-116v-60c0 -7.33301 -2.5 -13.333 -7.5 -18s-11.167 -7 -18.5 -7h-116v-48h346c7.33301 0 13.333 -2.33301 18 -7s7 -10.667 7 -18v-86v0z" />
    <glyph glyph-name="braceleft" unicode="{" horiz-adv-x="398" 
d="M349 26c0 -7.33301 -2.33301 -13.333 -7 -18s-10.667 -7 -18 -7h-86c-7.33301 0 -13.333 2.33301 -18 7s-7 10.667 -7 18v62h-61c-7.33301 0 -13.333 2.33301 -18 7s-7 10.667 -7 18v210h-61c-7.33301 0 -13.333 2.33301 -18 7s-7 10.667 -7 18v87
c0 7.33301 2.33301 13.333 7 18s10.667 7 18 7h61v211c0 7.33301 2.33301 13.333 7 18s10.667 7 18 7h61v62c0 7.33301 2.33301 13.333 7 18s10.667 7 18 7h86c7.33301 0 13.333 -2.33301 18 -7s7 -10.667 7 -18v-87c0 -7.33301 -2.33301 -13.333 -7 -18s-10.667 -7 -18 -7
h-61v-211c0 -7.33301 -2.33301 -13.333 -7 -18s-10.667 -7 -18 -7h-61v-37h61c7.33301 0 13.333 -2.33301 18 -7s7 -10.667 7 -18v-210h61c7.33301 0 13.333 -2.33301 18 -7s7 -10.667 7 -18v-33v-9v-10v-35z" />
    <glyph glyph-name="bar" unicode="|" horiz-adv-x="240" 
d="M179 -78c0 -7.33301 -2.33301 -13.333 -7 -18s-10.667 -7 -18 -7h-88c-7.33301 0 -13.333 2.33301 -18 7s-7 10.667 -7 18v939c0 7.33301 2.33301 13.333 7 18s10.667 7 18 7h88c7.33301 0 13.333 -2.33301 18 -7s7 -10.667 7 -18v-939v0z" />
    <glyph glyph-name="braceright" unicode="}" horiz-adv-x="398" 
d="M41 26v35v10v9v33c0 7.33301 2.33301 13.333 7 18s10.667 7 18 7h61v210c0 7.33301 2.33301 13.333 7 18s10.667 7 18 7h61v37h-61c-7.33301 0 -13.333 2.33301 -18 7s-7 10.667 -7 18v211h-61c-7.33301 0 -13.333 2.33301 -18 7s-7 10.667 -7 18v87
c0 7.33301 2.33301 13.333 7 18s10.667 7 18 7h86c7.33301 0 13.333 -2.33301 18 -7s7 -10.667 7 -18v-62h61c7.33301 0 13.333 -2.33301 18 -7s7 -10.667 7 -18v-211h61c7.33301 0 13.333 -2.33301 18 -7s7 -10.667 7 -18v-87c0 -7.33301 -2.33301 -13.333 -7 -18
s-10.667 -7 -18 -7h-61v-210c0 -7.33301 -2.33301 -13.333 -7 -18s-10.667 -7 -18 -7h-61v-62c0 -7.33301 -2.33301 -13.333 -7 -18s-10.667 -7 -18 -7h-86c-7.33301 0 -13.333 2.33301 -18 7s-7 10.667 -7 18z" />
    <glyph glyph-name="asciitilde" unicode="~" horiz-adv-x="590" 
d="M548 590c0 -6 -1.83301 -11.333 -5.5 -16s-8.5 -7 -14.5 -7h-65v-64c0 -6.66699 -2.16699 -12.167 -6.5 -16.5s-9.5 -6.5 -15.5 -6.5h-99c-6.66699 0 -12.167 2.16699 -16.5 6.5s-6.5 9.83301 -6.5 16.5v64h-64c-6.66699 0 -12.167 2.33301 -16.5 7s-6.5 10 -6.5 16v65
h-53v-65c0 -6 -2.33301 -11.333 -7 -16s-10 -7 -16 -7h-87c-6.66699 0 -12.167 2.33301 -16.5 7s-6.5 10 -6.5 16v87c0 6.66699 2.16699 12.167 6.5 16.5s9.83301 6.5 16.5 6.5h64v63c0 6.66699 2.33301 12.167 7 16.5s10 6.5 16 6.5h99c6 0 11.167 -2.16699 15.5 -6.5
s6.5 -9.83301 6.5 -16.5v-63h65c6 0 11.167 -2.16699 15.5 -6.5s6.5 -9.83301 6.5 -16.5v-64h54v64c0 6.66699 2.16699 12.167 6.5 16.5s9.83301 6.5 16.5 6.5h87c6 0 11 -2.16699 15 -6.5s5.66699 -9.83301 5 -16.5v-87z" />
    <glyph glyph-name="exclamdown" unicode="&#xa1;" horiz-adv-x="239" 
d="M41 477c0 6.66699 2.66699 12.667 8 18c4 5.33301 9.66699 8 17 8h88c7.33301 0 13.333 -2.5 18 -7.5s7 -11.167 7 -18.5v-85c0 -7.33301 -2.33301 -13.333 -7 -18s-10.667 -7 -18 -7h-88c-6.66699 0 -12.5 2.33301 -17.5 7s-7.5 10.667 -7.5 18v85v0zM41 286
c0 7.33301 2.5 13.333 7.5 18s10.833 7 17.5 7h88c7.33301 0 13.333 -2.33301 18 -7s7 -10.667 7 -18v-541c0 -7.33301 -2.33301 -13.333 -7 -18s-10.667 -7 -18 -7h-88c-6.66699 0 -12.5 2.33301 -17.5 7s-7.5 10.667 -7.5 18v541v0z" />
    <glyph glyph-name="cent" unicode="&#xa2;" horiz-adv-x="549" 
d="M192 219h77v153h-77v-153zM396 27c0 -7.33301 -2.5 -13.5 -7.5 -18.5s-10.833 -7.5 -17.5 -7.5h-77c-7.33301 0 -13.333 2.5 -18 7.5s-7 11.167 -7 18.5v56h-102c-7.33301 0 -13.5 2.33301 -18.5 7s-7.5 10.667 -7.5 18v61h-62c-7.33301 0 -13.333 2.33301 -18 7
s-7 10.667 -7 18v203c0 7.33301 2.33301 13.333 7 18s10.667 7 18 7h62v60c0 7.33301 2.5 13.333 7.5 18s11.167 7 18.5 7h102v61c0 7.33301 2.33301 13.333 7 18s10.667 7 18 7h77c6.66699 0 12.5 -2.33301 17.5 -7s7.5 -10.667 7.5 -18v-61h79
c6.66699 0 12.5 -2.33301 17.5 -7s7.5 -10.667 7.5 -18v-85c0 -7.33301 -2.5 -13.333 -7.5 -18s-10.833 -7 -17.5 -7h-79v-153h79c6.66699 0 12.5 -2.33301 17.5 -7s7.5 -10.667 7.5 -18v-86c0 -7.33301 -2.5 -13.333 -7.5 -18s-10.833 -7 -17.5 -7h-79v-56v0z" />
    <glyph glyph-name="sterling" unicode="&#xa3;" horiz-adv-x="603" 
d="M431 372c0 -7.33301 -2.33301 -13.333 -7 -18s-10.667 -7 -18 -7h-140v-142c0 -7.33301 -2.33301 -13.333 -7 -18s-10.667 -7 -18 -7h-37l-1 -1v-40h346c7.33301 0 13.333 -2.33301 18 -7s7 -10.667 7 -18v-26c0 -4.66699 -0.166992 -7.5 -0.5 -8.5l-0.5 -1.5
c0 0.666992 0 0 0 -2v-14c0 -7.33301 0.333008 -19 1 -35c0 -7.33301 -2.33301 -13.333 -7 -18s-10.667 -7 -18 -7h-457c-7.33301 0 -13.333 2.33301 -18 7s-7 10.667 -7 18v177c0 7.33301 2.33301 13.333 7 18s10.667 7 18 7h37l1 1v117h-91
c-7.33301 0 -13.333 2.33301 -18 7s-7 10.667 -7 18v87c0 7.33301 2.33301 13.333 7 18s10.667 7 18 7h91v130c0 7.33301 2.33301 13.333 7 18s10.667 7 18 7h43l1 121c0 7.33301 2.33301 13.333 7 18s10.667 7 18 7h88c6.66699 0 12.5 -2.33301 17.5 -7
s7.5 -10.667 7.5 -18l-1 -276h70c7.33301 0 13.333 -2.33301 18 -7s7 -10.667 7 -18v-26c0 -4.66699 -0.166992 -7.5 -0.5 -8.5l-0.5 -1.5c0 0.666992 0 0 0 -2v-14c0 -7.33301 0.333008 -19 1 -35z" />
    <glyph glyph-name="yen" unicode="&#xa5;" horiz-adv-x="784" 
d="M461 87v-60c0 -7.33301 -2.33301 -13.5 -7 -18.5s-10.667 -7.5 -18 -7.5h-86c-7.33301 0 -13.333 2.5 -18 7.5s-7 11.167 -7 18.5v60h-163c-7.33301 0 -13.333 2.5 -18 7.5s-7 10.833 -7 17.5v86c0 6.66699 2.33301 12.5 7 17.5s10.667 7.5 18 7.5h163v70h-173
c-7.33301 0 -13.333 2.33301 -18 7s-7 10.667 -7 18v61h-61c-7.33301 0 -13.333 2.33301 -18 7s-7 10.667 -7 18v354c0 7.33301 2.33301 13.333 7 18s10.667 7 18 7h86c7.33301 0 13.333 -2.33301 18 -7s7 -10.667 7 -18v-329h173c7.33301 0 13.333 -2.33301 18 -7
s7 -10.667 7 -18v-61h36v61c0 7.33301 2.33301 13.333 7 18s10.667 7 18 7h173v329c0 7.33301 2.5 13.333 7.5 18s10.833 7 17.5 7h86c7.33301 0 13.333 -2.33301 18 -7s7 -10.667 7 -18v-354c0 -7.33301 -2.33301 -13.333 -7 -18s-10.667 -7 -18 -7h-60v-61
c0 -7.33301 -2.5 -13.333 -7.5 -18s-11.167 -7 -18.5 -7h-173v-70h160c7.33301 0 13.333 -2.5 18 -7.5s7 -10.833 7 -17.5v-86c0 -6.66699 -2.33301 -12.5 -7 -17.5s-10.667 -7.5 -18 -7.5h-160z" />
    <glyph glyph-name="brokenbar" unicode="&#xa6;" horiz-adv-x="240" 
d="M178 -76c0 -7.33301 -2.33301 -13.333 -7 -18s-10.667 -7 -18 -7h-88c-7.33301 0 -13.333 2.33301 -18 7s-7 10.667 -7 18l1 370c0 7.33301 2.33301 13.333 7 18s10.667 7 18 7h88c7.33301 0 13.333 -2.33301 18 -7s7 -10.667 7 -18l-1 -370v0zM178 491
c0 -7.33301 -2.33301 -13.333 -7 -18s-10.667 -7 -18 -7h-88c-7.33301 0 -13.333 2.33301 -18 7s-7 10.667 -7 18l1 370c0 7.33301 2.33301 13.333 7 18s10.667 7 18 7h88c7.33301 0 13.333 -2.33301 18 -7s7 -10.667 7 -18l-1 -370v0z" />
    <glyph glyph-name="section" unicode="&#xa7;" horiz-adv-x="666" 
d="M179 365h319v92l-319 -1v-91zM636 340c0 -7.33301 -2.50098 -13.333 -7.50098 -18s-10.833 -7 -17.5 -7h-63l2 -204c0 -7.33301 -2.5 -13.333 -7.5 -18s-10.833 -7 -17.5 -7h-63v-61c0 -7.33301 -2.33301 -13.333 -7 -18s-10.667 -7 -18 -7h-287
c-7.33301 -0 -13.333 2.33301 -18 7s-7 10.667 -7 18v86c0 7.33301 2.33301 13.333 7 18s10.667 7 18 7h262v91h-258c-9.33301 0 -16.666 3.66699 -21.999 11c-3.33301 4.66699 -5 10 -5 16v58h-61c-7.33301 0 -13.333 2.5 -18 7.5s-7 10.833 -7 17.5v144
c0 6 2.33301 12 7 18c6 4.66699 12 7 18 7h62v204c0 6 2.33301 12 7 18c6 4.66699 12 7 18 7h61v60c0 6.66699 2.66699 12.667 8 18c4.66699 4.66699 10.334 7 17.001 7h286c6.66699 0 12.5 -2.33301 17.5 -7s7.5 -10.667 7.5 -18v-85c0 -7.33301 -2.5 -13.333 -7.5 -18
s-10.833 -7 -17.5 -7h-260v-93h258c3.33301 0 6.66602 -1 9.99902 -3c11.333 -3.33301 17 -11 17 -23v-60h61c6.66699 0 12.5 -2.5 17.5 -7.5s7.5 -10.833 7.5 -17.5v-141v0z" />
    <glyph glyph-name="dieresis" unicode="&#xa8;" horiz-adv-x="411" 
d="M47 650c-7.33301 0 -13.333 2.33301 -18 7s-7 10.667 -7 18v86c0 7.33301 2.33301 13.333 7 18s10.667 7 18 7h87c7.33301 0 13.333 -2.33301 18 -7s7 -10.667 7 -18v-86c0 -7.33301 -2.33301 -13.333 -7 -18s-10.667 -7 -18 -7h-87v0zM274 650
c-7.33301 0 -13.333 2.33301 -18 7s-7 10.667 -7 18v86c0 7.33301 2.33301 13.333 7 18s10.667 7 18 7h86c7.33301 0 13.333 -2.33301 18 -7s7 -10.667 7 -18v-86c0 -7.33301 -2.33301 -13.333 -7 -18s-10.667 -7 -18 -7h-86v0z" />
    <glyph glyph-name="copyright" unicode="&#xa9;" horiz-adv-x="833" 
d="M593 193c0 -7.33301 -2.5 -13.333 -7.5 -18s-10.833 -7 -17.5 -7h-222c-7.33301 0 -13.5 2.33301 -18.5 7s-7.5 10.667 -7.5 18v61h-62c-7.33301 0 -13.333 2.33301 -18 7s-7 10.667 -7 18v218c0 7.33301 2.33301 13.333 7 18s10.667 7 18 7h62v60
c0 7.33301 2.5 13.333 7.5 18s11.167 7 18.5 7h222c6.66699 0 12.5 -2.33301 17.5 -7s7.5 -10.667 7.5 -18v-85c0 -7.33301 -2.5 -13.333 -7.5 -18s-10.833 -7 -17.5 -7h-197v-168h197c6.66699 0 12.5 -2.33301 17.5 -7s7.5 -10.667 7.5 -18v-86v0zM644 645h-455v-508h455
v508zM782 111c0 -6.66699 -2.33301 -12.5 -7 -17.5s-10.667 -7.5 -18 -7.5h-63v-60c0 -7.33301 -2.33301 -13.333 -7 -18s-10.667 -7 -18 -7h-505c-7.33301 0 -13.333 2.33301 -18 7s-7 10.667 -7 18v60h-63c-7.33301 0 -13.333 2.5 -18 7.5s-7 10.833 -7 17.5v560
c0 6.66699 2.33301 12.5 7 17.5s10.667 7.5 18 7.5h63v62c0 7.33301 2.33301 13.333 7 18s10.667 7 18 7h505c7.33301 0 13.333 -2.33301 18 -7s7 -10.667 7 -18v-62h63c7.33301 0 13.333 -2.5 18 -7.5s7 -10.833 7 -17.5v-560v0z" />
    <glyph glyph-name="ordfeminine" unicode="&#xaa;" horiz-adv-x="865" 
d="M326 227c0 -8 -4.33301 -12 -13 -12h-43c-8 0 -12 4 -12 12v87c0 8.66699 4 13 12 13h43c8.66699 0 13 -4.33301 13 -13v-87v0zM767 161h-132v-93h132v93zM767 322h-132v-93h132v93zM565 323h-132v-95h132v95zM609 485c-8.66699 0 -13 3.99902 -13 11.999v205
c0 8 4.33301 12 13 12h212c8.66699 0 13 -4 13 -12v-43c0 -8.66699 -4.33301 -13 -13 -13h-157v-93h100c8.66699 0 13 -4.33301 13 -13v-43c0 -3.33301 -1.33301 -6.16602 -4 -8.49902s-5.66699 -3.5 -9 -3.5h-155zM156 65.999h209v270c0 8 4 12 12 12h31v31c0 8 4 12 12 12
h79l1 112h-174c-8 0 -12 4 -12 12v131h-78v-27v-73v-112v-140c0 -8.66699 -4.33301 -13 -13 -13h-67v-215zM835 54.999c0 -8 -4 -12 -12 -12h-31v-31c0 -8.66699 -4 -13 -12 -13h-202c-8.66699 0 -13 4.33301 -13 13v148h-132v-149c0 -8 -4.33301 -12 -13 -12l-276 -1
c-8.66699 0 -13 4 -13 12v31h-30c-8.66699 0 -13 4.33301 -13 13l1 283c0 8.66699 4 13 12 13h67v296h-135c-8.66699 0 -13 4.33301 -13 13v43c0 8 4.33301 12 13 12h148c8 0 12 -4 12 -12v-31h18v31c0 8 4.33301 12 13 12l147 1c4 0 7.66699 -2.33301 11 -7
c1.33301 -2.66699 2 -5 2 -7l-1 -130h130c8 0 12 -4 12 -12v-30h31c8.66699 0 13 -4.33301 13 -13v-125h217c8.66699 0 13 -4 13 -12c0 -4 -0.333008 -8 -1 -12s-0.666992 -10.667 0 -20h25c8 0 12 -4 12 -12v-119c0 -8 -4 -12 -12 -12h-31v-18h31c8 0 12 -4.33301 12 -13
v-118v0z" />
    <glyph glyph-name="guillemotleft" unicode="&#xab;" horiz-adv-x="535" 
d="M485 122l-90 -0.000976562c-6.66699 0 -12.167 2.16699 -16.5 6.5s-6.5 9.83301 -6.5 16.5v76h-63c-6.66699 0 -12.167 2.16699 -16.5 6.5s-6.5 9.5 -6.5 15.5v87c0 6.66699 2.16699 12.167 6.5 16.5s9.83301 6.5 16.5 6.5h63v76c0 6 2.16699 11.333 6.5 16
s9.83301 7 16.5 7h88c5.33301 0 10.333 -2.16699 15 -6.5s7 -9.83301 7 -16.5v-99c0 -6 -2.33301 -11.167 -7 -15.5s-10 -6.5 -16 -6.5h-65v-42h65c6 0 11.333 -2.16699 16 -6.5s7 -9.83301 7 -16.5v-76c1.33301 -19.333 0 -31.666 -4 -36.999s-9.33301 -8 -16 -8z
M233 122.999l-90 -0.000976562c-6.66699 0 -12.167 2.16699 -16.5 6.5s-6.5 9.83301 -6.5 16.5v76h-63c-6.66699 0 -12.167 2.16699 -16.5 6.5s-6.5 9.5 -6.5 15.5v87c0 6.66699 2.16699 12.167 6.5 16.5s9.83301 6.5 16.5 6.5h63v76c0 6 2.16699 11.333 6.5 16
s9.83301 7 16.5 7h88c5.33301 0 10.333 -2.16699 15 -6.5s7 -9.83301 7 -16.5v-99c0 -6 -2.33301 -11.167 -7 -15.5s-10 -6.5 -16 -6.5h-65v-42h65c6 0 11.333 -2.16699 16 -6.5s7 -9.83301 7 -16.5v-76c1.33301 -19.333 0 -31.666 -4 -36.999s-9.33301 -8 -16 -8z" />
    <glyph glyph-name="logicalnot" unicode="&#xac;" horiz-adv-x="800" 
d="M749 130c0 -7.33301 -2.5 -13.5 -7.5 -18.5s-10.833 -7.5 -17.5 -7.5h-88c-7.33301 0 -13.333 2.5 -18 7.5s-7 11.167 -7 18.5v184h-543c-7.33301 0 -13.333 2.33301 -18 7s-7 10.667 -7 18v87c0 7.33301 2.33301 13.333 7 18s10.667 7 18 7h569
c7.33301 0 13.333 -2.33301 18 -7s7 -10.667 7 -18v-28c0 -4.66699 -0.166992 -7.5 -0.5 -8.5l-0.5 -1.5v-6h63c6.66699 0 12.5 -2.33301 17.5 -7s7.5 -10.667 7.5 -18v-227v0z" />
    <glyph glyph-name="registered" unicode="&#xae;" horiz-adv-x="833" 
d="M559 497c0 -7.33301 -2.16797 -13.333 -6.50098 -18s-10.166 -7 -17.499 -7h-133v-274c0 -7.33301 -2.5 -13.333 -7.5 -18s-10.833 -7 -17.5 -7h-88c-7.33301 0 -13.333 2.33301 -18 7s-7 10.667 -7 18v299c0 7.33301 2.33301 13.333 7 18s10.667 7 18 7h62v60
c0 7.33301 2.5 13.333 7.5 18s11.167 7 18.5 7h157c7.33301 0 13.333 -2.33301 18 -7s7 -10.667 7 -18v-85zM643.999 645h-455v-508h455v508zM781.999 111c0 -6.66699 -2.33301 -12.5 -7 -17.5s-10.667 -7.5 -18 -7.5h-63v-60c0 -7.33301 -2.33301 -13.333 -7 -18
s-10.667 -7 -18 -7h-505c-7.33301 0 -13.333 2.33301 -18 7s-7 10.667 -7 18v60h-63c-7.33301 0 -13.333 2.5 -18 7.5s-7 10.833 -7 17.5v560c0 6.66699 2.33301 12.5 7 17.5s10.667 7.5 18 7.5h63v62c0 7.33301 2.33301 13.333 7 18s10.667 7 18 7h505
c7.33301 0 13.333 -2.33301 18 -7s7 -10.667 7 -18v-62h63c7.33301 0 13.333 -2.5 18 -7.5s7 -10.833 7 -17.5v-560v0z" />
    <glyph glyph-name="macron" unicode="&#xaf;" horiz-adv-x="345" 
d="M330 675c0 -7.33301 -2.33301 -13.333 -7 -18s-10.667 -7 -18 -7h-260c-7.33301 0 -13.333 2.33301 -18 7s-7 10.667 -7 18v87c0 7.33301 2.33301 13.333 7 18s10.667 7 18 7h260c7.33301 0 13.333 -2.33301 18 -7s7 -10.667 7 -18v-26
c0 -4.66699 -0.166992 -7.5 -0.5 -8.5l-0.5 -1.5c0 0.666992 0 0 0 -2v-14c0 -7.33301 0.333008 -19 1 -35z" />
    <glyph glyph-name="degree" unicode="&#xb0;" horiz-adv-x="257" 
d="M223 430c0 -9.33301 -3.16699 -17.5 -9.5 -24.5s-15.166 -10.5 -26.499 -10.5h-119c-9.33301 0 -17.5 3.5 -24.5 10.5s-10.5 15.167 -10.5 24.5v123c0 9.33301 3.5 17.333 10.5 24s15.167 10 24.5 10h119c11.333 0 20.166 -3.33301 26.499 -10s9.5 -14.667 9.5 -24v-123
v0zM191 527c0 6.66699 -2.16699 12 -6.5 16s-9.5 6 -15.5 6h-78c-6.66699 0 -12.167 -2 -16.5 -6s-6.5 -9.33301 -6.5 -16v-78c0 -6.66699 2.16699 -12 6.5 -16s9.83301 -6 16.5 -6h78c6 0 11.167 2 15.5 6s6.5 9.33301 6.5 16v78z" />
    <glyph glyph-name="plusminus" unicode="&#xb1;" horiz-adv-x="463" 
d="M424 47c0 -7.33301 -2.33301 -13.333 -7 -18s-10.667 -7 -18 -7h-326c-7.33301 0 -13.333 2.33301 -18 7s-7 10.667 -7 18v87c0 7.33301 2.33301 13.333 7 18s10.667 7 18 7h326c7.33301 0 13.333 -2.33301 18 -7s7 -10.667 7 -18v-87v0zM422 351
c0 -7.33301 -2.33301 -13.333 -7 -18s-10.667 -7 -18 -7h-93v-94c0 -7.33301 -2.5 -13.333 -7.5 -18s-11.167 -7 -18.5 -7h-87c-6.66699 0 -12.5 2.33301 -17.5 7s-7.5 10.667 -7.5 18v94h-95c-7.33301 0 -13.333 2.33301 -18 7s-7 10.667 -7 18v87
c0 7.33301 2.33301 13.333 7 18s10.667 7 18 7h95v101c0 7.33301 2.5 13.333 7.5 18s10.833 7 17.5 7h87c7.33301 0 13.5 -2.33301 18.5 -7s7.5 -10.667 7.5 -18v-101h93c7.33301 0 13.333 -2.33301 18 -7s7 -10.667 7 -18v-87v0z" />
    <glyph glyph-name="acute" unicode="&#xb4;" horiz-adv-x="321" 
d="M41 584v87c0 7.33301 2.33301 13.333 7 18s10.667 7 18 7h61v62c0 7.33301 2.33301 13.333 7 18s10.667 7 18 7h86c7.33301 0 13.333 -2.33301 18 -7s7 -10.667 7 -18v-87c0 -7.33301 -2.33301 -13.333 -7 -18s-10.667 -7 -18 -7h-61v-62
c0 -6.66699 -2.33301 -12.5 -7 -17.5s-10.667 -7.5 -18 -7.5h-86c-7.33301 0 -13.333 2.5 -18 7.5s-7 10.833 -7 17.5z" />
    <glyph glyph-name="mu" unicode="&#xb5;" 
d="M178 -193c0 -7.33301 -2.5 -13.5 -7.5 -18.5s-10.833 -7.5 -17.5 -7.5h-88c-7.33301 0 -13.333 2.5 -18 7.5s-7 11.167 -7 18.5l1 759c0 7.33301 2.33301 13.333 7 18s10.667 7 18 7h88c6.66699 0 12.5 -2.33301 17.5 -7s7.5 -10.667 7.5 -18v-430h233v430
c0 7.33301 2.5 13.333 7.5 18s10.833 7 17.5 7h88c7.33301 0 13.333 -2.33301 18 -7s7 -10.667 7 -18v-455c0 -7.33301 -2.33301 -13.333 -7 -18s-10.667 -7 -18 -7h-63v-61c0 -7.33301 -2.33301 -13.333 -7 -18s-10.667 -7 -18 -7h-259v-193v0z" />
    <glyph glyph-name="paragraph" unicode="&#xb6;" 
d="M313 26c0 -7.33301 -2.49902 -13.498 -7.49902 -18.498s-10.833 -7.5 -17.5 -7.5h-9c-7.33301 0 -13.333 2.5 -18 7.5s-7 11.167 -7 18.5v287h-101c-7.33301 0 -13.333 2.33301 -18 7s-7 10.667 -7 18v61h-63c-7.33301 0 -13 2.33301 -17 7
c-4.66699 4.66699 -7.33398 9 -8.00098 13v19v42c0 19.333 0.166992 44.666 0.5 75.999s0.5 70.666 0.5 117.999c0 7.33301 2.33301 13.333 7 18s10.667 7 18 7h62v60c0 7.33301 2.33301 13.333 7 18s10.667 7 18 7h283c7.33301 0 13.5 -2.33301 18.5 -7
s7.5 -10.667 7.5 -18v-60h62c7.33301 0 13.333 -2.33301 18 -7s7 -10.667 7 -18v-649c0 -7.33301 -2.33301 -13.333 -7 -18s-10.667 -7 -18 -7h-88c-6.66699 -0 -12.5 2.33301 -17.5 7s-7.5 10.667 -7.5 18v288h-98v-287v0z" />
    <glyph glyph-name="periodcentered" unicode="&#xb7;" horiz-adv-x="203" 
d="M171 248c0 -7.33301 -2.33301 -13.333 -7 -18s-10.667 -7 -18 -7h-86c-7.33301 0 -13.333 2.33301 -18 7s-7 10.667 -7 18v87c0 7.33301 2.33301 13.333 7 18s10.667 7 18 7h86c7.33301 0 13.333 -2.33301 18 -7s7 -10.667 7 -18v-87v0z" />
    <glyph glyph-name="periodcentered" unicode="&#x2219;" horiz-adv-x="203" 
d="M171 248c0 -7.33301 -2.33301 -13.333 -7 -18s-10.667 -7 -18 -7h-86c-7.33301 0 -13.333 2.33301 -18 7s-7 10.667 -7 18v87c0 7.33301 2.33301 13.333 7 18s10.667 7 18 7h86c7.33301 0 13.333 -2.33301 18 -7s7 -10.667 7 -18v-87v0z" />
    <glyph glyph-name="cedilla" unicode="&#xb8;" horiz-adv-x="288" 
d="M55 454l90 0.000976562c6.66699 0 12.167 -2.16699 16.5 -6.5s6.5 -9.83301 6.5 -16.5v-76h63c6.66699 0 12.167 -2.16699 16.5 -6.5s6.5 -9.5 6.5 -15.5v-139c0 -6.66699 -2.16699 -12.167 -6.5 -16.5s-9.83301 -6.5 -16.5 -6.5h-63v-24c0 -6 -2.16699 -11.333 -6.5 -16
s-9.83301 -7 -16.5 -7h-88c-5.33301 0 -10.333 2.16699 -15 6.5s-7 9.83301 -7 16.5v78c0 6 2.33301 11.167 7 15.5s10 6.5 16 6.5h65v63h-65c-6 0 -11.333 2.16699 -16 6.5s-7 9.83301 -7 16.5v76c-1.33301 19.333 0 31.666 4 36.999s9.33301 8 16 8z" />
    <glyph glyph-name="ordmasculine" unicode="&#xba;" horiz-adv-x="865" 
d="M326 227c0 -8 -4.33301 -12 -13 -12h-43c-8 0 -12 4 -12 12v87c0 8.66699 4 13 12 13h43c8.66699 0 13 -4.33301 13 -13v-87v0zM767 161h-132v-93h132v93zM767 322h-132v-93h132v93zM565 323h-132v-95h132v95zM609 485c-8.66699 0 -13 3.99902 -13 11.999v205
c0 8 4.33301 12 13 12h212c8.66699 0 13 -4 13 -12v-43c0 -8.66699 -4.33301 -13 -13 -13h-157v-93h100c8.66699 0 13 -4.33301 13 -13v-43c0 -3.33301 -1.33301 -6.16602 -4 -8.49902s-5.66699 -3.5 -9 -3.5h-155zM156 65.999h209v270c0 8 4 12 12 12h31v31c0 8 4 12 12 12
h79l1 112h-174c-8 0 -12 4 -12 12v131h-78v-27v-73v-112v-140c0 -8.66699 -4.33301 -13 -13 -13h-67v-215zM835 54.999c0 -8 -4 -12 -12 -12h-31v-31c0 -8.66699 -4 -13 -12 -13h-202c-8.66699 0 -13 4.33301 -13 13v148h-132v-149c0 -8 -4.33301 -12 -13 -12l-276 -1
c-8.66699 0 -13 4 -13 12v31h-30c-8.66699 0 -13 4.33301 -13 13l1 283c0 8.66699 4 13 12 13h67v296h-135c-8.66699 0 -13 4.33301 -13 13v43c0 8 4.33301 12 13 12h148c8 0 12 -4 12 -12v-31h18v31c0 8 4.33301 12 13 12l147 1c4 0 7.66699 -2.33301 11 -7
c1.33301 -2.66699 2 -5 2 -7l-1 -130h130c8 0 12 -4 12 -12v-30h31c8.66699 0 13 -4.33301 13 -13v-125h217c8.66699 0 13 -4 13 -12c0 -4 -0.333008 -8 -1 -12s-0.666992 -10.667 0 -20h25c8 0 12 -4 12 -12v-119c0 -8 -4 -12 -12 -12h-31v-18h31c8 0 12 -4.33301 12 -13
v-118v0z" />
    <glyph glyph-name="guillemotright" unicode="&#xbb;" horiz-adv-x="535" 
d="M55 454l90 0.000976562c6.66699 0 12.167 -2.16699 16.5 -6.5s6.5 -9.83301 6.5 -16.5v-76h63c6.66699 0 12.167 -2.16699 16.5 -6.5s6.5 -9.5 6.5 -15.5v-87c0 -6.66699 -2.16699 -12.167 -6.5 -16.5s-9.83301 -6.5 -16.5 -6.5h-63v-76c0 -6 -2.16699 -11.333 -6.5 -16
s-9.83301 -7 -16.5 -7h-88c-5.33301 0 -10.333 2.16699 -15 6.5s-7 9.83301 -7 16.5v99c0 6 2.33301 11.167 7 15.5s10 6.5 16 6.5h65v42h-65c-6 0 -11.333 2.16699 -16 6.5s-7 9.83301 -7 16.5v76c-1.33301 19.333 0 31.666 4 36.999s9.33301 8 16 8zM307 453.001
l90 0.000976562c6.66699 0 12.167 -2.16699 16.5 -6.5s6.5 -9.83301 6.5 -16.5v-76h63c6.66699 0 12.167 -2.16699 16.5 -6.5s6.5 -9.5 6.5 -15.5v-87c0 -6.66699 -2.16699 -12.167 -6.5 -16.5s-9.83301 -6.5 -16.5 -6.5h-63v-76c0 -6 -2.16699 -11.333 -6.5 -16
s-9.83301 -7 -16.5 -7h-88c-5.33301 0 -10.333 2.16699 -15 6.5s-7 9.83301 -7 16.5v99c0 6 2.33301 11.167 7 15.5s10 6.5 16 6.5h65v42h-65c-6 0 -11.333 2.16699 -16 6.5s-7 9.83301 -7 16.5v76c-1.33301 19.333 0 31.666 4 36.999s9.33301 8 16 8z" />
    <glyph glyph-name="questiondown" unicode="&#xbf;" horiz-adv-x="608" 
d="M214 478c0 6.66699 2.66699 12.667 8 18c4.66699 4.66699 10.667 7 18 7h87c7.33301 0 13.333 -2.33301 18 -7s7 -10.667 7 -18v-85c0 -7.33301 -2.33301 -13.333 -7 -18s-10.667 -7 -18 -7h-87c-7.33301 0 -13.5 2.33301 -18.5 7s-7.5 10.667 -7.5 18v85v0zM40 26
c0 7.33301 2.33398 13.333 7.00098 18s10.667 7 18 7h62v62c0 6 2.33301 12 7 18c4.66699 4.66699 10.667 7 18 7h62v149c0 7.33301 2.5 13.333 7.5 18s11.167 7 18.5 7h87c7.33301 0 13.333 -2.33301 18 -7s7 -10.667 7 -18v-174c0 -6 -2.33301 -12 -7 -18
c-6 -4.66699 -12 -7 -18 -7h-62v-62c0 -6.66699 -2.66699 -12.667 -8 -18c-4 -4.66699 -9.66699 -7 -17 -7h-63v-145h234v170c0 7.33301 2.33301 13.333 7 18s10.667 7 18 7h88c7.33301 0 13.333 -2.33301 18 -7s7 -10.667 7 -18v-195c0 -6.66699 -2.66699 -12.667 -8 -18
c-4.66699 -4.66699 -10.334 -7 -17.001 -7h-63v-60c0 -7.33301 -2.33301 -13.333 -7 -18c-6 -4.66699 -12 -7 -18 -7h-284c-7.33301 0 -13.333 2.33301 -18 7s-7 10.667 -7 18v60h-62c-7.33301 0 -13.333 2.33301 -18 7s-7 10.667 -7 18v195v0z" />
    <glyph glyph-name="Agrave" unicode="&#xc0;" horiz-adv-x="809" 
d="M613 647h-436v-217h436v217zM749 26c0 -7.33301 -2.33301 -13.333 -7 -18s-10.667 -7 -18 -7h-86c-7.33301 0 -13.333 2.33301 -18 7s-7 10.667 -7 18v268h-436v-268c0 -7.33301 -2.33301 -13.333 -7 -18s-10.667 -7 -18 -7h-86c-7.33301 0 -13.333 2.33301 -18 7
s-7 10.667 -7 18v646c0 7.33301 2.33301 13.333 7 18s10.667 7 18 7h61v61c0 7.33301 2.33301 13.333 7 18s10.667 7 18 7h486c7.33301 0 13.333 -2.33301 18 -7s7 -10.667 7 -18v-61h61c7.33301 0 13.333 -2.33301 18 -7s7 -10.667 7 -18v-646v0zM512 853
c0 -6.66699 -2.33301 -12.5 -7 -17.5s-10.667 -7.5 -18 -7.5h-86c-7.33301 0 -13.333 2.5 -18 7.5s-7 10.833 -7 17.5v62h-61c-7.33301 0 -13.333 2.33301 -18 7s-7 10.667 -7 18v87c0 7.33301 2.33301 13.333 7 18s10.667 7 18 7h86c7.33301 0 13.333 -2.33301 18 -7
s7 -10.667 7 -18v-62h61c7.33301 0 13.333 -2.33301 18 -7s7 -10.667 7 -18v-87v0z" />
    <glyph glyph-name="Aacute" unicode="&#xc1;" horiz-adv-x="809" 
d="M613 647h-436v-217h436v217zM749 26c0 -7.33301 -2.33301 -13.333 -7 -18s-10.667 -7 -18 -7h-86c-7.33301 0 -13.333 2.33301 -18 7s-7 10.667 -7 18v268h-436v-268c0 -7.33301 -2.33301 -13.333 -7 -18s-10.667 -7 -18 -7h-86c-7.33301 0 -13.333 2.33301 -18 7
s-7 10.667 -7 18v646c0 7.33301 2.33301 13.333 7 18s10.667 7 18 7h61v61c0 7.33301 2.33301 13.333 7 18s10.667 7 18 7h486c7.33301 0 13.333 -2.33301 18 -7s7 -10.667 7 -18v-61h61c7.33301 0 13.333 -2.33301 18 -7s7 -10.667 7 -18v-646v0zM280 853v87
c0 7.33301 2.33301 13.333 7 18s10.667 7 18 7h61v62c0 7.33301 2.33301 13.333 7 18s10.667 7 18 7h86c7.33301 0 13.333 -2.33301 18 -7s7 -10.667 7 -18v-87c0 -7.33301 -2.33301 -13.333 -7 -18s-10.667 -7 -18 -7h-61v-62c0 -6.66699 -2.33301 -12.5 -7 -17.5
s-10.667 -7.5 -18 -7.5h-86c-7.33301 0 -13.333 2.5 -18 7.5s-7 10.833 -7 17.5z" />
    <glyph glyph-name="Acircumflex" unicode="&#xc2;" horiz-adv-x="809" 
d="M613 647h-436v-217h436v217zM749 26c0 -7.33301 -2.33301 -13.333 -7 -18s-10.667 -7 -18 -7h-86c-7.33301 0 -13.333 2.33301 -18 7s-7 10.667 -7 18v268h-436v-268c0 -7.33301 -2.33301 -13.333 -7 -18s-10.667 -7 -18 -7h-86c-7.33301 0 -13.333 2.33301 -18 7
s-7 10.667 -7 18v646c0 7.33301 2.33301 13.333 7 18s10.667 7 18 7h61v61c0 7.33301 2.33301 13.333 7 18s10.667 7 18 7h486c7.33301 0 13.333 -2.33301 18 -7s7 -10.667 7 -18v-61h61c7.33301 0 13.333 -2.33301 18 -7s7 -10.667 7 -18v-646v0zM563 852
c0 -6.66699 -2.66797 -12 -8.00098 -16s-17.666 -5.33301 -36.999 -4h-76c-6.66699 0 -12.167 2.33301 -16.5 7s-6.5 10 -6.5 16v65h-42v-65c0 -6 -2.16699 -11.333 -6.5 -16s-9.5 -7 -15.5 -7h-99c-6.66699 0 -12.167 2.33301 -16.5 7s-6.5 9.66699 -6.5 15v88
c0 6.66699 2.33301 12.167 7 16.5s10 6.5 16 6.5h76v63c0 6.66699 2.16699 12.167 6.5 16.5s9.83301 6.5 16.5 6.5h87c6 0 11.167 -2.16699 15.5 -6.5s6.5 -9.83301 6.5 -16.5v-63h76c6.66699 0 12.167 -2.16699 16.5 -6.5s6.5 -9.83301 6.5 -16.5v-90v0z" />
    <glyph glyph-name="Atilde" unicode="&#xc3;" horiz-adv-x="809" 
d="M613 647h-436v-217h436v217zM749 26c0 -7.33301 -2.33301 -13.333 -7 -18s-10.667 -7 -18 -7h-86c-7.33301 0 -13.333 2.33301 -18 7s-7 10.667 -7 18v268h-436v-268c0 -7.33301 -2.33301 -13.333 -7 -18s-10.667 -7 -18 -7h-86c-7.33301 0 -13.333 2.33301 -18 7
s-7 10.667 -7 18v646c0 7.33301 2.33301 13.333 7 18s10.667 7 18 7h61v61c0 7.33301 2.33301 13.333 7 18s10.667 7 18 7h486c7.33301 0 13.333 -2.33301 18 -7s7 -10.667 7 -18v-61h61c7.33301 0 13.333 -2.33301 18 -7s7 -10.667 7 -18v-646v0zM579 906
c0 -4 -1.5 -7.66699 -4.5 -11s-6.5 -5 -10.5 -5h-48v-47c0 -4.66699 -1.5 -8.66699 -4.5 -12s-6.83301 -5 -11.5 -5h-73c-4.66699 0 -8.5 1.66699 -11.5 5s-4.5 7.33301 -4.5 12v47h-47c-4.66699 0 -8.66699 1.66699 -12 5s-5 7 -5 11v48h-39v-48
c0 -4 -1.5 -7.66699 -4.5 -11s-7.16699 -5 -12.5 -5h-63c-5.33301 0 -9.5 1.66699 -12.5 5s-4.5 7 -4.5 11v65c0 4.66699 1.5 8.66699 4.5 12s7.16699 5 12.5 5h46v45c0 5.33301 1.83301 9.5 5.5 12.5s7.5 4.5 11.5 4.5h73c4 0 7.66699 -1.5 11 -4.5s5 -7.16699 5 -12.5v-45
h47c5.33301 0 9.33301 -1.66699 12 -5s4 -7.33301 4 -12v-48h40v48c0 4.66699 1.66699 8.66699 5 12s7.33301 5 12 5h64c4 0 7.5 -1.66699 10.5 -5s4.5 -7.33301 4.5 -12v-65z" />
    <glyph glyph-name="Adieresis" unicode="&#xc4;" horiz-adv-x="809" 
d="M613 647h-436v-217h436v217zM749 26c0 -7.33301 -2.33301 -13.333 -7 -18s-10.667 -7 -18 -7h-86c-7.33301 0 -13.333 2.33301 -18 7s-7 10.667 -7 18v268h-436v-268c0 -7.33301 -2.33301 -13.333 -7 -18s-10.667 -7 -18 -7h-86c-7.33301 0 -13.333 2.33301 -18 7
s-7 10.667 -7 18v646c0 7.33301 2.33301 13.333 7 18s10.667 7 18 7h61v61c0 7.33301 2.33301 13.333 7 18s10.667 7 18 7h486c7.33301 0 13.333 -2.33301 18 -7s7 -10.667 7 -18v-61h61c7.33301 0 13.333 -2.33301 18 -7s7 -10.667 7 -18v-646v0zM248 863
c-7.33301 0 -13.333 2.33301 -18 7s-7 10.667 -7 18v86c0 7.33301 2.33301 13.333 7 18s10.667 7 18 7h87c7.33301 0 13.333 -2.33301 18 -7s7 -10.667 7 -18v-86c0 -7.33301 -2.33301 -13.333 -7 -18s-10.667 -7 -18 -7h-87v0zM475 863c-7.33301 0 -13.333 2.33301 -18 7
s-7 10.667 -7 18v86c0 7.33301 2.33301 13.333 7 18s10.667 7 18 7h86c7.33301 0 13.333 -2.33301 18 -7s7 -10.667 7 -18v-86c0 -7.33301 -2.33301 -13.333 -7 -18s-10.667 -7 -18 -7h-86v0z" />
    <glyph glyph-name="Aring" unicode="&#xc5;" horiz-adv-x="809" 
d="M613 647h-436v-217h436v217zM749 26c0 -7.33301 -2.33301 -13.333 -7 -18s-10.667 -7 -18 -7h-86c-7.33301 0 -13.333 2.33301 -18 7s-7 10.667 -7 18v268h-436v-268c0 -7.33301 -2.33301 -13.333 -7 -18s-10.667 -7 -18 -7h-86c-7.33301 0 -13.333 2.33301 -18 7
s-7 10.667 -7 18v646c0 7.33301 2.33301 13.333 7 18s10.667 7 18 7h61v61c0 7.33301 2.33301 13.333 7 18s10.667 7 18 7h486c7.33301 0 13.333 -2.33301 18 -7s7 -10.667 7 -18v-61h61c7.33301 0 13.333 -2.33301 18 -7s7 -10.667 7 -18v-646v0zM492 819
c0 -9.33301 -3.16699 -17.5 -9.5 -24.5s-15.166 -10.5 -26.499 -10.5h-119c-9.33301 0 -17.5 3.5 -24.5 10.5s-10.5 15.167 -10.5 24.5v123c0 9.33301 3.5 17.333 10.5 24s15.167 10 24.5 10h119c11.333 0 20.166 -3.33301 26.499 -10s9.5 -14.667 9.5 -24v-123v0zM460 916
c0 6.66699 -2.16699 12 -6.5 16s-9.5 6 -15.5 6h-78c-6.66699 0 -12.167 -2 -16.5 -6s-6.5 -9.33301 -6.5 -16v-78c0 -6.66699 2.16699 -12 6.5 -16s9.83301 -6 16.5 -6h78c6 0 11.167 2 15.5 6s6.5 9.33301 6.5 16v78z" />
    <glyph glyph-name="AE" unicode="&#xc6;" horiz-adv-x="1323" 
d="M613 647h-436v-217h436v217zM1283 26c0 -7.33301 -2.50098 -13.335 -7.50098 -18.002s-10.833 -7 -17.5 -7l-618 -1c-2.66699 0 -6.66699 0.666992 -12 2c-10 4.66699 -15 12.667 -15 24v268h-436v-268c0 -7.33301 -2.33301 -13.333 -7 -18s-10.667 -7 -18 -7h-86
c-7.33301 0 -13.333 2.33301 -18 7s-7 10.667 -7 18v646c0 7.33301 2.33301 13.333 7 18s10.667 7 18 7h61v61c0 7.33301 2.33301 13.333 7 18s10.667 7 18 7h1106c6.66699 0 12.5 -2.33301 17.5 -7s7.5 -10.667 7.5 -18v-86c0 -7.33301 -2.5 -13.333 -7.5 -18
s-10.833 -7 -17.5 -7h-507v-187h393c7.33301 0 13.333 -2.33301 18 -7s7 -10.667 7 -18v-86c0 -6.66699 -2.33301 -12.5 -7 -17.5s-10.667 -7.5 -18 -7.5h-393v-186h507c6.66699 0 12.5 -2.33301 17.5 -7s7.5 -10.667 7.5 -18c0 -4 -0.166992 -8.16699 -0.5 -12.5
s-0.666016 -9.66602 -0.999023 -15.999s-0.5 -14.166 -0.5 -23.499s0.666992 -21 2 -35z" />
    <glyph glyph-name="Ccedilla" unicode="&#xc7;" horiz-adv-x="772" 
d="M724 26c0 -7.33301 -2.33301 -13.333 -7 -18s-10.667 -7 -18 -7h-547c-7.33301 0 -13.333 2.33301 -18 7s-7 10.667 -7 18v62h-61c-7.33301 0 -13.333 2.33301 -18 7s-7 10.667 -7 18v559c0 7.33301 2.33301 13.333 7 18s10.667 7 18 7h61v61
c0 7.33301 2.33301 13.333 7 18c6 4.66699 12 7 18 7h547c7.33301 0 13.333 -2.33301 18 -7s7 -10.667 7 -18v-86c0 -7.33301 -2.33301 -13.333 -7 -18s-10.667 -7 -18 -7h-522v-509h522c7.33301 0 13.333 -2.33301 18 -7s7 -10.667 7 -18
c0 -4 -0.166992 -8.16699 -0.5 -12.5s-0.5 -9.83301 -0.5 -16.5v-23c0 -9.33301 0.333008 -21 1 -35zM336 21l90 0.000976562c6.66699 0 12.167 -2.16699 16.5 -6.5s6.5 -9.83301 6.5 -16.5v-76h63c6.66699 0 12.167 -2.16699 16.5 -6.5s6.5 -9.5 6.5 -15.5v-139
c0 -6.66699 -2.16699 -12.167 -6.5 -16.5s-9.83301 -6.5 -16.5 -6.5h-63v-24c0 -6 -2.16699 -11.333 -6.5 -16s-9.83301 -7 -16.5 -7h-88c-5.33301 0 -10.333 2.16699 -15 6.5s-7 9.83301 -7 16.5v78c0 6 2.33301 11.167 7 15.5s10 6.5 16 6.5h65v63h-65
c-6 0 -11.333 2.16699 -16 6.5s-7 9.83301 -7 16.5v76c-1.33301 19.333 0 31.666 4 36.999s9.33301 8 16 8z" />
    <glyph glyph-name="Egrave" unicode="&#xc8;" horiz-adv-x="752" 
d="M709 26c0 -7.33301 -2.50098 -13.335 -7.50098 -18.002s-10.833 -7 -17.5 -7h-618c-7.33301 0 -13.333 2.33301 -18 7s-7 10.667 -7 18v323c0 6 2.33301 12 7 18c5.33301 5.33301 11.333 8 18 8h61v35h-61c-7.33301 0 -13.333 2.33301 -18 7s-7 10.667 -7 18v323
c0 7.33301 2.33301 13.333 7 18s10.667 7 18 7h618c6.66699 0 12.5 -2.33301 17.5 -7s7.5 -10.667 7.5 -18v-86c0 -7.33301 -2.5 -13.333 -7.5 -18s-10.833 -7 -17.5 -7h-507v-187h393c7.33301 0 13.333 -2.33301 18 -7s7 -10.667 7 -18v-86
c0 -6.66699 -2.33301 -12.5 -7 -17.5s-10.667 -7.5 -18 -7.5h-393v-186h507c6.66699 0 12.5 -2.33301 17.5 -7s7.5 -10.667 7.5 -18c0 -4 -0.166992 -8.16699 -0.5 -12.5s-0.666016 -9.66602 -0.999023 -15.999s-0.5 -14.166 -0.5 -23.499s0.666992 -21 2 -35z
M489.999 851.998c0 -6.66699 -2.33301 -12.5 -7 -17.5s-10.667 -7.5 -18 -7.5h-86c-7.33301 0 -13.333 2.5 -18 7.5s-7 10.833 -7 17.5v62h-61c-7.33301 0 -13.333 2.33301 -18 7s-7 10.667 -7 18v87c0 7.33301 2.33301 13.333 7 18s10.667 7 18 7h86
c7.33301 0 13.333 -2.33301 18 -7s7 -10.667 7 -18v-62h61c7.33301 0 13.333 -2.33301 18 -7s7 -10.667 7 -18v-87v0z" />
    <glyph glyph-name="Eacute" unicode="&#xc9;" horiz-adv-x="750" 
d="M709 26c0 -7.33301 -2.50098 -13.335 -7.50098 -18.002s-10.833 -7 -17.5 -7h-618c-7.33301 0 -13.333 2.33301 -18 7s-7 10.667 -7 18v323c0 6 2.33301 12 7 18c5.33301 5.33301 11.333 8 18 8h61v35h-61c-7.33301 0 -13.333 2.33301 -18 7s-7 10.667 -7 18v323
c0 7.33301 2.33301 13.333 7 18s10.667 7 18 7h618c6.66699 0 12.5 -2.33301 17.5 -7s7.5 -10.667 7.5 -18v-86c0 -7.33301 -2.5 -13.333 -7.5 -18s-10.833 -7 -17.5 -7h-507v-187h393c7.33301 0 13.333 -2.33301 18 -7s7 -10.667 7 -18v-86
c0 -6.66699 -2.33301 -12.5 -7 -17.5s-10.667 -7.5 -18 -7.5h-393v-186h507c6.66699 0 12.5 -2.33301 17.5 -7s7.5 -10.667 7.5 -18c0 -4 -0.166992 -8.16699 -0.5 -12.5s-0.666016 -9.66602 -0.999023 -15.999s-0.5 -14.166 -0.5 -23.499s0.666992 -21 2 -35z
M261.999 852.998v87c0 7.33301 2.33301 13.333 7 18s10.667 7 18 7h61v62c0 7.33301 2.33301 13.333 7 18s10.667 7 18 7h86c7.33301 0 13.333 -2.33301 18 -7s7 -10.667 7 -18v-87c0 -7.33301 -2.33301 -13.333 -7 -18s-10.667 -7 -18 -7h-61v-62
c0 -6.66699 -2.33301 -12.5 -7 -17.5s-10.667 -7.5 -18 -7.5h-86c-7.33301 0 -13.333 2.5 -18 7.5s-7 10.833 -7 17.5z" />
    <glyph glyph-name="Ecircumflex" unicode="&#xca;" horiz-adv-x="750" 
d="M709 26c0 -7.33301 -2.50098 -13.335 -7.50098 -18.002s-10.833 -7 -17.5 -7h-618c-7.33301 0 -13.333 2.33301 -18 7s-7 10.667 -7 18v323c0 6 2.33301 12 7 18c5.33301 5.33301 11.333 8 18 8h61v35h-61c-7.33301 0 -13.333 2.33301 -18 7s-7 10.667 -7 18v323
c0 7.33301 2.33301 13.333 7 18s10.667 7 18 7h618c6.66699 0 12.5 -2.33301 17.5 -7s7.5 -10.667 7.5 -18v-86c0 -7.33301 -2.5 -13.333 -7.5 -18s-10.833 -7 -17.5 -7h-507v-187h393c7.33301 0 13.333 -2.33301 18 -7s7 -10.667 7 -18v-86
c0 -6.66699 -2.33301 -12.5 -7 -17.5s-10.667 -7.5 -18 -7.5h-393v-186h507c6.66699 0 12.5 -2.33301 17.5 -7s7.5 -10.667 7.5 -18c0 -4 -0.166992 -8.16699 -0.5 -12.5s-0.666016 -9.66602 -0.999023 -15.999s-0.5 -14.166 -0.5 -23.499s0.666992 -21 2 -35z
M534.999 851.998c0 -6.66699 -2.66797 -12 -8.00098 -16s-17.666 -5.33301 -36.999 -4h-76c-6.66699 0 -12.167 2.33301 -16.5 7s-6.5 10 -6.5 16v65h-42v-65c0 -6 -2.16699 -11.333 -6.5 -16s-9.5 -7 -15.5 -7h-99c-6.66699 0 -12.167 2.33301 -16.5 7
s-6.5 9.66699 -6.5 15v88c0 6.66699 2.33301 12.167 7 16.5s10 6.5 16 6.5h76v63c0 6.66699 2.16699 12.167 6.5 16.5s9.83301 6.5 16.5 6.5h87c6 0 11.167 -2.16699 15.5 -6.5s6.5 -9.83301 6.5 -16.5v-63h76c6.66699 0 12.167 -2.16699 16.5 -6.5s6.5 -9.83301 6.5 -16.5
v-90v0z" />
    <glyph glyph-name="Edieresis" unicode="&#xcb;" horiz-adv-x="750" 
d="M709 26c0 -7.33301 -2.50098 -13.335 -7.50098 -18.002s-10.833 -7 -17.5 -7h-618c-7.33301 0 -13.333 2.33301 -18 7s-7 10.667 -7 18v323c0 6 2.33301 12 7 18c5.33301 5.33301 11.333 8 18 8h61v35h-61c-7.33301 0 -13.333 2.33301 -18 7s-7 10.667 -7 18v323
c0 7.33301 2.33301 13.333 7 18s10.667 7 18 7h618c6.66699 0 12.5 -2.33301 17.5 -7s7.5 -10.667 7.5 -18v-86c0 -7.33301 -2.5 -13.333 -7.5 -18s-10.833 -7 -17.5 -7h-507v-187h393c7.33301 0 13.333 -2.33301 18 -7s7 -10.667 7 -18v-86
c0 -6.66699 -2.33301 -12.5 -7 -17.5s-10.667 -7.5 -18 -7.5h-393v-186h507c6.66699 0 12.5 -2.33301 17.5 -7s7.5 -10.667 7.5 -18c0 -4 -0.166992 -8.16699 -0.5 -12.5s-0.666016 -9.66602 -0.999023 -15.999s-0.5 -14.166 -0.5 -23.499s0.666992 -21 2 -35z
M216.999 864.998c-7.33301 0 -13.333 2.33301 -18 7s-7 10.667 -7 18v86c0 7.33301 2.33301 13.333 7 18s10.667 7 18 7h87c7.33301 0 13.333 -2.33301 18 -7s7 -10.667 7 -18v-86c0 -7.33301 -2.33301 -13.333 -7 -18s-10.667 -7 -18 -7h-87v0zM443.999 864.998
c-7.33301 0 -13.333 2.33301 -18 7s-7 10.667 -7 18v86c0 7.33301 2.33301 13.333 7 18s10.667 7 18 7h86c7.33301 0 13.333 -2.33301 18 -7s7 -10.667 7 -18v-86c0 -7.33301 -2.33301 -13.333 -7 -18s-10.667 -7 -18 -7h-86v0z" />
    <glyph glyph-name="Igrave" unicode="&#xcc;" horiz-adv-x="240" 
d="M179 26c0 -7.33301 -2.33301 -13.333 -7 -18s-10.667 -7 -18 -7h-88c-7.33301 0 -13.333 2.33301 -18 7s-7 10.667 -7 18v732c0 7.33301 2.33301 13.333 7 18s10.667 7 18 7h88c7.33301 0 13.333 -2.33301 18 -7s7 -10.667 7 -18v-732v0zM233 852
c0 -6.66699 -2.33301 -12.5 -7 -17.5s-10.667 -7.5 -18 -7.5h-86c-7.33301 0 -13.333 2.5 -18 7.5s-7 10.833 -7 17.5v62h-61c-7.33301 0 -13.333 2.33301 -18 7s-7 10.667 -7 18v87c0 7.33301 2.33301 13.333 7 18s10.667 7 18 7h86c7.33301 0 13.333 -2.33301 18 -7
s7 -10.667 7 -18v-62h61c7.33301 0 13.333 -2.33301 18 -7s7 -10.667 7 -18v-87v0z" />
    <glyph glyph-name="Iacute" unicode="&#xcd;" horiz-adv-x="240" 
d="M179 26c0 -7.33301 -2.33301 -13.333 -7 -18s-10.667 -7 -18 -7h-88c-7.33301 0 -13.333 2.33301 -18 7s-7 10.667 -7 18v732c0 7.33301 2.33301 13.333 7 18s10.667 7 18 7h88c7.33301 0 13.333 -2.33301 18 -7s7 -10.667 7 -18v-732v0zM12 852v87
c0 7.33301 2.33301 13.333 7 18s10.667 7 18 7h61v62c0 7.33301 2.33301 13.333 7 18s10.667 7 18 7h86c7.33301 0 13.333 -2.33301 18 -7s7 -10.667 7 -18v-87c0 -7.33301 -2.33301 -13.333 -7 -18s-10.667 -7 -18 -7h-61v-62c0 -6.66699 -2.33301 -12.5 -7 -17.5
s-10.667 -7.5 -18 -7.5h-86c-7.33301 0 -13.333 2.5 -18 7.5s-7 10.833 -7 17.5z" />
    <glyph glyph-name="Icircumflex" unicode="&#xce;" horiz-adv-x="240" 
d="M179 26c0 -7.33301 -2.33301 -13.333 -7 -18s-10.667 -7 -18 -7h-88c-7.33301 0 -13.333 2.33301 -18 7s-7 10.667 -7 18v732c0 7.33301 2.33301 13.333 7 18s10.667 7 18 7h88c7.33301 0 13.333 -2.33301 18 -7s7 -10.667 7 -18v-732v0zM275 853
c0 -6.66699 -2.66797 -12 -8.00098 -16s-17.666 -5.33301 -36.999 -4h-76c-6.66699 0 -12.167 2.33301 -16.5 7s-6.5 10 -6.5 16v65h-42v-65c0 -6 -2.16699 -11.333 -6.5 -16s-9.5 -7 -15.5 -7h-99c-6.66699 0 -12.167 2.33301 -16.5 7s-6.5 9.66699 -6.5 15v88
c0 6.66699 2.33301 12.167 7 16.5s10 6.5 16 6.5h76v63c0 6.66699 2.16699 12.167 6.5 16.5s9.83301 6.5 16.5 6.5h87c6 0 11.167 -2.16699 15.5 -6.5s6.5 -9.83301 6.5 -16.5v-63h76c6.66699 0 12.167 -2.16699 16.5 -6.5s6.5 -9.83301 6.5 -16.5v-90v0z" />
    <glyph glyph-name="Idieresis" unicode="&#xcf;" horiz-adv-x="240" 
d="M179 26c0 -7.33301 -2.33301 -13.333 -7 -18s-10.667 -7 -18 -7h-88c-7.33301 0 -13.333 2.33301 -18 7s-7 10.667 -7 18v732c0 7.33301 2.33301 13.333 7 18s10.667 7 18 7h88c7.33301 0 13.333 -2.33301 18 -7s7 -10.667 7 -18v-732v0zM-51 865
c-7.33301 0 -13.333 2.33301 -18 7s-7 10.667 -7 18v86c0 7.33301 2.33301 13.333 7 18s10.667 7 18 7h87c7.33301 0 13.333 -2.33301 18 -7s7 -10.667 7 -18v-86c0 -7.33301 -2.33301 -13.333 -7 -18s-10.667 -7 -18 -7h-87v0zM176 865c-7.33301 0 -13.333 2.33301 -18 7
s-7 10.667 -7 18v86c0 7.33301 2.33301 13.333 7 18s10.667 7 18 7h86c7.33301 0 13.333 -2.33301 18 -7s7 -10.667 7 -18v-86c0 -7.33301 -2.33301 -13.333 -7 -18s-10.667 -7 -18 -7h-86v0z" />
    <glyph glyph-name="Eth" unicode="&#xd0;" horiz-adv-x="897" 
d="M375 343c0 -7.33301 -2.33301 -13.333 -7 -18s-10.667 -7 -18 -7h-74v-180h445v508h-445v-191h74c7.33301 0 13.333 -2.33301 18 -7s7 -10.667 7 -18v-26c0 -4.66699 -0.166992 -7.5 -0.5 -8.5l-0.5 -1.5c0 0.666992 0 0 0 -2v-14c0 -7.33301 0.333008 -19 1 -35z
M857 113c0 -7.33301 -2.5 -13.5 -7.5 -18.5s-10.833 -7.5 -17.5 -7.5h-61v-60c0 -7.33301 -2.33301 -13.333 -7 -18s-10.667 -7 -18 -7h-642c-7.33301 0 -13.333 2.33301 -18 7s-7 10.667 -7 18v86c0 6.66699 2.33301 12.5 7 17.5s10.667 7.5 18 7.5h36v180h-89
c-7.33301 0 -13.333 2.33301 -18 7s-7 10.667 -7 18v87c0 7.33301 2.33301 13.333 7 18s10.667 7 18 7h89v191h-36c-7.33301 0 -13.333 2.5 -18 7.5s-7 10.833 -7 17.5v86c0 7.33301 2.33301 13.333 7 18s10.667 7 18 7h643c6.66699 0 12 -2 16 -6
c5.33301 -5.33301 8 -11.333 8 -18v-61h61c6.66699 0 12.5 -2.5 17.5 -7.5s7.5 -11.167 7.5 -18.5v-558v0z" />
    <glyph glyph-name="Ntilde" unicode="&#xd1;" horiz-adv-x="843" 
d="M782 26c0 -7.33301 -2.33301 -13.333 -7 -18s-10.667 -7 -18 -7h-86c-7.33301 0 -13.333 2.33301 -18 7s-7 10.667 -7 18v621h-445v-621c0 -7.33301 -2.33301 -13.333 -7 -18s-10.667 -7 -18 -7h-86c-7.33301 0 -13.333 2.33301 -18 7s-7 10.667 -7 18v621h-34
c-7.33301 0 -13.333 2.33301 -18 7s-7 10.667 -7 18v86c0 7.33301 2.33301 13.333 7 18s10.667 7 18 7h640c7.33301 0 13.333 -2.33301 18 -7s7 -10.667 7 -18v-61h61c7.33301 0 13.333 -2.33301 18 -7s7 -10.667 7 -18v-646v0zM586 909c0 -4 -1.5 -7.66699 -4.5 -11
s-6.5 -5 -10.5 -5h-48v-47c0 -4.66699 -1.5 -8.66699 -4.5 -12s-6.83301 -5 -11.5 -5h-73c-4.66699 0 -8.5 1.66699 -11.5 5s-4.5 7.33301 -4.5 12v47h-47c-4.66699 0 -8.66699 1.66699 -12 5s-5 7 -5 11v48h-39v-48c0 -4 -1.5 -7.66699 -4.5 -11s-7.16699 -5 -12.5 -5h-63
c-5.33301 0 -9.5 1.66699 -12.5 5s-4.5 7 -4.5 11v65c0 4.66699 1.5 8.66699 4.5 12s7.16699 5 12.5 5h46v45c0 5.33301 1.83301 9.5 5.5 12.5s7.5 4.5 11.5 4.5h73c4 0 7.66699 -1.5 11 -4.5s5 -7.16699 5 -12.5v-45h47c5.33301 0 9.33301 -1.66699 12 -5s4 -7.33301 4 -12
v-48h40v48c0 4.66699 1.66699 8.66699 5 12s7.33301 5 12 5h64c4 0 7.5 -1.66699 10.5 -5s4.5 -7.33301 4.5 -12v-65z" />
    <glyph glyph-name="Ograve" unicode="&#xd2;" horiz-adv-x="803" 
d="M608 647h-431v-509h431v509zM744 113c0 -7.33301 -2.33301 -13.333 -7 -18s-10.667 -7 -18 -7h-61v-62c0 -7.33301 -2.33301 -13.333 -7 -18s-10.667 -7 -18 -7h-481c-7.33301 0 -13.333 2.33301 -18 7s-7 10.667 -7 18v62h-61c-7.33301 0 -13.333 2.33301 -18 7
s-7 10.667 -7 18v559c0 7.33301 2.33301 13.333 7 18s10.667 7 18 7h61v61c0 7.33301 2.33301 13.333 7 18s10.667 7 18 7h481c7.33301 0 13.333 -2.33301 18 -7s7 -10.667 7 -18v-61h61c7.33301 0 13.333 -2.33301 18 -7s7 -10.667 7 -18v-559v0zM508 854
c0 -6.66699 -2.33301 -12.5 -7 -17.5s-10.667 -7.5 -18 -7.5h-86c-7.33301 0 -13.333 2.5 -18 7.5s-7 10.833 -7 17.5v62h-61c-7.33301 0 -13.333 2.33301 -18 7s-7 10.667 -7 18v87c0 7.33301 2.33301 13.333 7 18s10.667 7 18 7h86c7.33301 0 13.333 -2.33301 18 -7
s7 -10.667 7 -18v-62h61c7.33301 0 13.333 -2.33301 18 -7s7 -10.667 7 -18v-87v0z" />
    <glyph glyph-name="Oacute" unicode="&#xd3;" horiz-adv-x="803" 
d="M608 647h-431v-509h431v509zM744 113c0 -7.33301 -2.33301 -13.333 -7 -18s-10.667 -7 -18 -7h-61v-62c0 -7.33301 -2.33301 -13.333 -7 -18s-10.667 -7 -18 -7h-481c-7.33301 0 -13.333 2.33301 -18 7s-7 10.667 -7 18v62h-61c-7.33301 0 -13.333 2.33301 -18 7
s-7 10.667 -7 18v559c0 7.33301 2.33301 13.333 7 18s10.667 7 18 7h61v61c0 7.33301 2.33301 13.333 7 18s10.667 7 18 7h481c7.33301 0 13.333 -2.33301 18 -7s7 -10.667 7 -18v-61h61c7.33301 0 13.333 -2.33301 18 -7s7 -10.667 7 -18v-559v0zM288 852v87
c0 7.33301 2.33301 13.333 7 18s10.667 7 18 7h61v62c0 7.33301 2.33301 13.333 7 18s10.667 7 18 7h86c7.33301 0 13.333 -2.33301 18 -7s7 -10.667 7 -18v-87c0 -7.33301 -2.33301 -13.333 -7 -18s-10.667 -7 -18 -7h-61v-62c0 -6.66699 -2.33301 -12.5 -7 -17.5
s-10.667 -7.5 -18 -7.5h-86c-7.33301 0 -13.333 2.5 -18 7.5s-7 10.833 -7 17.5z" />
    <glyph glyph-name="Ocircumflex" unicode="&#xd4;" horiz-adv-x="803" 
d="M608 647h-431v-509h431v509zM744 113c0 -7.33301 -2.33301 -13.333 -7 -18s-10.667 -7 -18 -7h-61v-62c0 -7.33301 -2.33301 -13.333 -7 -18s-10.667 -7 -18 -7h-481c-7.33301 0 -13.333 2.33301 -18 7s-7 10.667 -7 18v62h-61c-7.33301 0 -13.333 2.33301 -18 7
s-7 10.667 -7 18v559c0 7.33301 2.33301 13.333 7 18s10.667 7 18 7h61v61c0 7.33301 2.33301 13.333 7 18s10.667 7 18 7h481c7.33301 0 13.333 -2.33301 18 -7s7 -10.667 7 -18v-61h61c7.33301 0 13.333 -2.33301 18 -7s7 -10.667 7 -18v-559v0zM563 853
c0 -6.66699 -2.66797 -12 -8.00098 -16s-17.666 -5.33301 -36.999 -4h-76c-6.66699 0 -12.167 2.33301 -16.5 7s-6.5 10 -6.5 16v65h-42v-65c0 -6 -2.16699 -11.333 -6.5 -16s-9.5 -7 -15.5 -7h-99c-6.66699 0 -12.167 2.33301 -16.5 7s-6.5 9.66699 -6.5 15v88
c0 6.66699 2.33301 12.167 7 16.5s10 6.5 16 6.5h76v63c0 6.66699 2.16699 12.167 6.5 16.5s9.83301 6.5 16.5 6.5h87c6 0 11.167 -2.16699 15.5 -6.5s6.5 -9.83301 6.5 -16.5v-63h76c6.66699 0 12.167 -2.16699 16.5 -6.5s6.5 -9.83301 6.5 -16.5v-90v0z" />
    <glyph glyph-name="Otilde" unicode="&#xd5;" horiz-adv-x="803" 
d="M608 647h-431v-509h431v509zM744 113c0 -7.33301 -2.33301 -13.333 -7 -18s-10.667 -7 -18 -7h-61v-62c0 -7.33301 -2.33301 -13.333 -7 -18s-10.667 -7 -18 -7h-481c-7.33301 0 -13.333 2.33301 -18 7s-7 10.667 -7 18v62h-61c-7.33301 0 -13.333 2.33301 -18 7
s-7 10.667 -7 18v559c0 7.33301 2.33301 13.333 7 18s10.667 7 18 7h61v61c0 7.33301 2.33301 13.333 7 18s10.667 7 18 7h481c7.33301 0 13.333 -2.33301 18 -7s7 -10.667 7 -18v-61h61c7.33301 0 13.333 -2.33301 18 -7s7 -10.667 7 -18v-559v0zM582 907
c0 -4 -1.5 -7.66699 -4.5 -11s-6.5 -5 -10.5 -5h-48v-47c0 -4.66699 -1.5 -8.66699 -4.5 -12s-6.83301 -5 -11.5 -5h-73c-4.66699 0 -8.5 1.66699 -11.5 5s-4.5 7.33301 -4.5 12v47h-47c-4.66699 0 -8.66699 1.66699 -12 5s-5 7 -5 11v48h-39v-48
c0 -4 -1.5 -7.66699 -4.5 -11s-7.16699 -5 -12.5 -5h-63c-5.33301 0 -9.5 1.66699 -12.5 5s-4.5 7 -4.5 11v65c0 4.66699 1.5 8.66699 4.5 12s7.16699 5 12.5 5h46v45c0 5.33301 1.83301 9.5 5.5 12.5s7.5 4.5 11.5 4.5h73c4 0 7.66699 -1.5 11 -4.5s5 -7.16699 5 -12.5v-45
h47c5.33301 0 9.33301 -1.66699 12 -5s4 -7.33301 4 -12v-48h40v48c0 4.66699 1.66699 8.66699 5 12s7.33301 5 12 5h64c4 0 7.5 -1.66699 10.5 -5s4.5 -7.33301 4.5 -12v-65z" />
    <glyph glyph-name="Odieresis" unicode="&#xd6;" horiz-adv-x="803" 
d="M608 647h-431v-509h431v509zM744 113c0 -7.33301 -2.33301 -13.333 -7 -18s-10.667 -7 -18 -7h-61v-62c0 -7.33301 -2.33301 -13.333 -7 -18s-10.667 -7 -18 -7h-481c-7.33301 0 -13.333 2.33301 -18 7s-7 10.667 -7 18v62h-61c-7.33301 0 -13.333 2.33301 -18 7
s-7 10.667 -7 18v559c0 7.33301 2.33301 13.333 7 18s10.667 7 18 7h61v61c0 7.33301 2.33301 13.333 7 18s10.667 7 18 7h481c7.33301 0 13.333 -2.33301 18 -7s7 -10.667 7 -18v-61h61c7.33301 0 13.333 -2.33301 18 -7s7 -10.667 7 -18v-559v0zM232 865
c-7.33301 0 -13.333 2.33301 -18 7s-7 10.667 -7 18v86c0 7.33301 2.33301 13.333 7 18s10.667 7 18 7h87c7.33301 0 13.333 -2.33301 18 -7s7 -10.667 7 -18v-86c0 -7.33301 -2.33301 -13.333 -7 -18s-10.667 -7 -18 -7h-87v0zM459 865c-7.33301 0 -13.333 2.33301 -18 7
s-7 10.667 -7 18v86c0 7.33301 2.33301 13.333 7 18s10.667 7 18 7h86c7.33301 0 13.333 -2.33301 18 -7s7 -10.667 7 -18v-86c0 -7.33301 -2.33301 -13.333 -7 -18s-10.667 -7 -18 -7h-86v0z" />
    <glyph glyph-name="multiply" unicode="&#xd7;" horiz-adv-x="427" 
d="M374 167c0 -6.66699 -1.66602 -12.167 -4.99902 -16.5s-8 -6.5 -14 -6.5h-87c-6.66699 0 -12 2.33301 -16 7c-4.66699 4 -7 9.33301 -7 16v64h-65v-64c0 -6 -2.33301 -11.333 -7 -16c-4 -4.66699 -9.33301 -7 -16 -7h-87c-6.66699 0 -12.167 2.16699 -16.5 6.5
s-6.5 9.83301 -6.5 16.5v87c0 6 2.16699 11.167 6.5 15.5s9.83301 6.5 16.5 6.5h64v42h-64c-6.66699 0 -12.167 2.33301 -16.5 7s-6.5 10 -6.5 16v87c0 6.66699 2.16699 12.167 6.5 16.5s9.83301 6.5 16.5 6.5h87c6 0 11.333 -2.16699 16 -6.5s7 -9.83301 7 -16.5v-64h65v64
c0 6.66699 2.16699 12.167 6.5 16.5s9.5 6.5 15.5 6.5h88c6 0 11.167 -2.16699 15.5 -6.5s6.5 -9.83301 6.5 -16.5v-87c0 -6 -2.16699 -11.333 -6.5 -16s-9.5 -7 -15.5 -7h-65v-42h65c6 0 11.167 -2.16699 15.5 -6.5s6.5 -9.5 6.5 -15.5c0 -12.667 0.166992 -25.667 0.5 -39
s-0.833984 -29.333 -3.50098 -48z" />
    <glyph glyph-name="Oslash" unicode="&#xd8;" horiz-adv-x="803" 
d="M177 138h17v71c0 6 2.16699 11.167 6.5 15.5s9.83301 6.5 16.5 6.5h65v161c0 6.66699 2.16699 12.167 6.5 16.5s9.5 6.5 15.5 6.5h65v161c0 6 2.33301 11.167 7 15.5s10 6.5 16 6.5h65v49h-280v-509zM590 576c0 -6.66699 -2.16699 -12.167 -6.5 -16.5
s-9.83301 -6.5 -16.5 -6.5h-65v-161c0 -6 -2.16699 -11.167 -6.5 -15.5s-9.5 -6.5 -15.5 -6.5h-65v-161c0 -6.66699 -2.33301 -12.167 -7 -16.5s-10 -6.5 -16 -6.5h-65v-48h281v509h-18v-71v0zM744 113c0 -7.33301 -2.33301 -13.333 -7 -18s-10.667 -7 -18 -7h-61v-62
c0 -7.33301 -2.33301 -13.333 -7 -18s-10.667 -7 -18 -7h-481c-7.33301 0 -13.333 2.33301 -18 7s-7 10.667 -7 18v62h-61c-7.33301 0 -13.333 2.33301 -18 7s-7 10.667 -7 18v559c0 7.33301 2.33301 13.333 7 18s10.667 7 18 7h61v61c0 7.33301 2.33301 13.333 7 18
s10.667 7 18 7h481c7.33301 0 13.333 -2.33301 18 -7s7 -10.667 7 -18v-61h61c7.33301 0 13.333 -2.33301 18 -7s7 -10.667 7 -18v-559v0z" />
    <glyph glyph-name="Ugrave" unicode="&#xd9;" horiz-adv-x="767" 
d="M707 113c0 -7.33301 -2.5 -13.333 -7.5 -18s-10.833 -7 -17.5 -7h-61v-62c0 -7.33301 -2.33301 -13.333 -7 -18s-10.667 -7 -18 -7h-444c-7.33301 0 -13.333 2.33301 -18 7s-7 10.667 -7 18v62h-61c-7.33301 0 -13.333 2.33301 -18 7s-7 10.667 -7 18v645
c0 7.33301 2.33301 13.333 7 18s10.667 7 18 7h86c7.33301 0 13.333 -2.33301 18 -7s7 -10.667 7 -18v-620h394v620c0 7.33301 2.33301 13.333 7 18s10.667 7 18 7h86c6.66699 0 12.5 -2.33301 17.5 -7s7.5 -10.667 7.5 -18v-645v0zM486 852
c0 -6.66699 -2.33301 -12.5 -7 -17.5s-10.667 -7.5 -18 -7.5h-86c-7.33301 0 -13.333 2.5 -18 7.5s-7 10.833 -7 17.5v62h-61c-7.33301 0 -13.333 2.33301 -18 7s-7 10.667 -7 18v87c0 7.33301 2.33301 13.333 7 18s10.667 7 18 7h86c7.33301 0 13.333 -2.33301 18 -7
s7 -10.667 7 -18v-62h61c7.33301 0 13.333 -2.33301 18 -7s7 -10.667 7 -18v-87v0z" />
    <glyph glyph-name="Uacute" unicode="&#xda;" horiz-adv-x="767" 
d="M707 113c0 -7.33301 -2.5 -13.333 -7.5 -18s-10.833 -7 -17.5 -7h-61v-62c0 -7.33301 -2.33301 -13.333 -7 -18s-10.667 -7 -18 -7h-444c-7.33301 0 -13.333 2.33301 -18 7s-7 10.667 -7 18v62h-61c-7.33301 0 -13.333 2.33301 -18 7s-7 10.667 -7 18v645
c0 7.33301 2.33301 13.333 7 18s10.667 7 18 7h86c7.33301 0 13.333 -2.33301 18 -7s7 -10.667 7 -18v-620h394v620c0 7.33301 2.33301 13.333 7 18s10.667 7 18 7h86c6.66699 0 12.5 -2.33301 17.5 -7s7.5 -10.667 7.5 -18v-645v0zM269 852v87
c0 7.33301 2.33301 13.333 7 18s10.667 7 18 7h61v62c0 7.33301 2.33301 13.333 7 18s10.667 7 18 7h86c7.33301 0 13.333 -2.33301 18 -7s7 -10.667 7 -18v-87c0 -7.33301 -2.33301 -13.333 -7 -18s-10.667 -7 -18 -7h-61v-62c0 -6.66699 -2.33301 -12.5 -7 -17.5
s-10.667 -7.5 -18 -7.5h-86c-7.33301 0 -13.333 2.5 -18 7.5s-7 10.833 -7 17.5z" />
    <glyph glyph-name="Ucircumflex" unicode="&#xdb;" horiz-adv-x="767" 
d="M707 113c0 -7.33301 -2.5 -13.333 -7.5 -18s-10.833 -7 -17.5 -7h-61v-62c0 -7.33301 -2.33301 -13.333 -7 -18s-10.667 -7 -18 -7h-444c-7.33301 0 -13.333 2.33301 -18 7s-7 10.667 -7 18v62h-61c-7.33301 0 -13.333 2.33301 -18 7s-7 10.667 -7 18v645
c0 7.33301 2.33301 13.333 7 18s10.667 7 18 7h86c7.33301 0 13.333 -2.33301 18 -7s7 -10.667 7 -18v-620h394v620c0 7.33301 2.33301 13.333 7 18s10.667 7 18 7h86c6.66699 0 12.5 -2.33301 17.5 -7s7.5 -10.667 7.5 -18v-645v0zM539 853
c0 -6.66699 -2.66797 -12 -8.00098 -16s-17.666 -5.33301 -36.999 -4h-76c-6.66699 0 -12.167 2.33301 -16.5 7s-6.5 10 -6.5 16v65h-42v-65c0 -6 -2.16699 -11.333 -6.5 -16s-9.5 -7 -15.5 -7h-99c-6.66699 0 -12.167 2.33301 -16.5 7s-6.5 9.66699 -6.5 15v88
c0 6.66699 2.33301 12.167 7 16.5s10 6.5 16 6.5h76v63c0 6.66699 2.16699 12.167 6.5 16.5s9.83301 6.5 16.5 6.5h87c6 0 11.167 -2.16699 15.5 -6.5s6.5 -9.83301 6.5 -16.5v-63h76c6.66699 0 12.167 -2.16699 16.5 -6.5s6.5 -9.83301 6.5 -16.5v-90v0z" />
    <glyph glyph-name="Udieresis" unicode="&#xdc;" horiz-adv-x="767" 
d="M707 113c0 -7.33301 -2.5 -13.333 -7.5 -18s-10.833 -7 -17.5 -7h-61v-62c0 -7.33301 -2.33301 -13.333 -7 -18s-10.667 -7 -18 -7h-444c-7.33301 0 -13.333 2.33301 -18 7s-7 10.667 -7 18v62h-61c-7.33301 0 -13.333 2.33301 -18 7s-7 10.667 -7 18v645
c0 7.33301 2.33301 13.333 7 18s10.667 7 18 7h86c7.33301 0 13.333 -2.33301 18 -7s7 -10.667 7 -18v-620h394v620c0 7.33301 2.33301 13.333 7 18s10.667 7 18 7h86c6.66699 0 12.5 -2.33301 17.5 -7s7.5 -10.667 7.5 -18v-645v0zM219 864
c-7.33301 0 -13.333 2.33301 -18 7s-7 10.667 -7 18v86c0 7.33301 2.33301 13.333 7 18s10.667 7 18 7h87c7.33301 0 13.333 -2.33301 18 -7s7 -10.667 7 -18v-86c0 -7.33301 -2.33301 -13.333 -7 -18s-10.667 -7 -18 -7h-87v0zM446 864c-7.33301 0 -13.333 2.33301 -18 7
s-7 10.667 -7 18v86c0 7.33301 2.33301 13.333 7 18s10.667 7 18 7h86c7.33301 0 13.333 -2.33301 18 -7s7 -10.667 7 -18v-86c0 -7.33301 -2.33301 -13.333 -7 -18s-10.667 -7 -18 -7h-86v0z" />
    <glyph glyph-name="Yacute" unicode="&#xdd;" horiz-adv-x="784" 
d="M745 404c0 -7.33301 -2.33301 -13.333 -7 -18s-10.667 -7 -18 -7h-60v-61c0 -7.33301 -2.5 -13.333 -7.5 -18s-11.167 -7 -18.5 -7h-173v-266c0 -7.33301 -2.33301 -13.5 -7 -18.5s-10.667 -7.5 -18 -7.5h-86c-7.33301 0 -13.333 2.5 -18 7.5s-7 11.167 -7 18.5v266h-173
c-7.33301 0 -13.333 2.33301 -18 7s-7 10.667 -7 18v61h-61c-7.33301 0 -13.333 2.33301 -18 7s-7 10.667 -7 18v354c0 7.33301 2.33301 13.333 7 18s10.667 7 18 7h86c7.33301 0 13.333 -2.33301 18 -7s7 -10.667 7 -18v-329h173c7.33301 0 13.333 -2.33301 18 -7
s7 -10.667 7 -18v-61h36v61c0 7.33301 2.33301 13.333 7 18s10.667 7 18 7h173v329c0 7.33301 2.5 13.333 7.5 18s10.833 7 17.5 7h86c7.33301 0 13.333 -2.33301 18 -7s7 -10.667 7 -18v-354v0zM281 850v87c0 7.33301 2.33301 13.333 7 18s10.667 7 18 7h61v62
c0 7.33301 2.33301 13.333 7 18s10.667 7 18 7h86c7.33301 0 13.333 -2.33301 18 -7s7 -10.667 7 -18v-87c0 -7.33301 -2.33301 -13.333 -7 -18s-10.667 -7 -18 -7h-61v-62c0 -6.66699 -2.33301 -12.5 -7 -17.5s-10.667 -7.5 -18 -7.5h-86c-7.33301 0 -13.333 2.5 -18 7.5
s-7 10.833 -7 17.5z" />
    <glyph glyph-name="Thorn" unicode="&#xde;" horiz-adv-x="592" 
d="M179 290h233v225h-232zM550 265c0 -6.66699 -2.66699 -12.667 -8 -18c-4 -4.66699 -9.66699 -7 -17 -7h-63v-61c0 -7.33301 -2.33301 -13.333 -7 -18s-10.667 -7 -18 -7h-258v-129c0 -7.33301 -2.5 -13.333 -7.5 -18s-10.833 -7 -17.5 -7h-88
c-7.33301 -0 -13.333 2.33301 -18 7s-7 10.667 -7 18v734c0 7.33301 2.33301 13.333 7 18s10.667 7 18 7h89c6.66699 0 12.5 -2.33301 17.5 -7s7.5 -10.667 7.5 -18v-109h257c7.33301 0 13.333 -2.33301 18 -7s7 -10.667 7 -18v-60h62c7.33301 0 13.333 -2.33301 18 -7
s7 -10.667 7 -18l1 -275v0z" />
    <glyph glyph-name="germandbls" unicode="&#xdf;" horiz-adv-x="750" 
d="M188 -192c0 -7.33301 -2.5 -13.5 -7.5 -18.5s-10.833 -7.5 -17.5 -7.5h-87c-7.33301 0 -13.333 2.5 -18 7.5s-7 11.167 -7 18.5v950c0 7.33301 2.33301 13.333 7 18s10.667 7 18 7h504c7.33301 0 13.333 -2.33301 18 -7s7 -10.667 7 -18v-61h61
c7.33301 0 13.333 -2.33301 18 -7s7 -10.667 7 -18v-237c0 -7.33301 -2.33301 -13.333 -7 -18s-10.667 -7 -18 -7h-61v-35h61c7.33301 0 13.333 -2.5 18 -7.5s7 -11.167 7 -18.5v-236c0 -7.33301 -2.33301 -13.333 -7 -18s-10.667 -7 -18 -7h-61v-62
c0 -7.33301 -2.33301 -13.333 -7 -18s-10.667 -7 -18 -7h-265c-7.33301 0 -13.333 2.33301 -18 7s-7 10.667 -7 18v87c0 7.33301 2.33301 13.333 7 18s10.667 7 18 7h240v186l-240 -1c-7.33301 0 -13.333 2.33301 -18 7s-7 10.667 -7 18v87c0 7.33301 2.33301 13.333 7 18
s10.667 7 18 7h240v187h-368l1 -839v0z" />
    <glyph glyph-name="agrave" unicode="&#xe0;" horiz-adv-x="666" 
d="M412 456h-234v-320h234v320zM610 25c0 -7.33301 -2.33301 -13.333 -7 -18s-10.667 -7 -18 -7h-432c-7.33301 -0 -13.333 2.33301 -18 7s-7 10.667 -7 18v61h-62c-7.33301 0 -13.333 2.33301 -18 7s-7 10.667 -7 18v370c0 7.33301 2.33301 13.333 7 18s10.667 7 18 7h62
v60c0 7.33301 2.33301 13.333 7 18s10.667 7 18 7h371c7.33301 0 13.333 -2.33301 18 -7s7 -10.667 7 -18v-430h36c7.33301 0 13.333 -2.33301 18 -7s7 -10.667 7 -18v-86v0zM422 702c0 -6.66699 -2.33301 -12.5 -7 -17.5s-10.667 -7.5 -18 -7.5h-86
c-7.33301 0 -13.333 2.5 -18 7.5s-7 10.833 -7 17.5v62h-61c-7.33301 0 -13.333 2.33301 -18 7s-7 10.667 -7 18v87c0 7.33301 2.33301 13.333 7 18s10.667 7 18 7h86c7.33301 0 13.333 -2.33301 18 -7s7 -10.667 7 -18v-62h61c7.33301 0 13.333 -2.33301 18 -7
s7 -10.667 7 -18v-87v0z" />
    <glyph glyph-name="aacute" unicode="&#xe1;" horiz-adv-x="666" 
d="M412 456h-234v-320h234v320zM610 25c0 -7.33301 -2.33301 -13.333 -7 -18s-10.667 -7 -18 -7h-432c-7.33301 -0 -13.333 2.33301 -18 7s-7 10.667 -7 18v61h-62c-7.33301 0 -13.333 2.33301 -18 7s-7 10.667 -7 18v370c0 7.33301 2.33301 13.333 7 18s10.667 7 18 7h62
v60c0 7.33301 2.33301 13.333 7 18s10.667 7 18 7h371c7.33301 0 13.333 -2.33301 18 -7s7 -10.667 7 -18v-430h36c7.33301 0 13.333 -2.33301 18 -7s7 -10.667 7 -18v-86v0zM190 700v87c0 7.33301 2.33301 13.333 7 18s10.667 7 18 7h61v62c0 7.33301 2.33301 13.333 7 18
s10.667 7 18 7h86c7.33301 0 13.333 -2.33301 18 -7s7 -10.667 7 -18v-87c0 -7.33301 -2.33301 -13.333 -7 -18s-10.667 -7 -18 -7h-61v-62c0 -6.66699 -2.33301 -12.5 -7 -17.5s-10.667 -7.5 -18 -7.5h-86c-7.33301 0 -13.333 2.5 -18 7.5s-7 10.833 -7 17.5z" />
    <glyph glyph-name="acircumflex" unicode="&#xe2;" horiz-adv-x="666" 
d="M412 456h-234v-320h234v320zM610 25c0 -7.33301 -2.33301 -13.333 -7 -18s-10.667 -7 -18 -7h-432c-7.33301 -0 -13.333 2.33301 -18 7s-7 10.667 -7 18v61h-62c-7.33301 0 -13.333 2.33301 -18 7s-7 10.667 -7 18v370c0 7.33301 2.33301 13.333 7 18s10.667 7 18 7h62
v60c0 7.33301 2.33301 13.333 7 18s10.667 7 18 7h371c7.33301 0 13.333 -2.33301 18 -7s7 -10.667 7 -18v-430h36c7.33301 0 13.333 -2.33301 18 -7s7 -10.667 7 -18v-86v0zM499 703c0 -6.66699 -2.66797 -12 -8.00098 -16s-17.666 -5.33301 -36.999 -4h-76
c-6.66699 0 -12.167 2.33301 -16.5 7s-6.5 10 -6.5 16v65h-42v-65c0 -6 -2.16699 -11.333 -6.5 -16s-9.5 -7 -15.5 -7h-99c-6.66699 0 -12.167 2.33301 -16.5 7s-6.5 9.66699 -6.5 15v88c0 6.66699 2.33301 12.167 7 16.5s10 6.5 16 6.5h76v63
c0 6.66699 2.16699 12.167 6.5 16.5s9.83301 6.5 16.5 6.5h87c6 0 11.167 -2.16699 15.5 -6.5s6.5 -9.83301 6.5 -16.5v-63h76c6.66699 0 12.167 -2.16699 16.5 -6.5s6.5 -9.83301 6.5 -16.5v-90v0z" />
    <glyph glyph-name="atilde" unicode="&#xe3;" horiz-adv-x="666" 
d="M412 456h-234v-320h234v320zM610 25c0 -7.33301 -2.33301 -13.333 -7 -18s-10.667 -7 -18 -7h-432c-7.33301 -0 -13.333 2.33301 -18 7s-7 10.667 -7 18v61h-62c-7.33301 0 -13.333 2.33301 -18 7s-7 10.667 -7 18v370c0 7.33301 2.33301 13.333 7 18s10.667 7 18 7h62
v60c0 7.33301 2.33301 13.333 7 18s10.667 7 18 7h371c7.33301 0 13.333 -2.33301 18 -7s7 -10.667 7 -18v-430h36c7.33301 0 13.333 -2.33301 18 -7s7 -10.667 7 -18v-86v0zM504 757c0 -4 -1.5 -7.66699 -4.5 -11s-6.5 -5 -10.5 -5h-48v-47
c0 -4.66699 -1.5 -8.66699 -4.5 -12s-6.83301 -5 -11.5 -5h-73c-4.66699 0 -8.5 1.66699 -11.5 5s-4.5 7.33301 -4.5 12v47h-47c-4.66699 0 -8.66699 1.66699 -12 5s-5 7 -5 11v48h-39v-48c0 -4 -1.5 -7.66699 -4.5 -11s-7.16699 -5 -12.5 -5h-63
c-5.33301 0 -9.5 1.66699 -12.5 5s-4.5 7 -4.5 11v65c0 4.66699 1.5 8.66699 4.5 12s7.16699 5 12.5 5h46v45c0 5.33301 1.83301 9.5 5.5 12.5s7.5 4.5 11.5 4.5h73c4 0 7.66699 -1.5 11 -4.5s5 -7.16699 5 -12.5v-45h47c5.33301 0 9.33301 -1.66699 12 -5s4 -7.33301 4 -12
v-48h40v48c0 4.66699 1.66699 8.66699 5 12s7.33301 5 12 5h64c4 0 7.5 -1.66699 10.5 -5s4.5 -7.33301 4.5 -12v-65z" />
    <glyph glyph-name="adieresis" unicode="&#xe4;" horiz-adv-x="666" 
d="M412 456h-234v-320h234v320zM610 25c0 -7.33301 -2.33301 -13.333 -7 -18s-10.667 -7 -18 -7h-432c-7.33301 -0 -13.333 2.33301 -18 7s-7 10.667 -7 18v61h-62c-7.33301 0 -13.333 2.33301 -18 7s-7 10.667 -7 18v370c0 7.33301 2.33301 13.333 7 18s10.667 7 18 7h62
v60c0 7.33301 2.33301 13.333 7 18s10.667 7 18 7h371c7.33301 0 13.333 -2.33301 18 -7s7 -10.667 7 -18v-430h36c7.33301 0 13.333 -2.33301 18 -7s7 -10.667 7 -18v-86v0zM170 717c-7.33301 0 -13.333 2.33301 -18 7s-7 10.667 -7 18v86c0 7.33301 2.33301 13.333 7 18
s10.667 7 18 7h87c7.33301 0 13.333 -2.33301 18 -7s7 -10.667 7 -18v-86c0 -7.33301 -2.33301 -13.333 -7 -18s-10.667 -7 -18 -7h-87v0zM397 717c-7.33301 0 -13.333 2.33301 -18 7s-7 10.667 -7 18v86c0 7.33301 2.33301 13.333 7 18s10.667 7 18 7h86
c7.33301 0 13.333 -2.33301 18 -7s7 -10.667 7 -18v-86c0 -7.33301 -2.33301 -13.333 -7 -18s-10.667 -7 -18 -7h-86v0z" />
    <glyph glyph-name="aring" unicode="&#xe5;" horiz-adv-x="666" 
d="M412 456h-234v-320h234v320zM610 25c0 -7.33301 -2.33301 -13.333 -7 -18s-10.667 -7 -18 -7h-432c-7.33301 -0 -13.333 2.33301 -18 7s-7 10.667 -7 18v61h-62c-7.33301 0 -13.333 2.33301 -18 7s-7 10.667 -7 18v370c0 7.33301 2.33301 13.333 7 18s10.667 7 18 7h62
v60c0 7.33301 2.33301 13.333 7 18s10.667 7 18 7h371c7.33301 0 13.333 -2.33301 18 -7s7 -10.667 7 -18v-430h36c7.33301 0 13.333 -2.33301 18 -7s7 -10.667 7 -18v-86v0zM411 625c0 -9.33301 -3.16699 -17.5 -9.5 -24.5s-15.166 -10.5 -26.499 -10.5h-119
c-9.33301 0 -17.5 3.5 -24.5 10.5s-10.5 15.167 -10.5 24.5v123c0 9.33301 3.5 17.333 10.5 24s15.167 10 24.5 10h119c11.333 0 20.166 -3.33301 26.499 -10s9.5 -14.667 9.5 -24v-123v0zM379 722c0 6.66699 -2.16699 12 -6.5 16s-9.5 6 -15.5 6h-78
c-6.66699 0 -12.167 -2 -16.5 -6s-6.5 -9.33301 -6.5 -16v-78c0 -6.66699 2.16699 -12 6.5 -16s9.83301 -6 16.5 -6h78c6 0 11.167 2 15.5 6s6.5 9.33301 6.5 16v78z" />
    <glyph glyph-name="ae" unicode="&#xe6;" horiz-adv-x="952" 
d="M785 455h-234v-93h234v93zM178 134h234v118h-234v-118zM923 24c0 -7.33301 -2.5 -13.333 -7.5 -18s-10.833 -7 -17.5 -7h-372c-6.66699 0 -12.5 2.33301 -17.5 7s-7.5 10.667 -7.5 18v60h-39v-60c0 -7.33301 -2.5 -13.333 -7.5 -18s-10.833 -7 -17.5 -7h-284
c-7.33301 0 -13.333 2.33301 -18 7c-4.66699 6 -7 12 -7 18v60h-62c-6.66699 0 -12.5 2.33301 -17.5 7s-7.5 10.667 -7.5 18v168c0 7.33301 2.5 13.333 7.5 18s10.833 7 17.5 7h62v61c0 7.33301 2.33301 13.333 7 18s10.667 7 18 7h259v66h-347
c-6.66699 0 -12.5 2.33301 -17.5 7s-7.5 10.667 -7.5 18v86c0 7.33301 2.5 13.333 7.5 18s10.833 7 17.5 7h372c6.66699 0 12.5 -2.33301 17.5 -7s7.5 -10.667 7.5 -18v-60h39v60c0 7.33301 2.5 13.333 7.5 18s10.833 7 17.5 7h284c7.33301 0 13.333 -2.33301 18 -7
c4.66699 -6 7 -12 7 -18v-60h62c6.66699 0 12.5 -2.33301 17.5 -7s7.5 -10.667 7.5 -18v-143c0 -7.33301 -2.5 -13.333 -7.5 -18s-10.833 -7 -17.5 -7h-62v-61c0 -7.33301 -2.33301 -13.333 -7 -18s-10.667 -7 -18 -7h-259v-91h347c6.66699 0 12.5 -2.33301 17.5 -7
s7.5 -10.667 7.5 -18v-86v0z" />
    <glyph glyph-name="ccedilla" unicode="&#xe7;" horiz-adv-x="568" 
d="M550 25c0 -7.33301 -2.5 -13.333 -7.5 -18s-10.833 -7 -17.5 -7h-371c-7.33301 -0 -13.5 2.33301 -18.5 7s-7.5 10.667 -7.5 18v61h-62c-7.33301 0 -13.333 2.33301 -18 7s-7 10.667 -7 18v370c0 7.33301 2.33301 13.333 7 18s10.667 7 18 7h62v60
c0 7.33301 2.5 13.333 7.5 18s11.167 7 18.5 7h371c6.66699 0 12.5 -2.33301 17.5 -7s7.5 -10.667 7.5 -18v-85c0 -7.33301 -2.5 -13.333 -7.5 -18s-10.833 -7 -17.5 -7h-346v-320h346c6.66699 0 12.5 -2.33301 17.5 -7s7.5 -10.667 7.5 -18v-86v0zM277 43l90 0.000976562
c6.66699 0 12.167 -2.16699 16.5 -6.5s6.5 -9.83301 6.5 -16.5v-76h63c6.66699 0 12.167 -2.16699 16.5 -6.5s6.5 -9.5 6.5 -15.5v-139c0 -6.66699 -2.16699 -12.167 -6.5 -16.5s-9.83301 -6.5 -16.5 -6.5h-63v-24c0 -6 -2.16699 -11.333 -6.5 -16s-9.83301 -7 -16.5 -7h-88
c-5.33301 0 -10.333 2.16699 -15 6.5s-7 9.83301 -7 16.5v78c0 6 2.33301 11.167 7 15.5s10 6.5 16 6.5h65v63h-65c-6 0 -11.333 2.16699 -16 6.5s-7 9.83301 -7 16.5v76c-1.33301 19.333 0 31.666 4 36.999s9.33301 8 16 8z" />
    <glyph glyph-name="egrave" unicode="&#xe8;" horiz-adv-x="598" 
d="M412 456h-234v-93h234v93zM550 25c0 -7.33301 -2.5 -13.333 -7.5 -18s-10.833 -7 -17.5 -7h-372c-6.66699 -0 -12.5 2.33301 -17.5 7s-7.5 10.667 -7.5 18v61h-62c-7.33301 0 -13.333 2.33301 -18 7s-7 10.667 -7 18v370c0 7.33301 2.33301 13.333 7 18s10.667 7 18 7h62
v60c0 7.33301 2.5 13.333 7.5 18s10.833 7 17.5 7h284c7.33301 0 13.333 -2.33301 18 -7c4.66699 -6 7 -12 7 -18v-60h62c6.66699 0 12.5 -2.33301 17.5 -7s7.5 -10.667 7.5 -18v-143c0 -7.33301 -2.5 -13.333 -7.5 -18s-10.833 -7 -17.5 -7h-62v-61
c0 -7.33301 -2.33301 -13.333 -7 -18s-10.667 -7 -18 -7h-259v-91h347c6.66699 0 12.5 -2.33301 17.5 -7s7.5 -10.667 7.5 -18v-86v0zM397 701c0 -6.66699 -2.33301 -12.5 -7 -17.5s-10.667 -7.5 -18 -7.5h-86c-7.33301 0 -13.333 2.5 -18 7.5s-7 10.833 -7 17.5v62h-61
c-7.33301 0 -13.333 2.33301 -18 7s-7 10.667 -7 18v87c0 7.33301 2.33301 13.333 7 18s10.667 7 18 7h86c7.33301 0 13.333 -2.33301 18 -7s7 -10.667 7 -18v-62h61c7.33301 0 13.333 -2.33301 18 -7s7 -10.667 7 -18v-87v0z" />
    <glyph glyph-name="eacute" unicode="&#xe9;" horiz-adv-x="598" 
d="M412 456h-234v-93h234v93zM550 25c0 -7.33301 -2.5 -13.333 -7.5 -18s-10.833 -7 -17.5 -7h-372c-6.66699 -0 -12.5 2.33301 -17.5 7s-7.5 10.667 -7.5 18v61h-62c-7.33301 0 -13.333 2.33301 -18 7s-7 10.667 -7 18v370c0 7.33301 2.33301 13.333 7 18s10.667 7 18 7h62
v60c0 7.33301 2.5 13.333 7.5 18s10.833 7 17.5 7h284c7.33301 0 13.333 -2.33301 18 -7c4.66699 -6 7 -12 7 -18v-60h62c6.66699 0 12.5 -2.33301 17.5 -7s7.5 -10.667 7.5 -18v-143c0 -7.33301 -2.5 -13.333 -7.5 -18s-10.833 -7 -17.5 -7h-62v-61
c0 -7.33301 -2.33301 -13.333 -7 -18s-10.667 -7 -18 -7h-259v-91h347c6.66699 0 12.5 -2.33301 17.5 -7s7.5 -10.667 7.5 -18v-86v0zM182 703v87c0 7.33301 2.33301 13.333 7 18s10.667 7 18 7h61v62c0 7.33301 2.33301 13.333 7 18s10.667 7 18 7h86
c7.33301 0 13.333 -2.33301 18 -7s7 -10.667 7 -18v-87c0 -7.33301 -2.33301 -13.333 -7 -18s-10.667 -7 -18 -7h-61v-62c0 -6.66699 -2.33301 -12.5 -7 -17.5s-10.667 -7.5 -18 -7.5h-86c-7.33301 0 -13.333 2.5 -18 7.5s-7 10.833 -7 17.5z" />
    <glyph glyph-name="ecircumflex" unicode="&#xea;" horiz-adv-x="598" 
d="M412 456h-234v-93h234v93zM550 25c0 -7.33301 -2.5 -13.333 -7.5 -18s-10.833 -7 -17.5 -7h-372c-6.66699 -0 -12.5 2.33301 -17.5 7s-7.5 10.667 -7.5 18v61h-62c-7.33301 0 -13.333 2.33301 -18 7s-7 10.667 -7 18v370c0 7.33301 2.33301 13.333 7 18s10.667 7 18 7h62
v60c0 7.33301 2.5 13.333 7.5 18s10.833 7 17.5 7h284c7.33301 0 13.333 -2.33301 18 -7c4.66699 -6 7 -12 7 -18v-60h62c6.66699 0 12.5 -2.33301 17.5 -7s7.5 -10.667 7.5 -18v-143c0 -7.33301 -2.5 -13.333 -7.5 -18s-10.833 -7 -17.5 -7h-62v-61
c0 -7.33301 -2.33301 -13.333 -7 -18s-10.667 -7 -18 -7h-259v-91h347c6.66699 0 12.5 -2.33301 17.5 -7s7.5 -10.667 7.5 -18v-86v0zM446 699c0 -6.66699 -2.66797 -12 -8.00098 -16s-17.666 -5.33301 -36.999 -4h-76c-6.66699 0 -12.167 2.33301 -16.5 7s-6.5 10 -6.5 16
v65h-42v-65c0 -6 -2.16699 -11.333 -6.5 -16s-9.5 -7 -15.5 -7h-99c-6.66699 0 -12.167 2.33301 -16.5 7s-6.5 9.66699 -6.5 15v88c0 6.66699 2.33301 12.167 7 16.5s10 6.5 16 6.5h76v63c0 6.66699 2.16699 12.167 6.5 16.5s9.83301 6.5 16.5 6.5h87
c6 0 11.167 -2.16699 15.5 -6.5s6.5 -9.83301 6.5 -16.5v-63h76c6.66699 0 12.167 -2.16699 16.5 -6.5s6.5 -9.83301 6.5 -16.5v-90v0z" />
    <glyph glyph-name="edieresis" unicode="&#xeb;" horiz-adv-x="598" 
d="M412 456h-234v-93h234v93zM550 25c0 -7.33301 -2.5 -13.333 -7.5 -18s-10.833 -7 -17.5 -7h-372c-6.66699 -0 -12.5 2.33301 -17.5 7s-7.5 10.667 -7.5 18v61h-62c-7.33301 0 -13.333 2.33301 -18 7s-7 10.667 -7 18v370c0 7.33301 2.33301 13.333 7 18s10.667 7 18 7h62
v60c0 7.33301 2.5 13.333 7.5 18s10.833 7 17.5 7h284c7.33301 0 13.333 -2.33301 18 -7c4.66699 -6 7 -12 7 -18v-60h62c6.66699 0 12.5 -2.33301 17.5 -7s7.5 -10.667 7.5 -18v-143c0 -7.33301 -2.5 -13.333 -7.5 -18s-10.833 -7 -17.5 -7h-62v-61
c0 -7.33301 -2.33301 -13.333 -7 -18s-10.667 -7 -18 -7h-259v-91h347c6.66699 0 12.5 -2.33301 17.5 -7s7.5 -10.667 7.5 -18v-86v0zM132 713c-7.33301 0 -13.333 2.33301 -18 7s-7 10.667 -7 18v86c0 7.33301 2.33301 13.333 7 18s10.667 7 18 7h87
c7.33301 0 13.333 -2.33301 18 -7s7 -10.667 7 -18v-86c0 -7.33301 -2.33301 -13.333 -7 -18s-10.667 -7 -18 -7h-87v0zM359 713c-7.33301 0 -13.333 2.33301 -18 7s-7 10.667 -7 18v86c0 7.33301 2.33301 13.333 7 18s10.667 7 18 7h86c7.33301 0 13.333 -2.33301 18 -7
s7 -10.667 7 -18v-86c0 -7.33301 -2.33301 -13.333 -7 -18s-10.667 -7 -18 -7h-86v0z" />
    <glyph glyph-name="igrave" unicode="&#xec;" horiz-adv-x="221" 
d="M179 26c0 -7.33301 -2.5 -13.5 -7.5 -18.5s-10.833 -7.5 -17.5 -7.5h-88c-7.33301 0 -13.333 2.5 -18 7.5s-7 11.167 -7 18.5v541c0 7.33301 2.33301 13.333 7 18s10.667 7 18 7h88c6.66699 0 12.5 -2.33301 17.5 -7s7.5 -10.667 7.5 -18v-541v0zM222 700
c0 -6.66699 -2.33301 -12.5 -7 -17.5s-10.667 -7.5 -18 -7.5h-86c-7.33301 0 -13.333 2.5 -18 7.5s-7 10.833 -7 17.5v62h-61c-7.33301 0 -13.333 2.33301 -18 7s-7 10.667 -7 18v87c-0 7.33301 2.33301 13.333 7 18s10.667 7 18 7h86c7.33301 0 13.333 -2.33301 18 -7
s7 -10.667 7 -18v-62h61c7.33301 0 13.333 -2.33301 18 -7s7 -10.667 7 -18v-87v0z" />
    <glyph glyph-name="iacute" unicode="&#xed;" horiz-adv-x="221" 
d="M179 26c0 -7.33301 -2.5 -13.5 -7.5 -18.5s-10.833 -7.5 -17.5 -7.5h-88c-7.33301 0 -13.333 2.5 -18 7.5s-7 11.167 -7 18.5v541c0 7.33301 2.33301 13.333 7 18s10.667 7 18 7h88c6.66699 0 12.5 -2.33301 17.5 -7s7.5 -10.667 7.5 -18v-541v0zM1 702v87
c0 7.33301 2.33301 13.333 7 18s10.667 7 18 7h61v62c0 7.33301 2.33301 13.333 7 18s10.667 7 18 7h86c7.33301 0 13.333 -2.33301 18 -7s7 -10.667 7 -18v-87c0 -7.33301 -2.33301 -13.333 -7 -18s-10.667 -7 -18 -7h-61v-62c0 -6.66699 -2.33301 -12.5 -7 -17.5
s-10.667 -7.5 -18 -7.5h-86c-7.33301 0 -13.333 2.5 -18 7.5s-7 10.833 -7 17.5z" />
    <glyph glyph-name="icircumflex" unicode="&#xee;" horiz-adv-x="221" 
d="M179 26c0 -7.33301 -2.5 -13.5 -7.5 -18.5s-10.833 -7.5 -17.5 -7.5h-88c-7.33301 0 -13.333 2.5 -18 7.5s-7 11.167 -7 18.5v541c0 7.33301 2.33301 13.333 7 18s10.667 7 18 7h88c6.66699 0 12.5 -2.33301 17.5 -7s7.5 -10.667 7.5 -18v-541v0zM273 700
c0 -6.66699 -2.66797 -12 -8.00098 -16s-17.666 -5.33301 -36.999 -4h-76c-6.66699 0 -12.167 2.33301 -16.5 7s-6.5 10 -6.5 16v65h-42v-65c0 -6 -2.16699 -11.333 -6.5 -16s-9.5 -7 -15.5 -7h-99c-6.66699 0 -12.167 2.33301 -16.5 7s-6.5 9.66699 -6.5 15v88
c0 6.66699 2.33301 12.167 7 16.5s10 6.5 16 6.5h76v63c0 6.66699 2.16699 12.167 6.5 16.5s9.83301 6.5 16.5 6.5h87c6 0 11.167 -2.16699 15.5 -6.5s6.5 -9.83301 6.5 -16.5v-63h76c6.66699 0 12.167 -2.16699 16.5 -6.5s6.5 -9.83301 6.5 -16.5v-90v0z" />
    <glyph glyph-name="idieresis" unicode="&#xef;" horiz-adv-x="221" 
d="M179 26c0 -7.33301 -2.5 -13.5 -7.5 -18.5s-10.833 -7.5 -17.5 -7.5h-88c-7.33301 0 -13.333 2.5 -18 7.5s-7 11.167 -7 18.5v541c0 7.33301 2.33301 13.333 7 18s10.667 7 18 7h88c6.66699 0 12.5 -2.33301 17.5 -7s7.5 -10.667 7.5 -18v-541v0zM-45 716
c-7.33301 0 -13.333 2.33301 -18 7s-7 10.667 -7 18v86c0 7.33301 2.33301 13.333 7 18s10.667 7 18 7h87c7.33301 0 13.333 -2.33301 18 -7s7 -10.667 7 -18v-86c0 -7.33301 -2.33301 -13.333 -7 -18s-10.667 -7 -18 -7h-87v0zM182 716c-7.33301 0 -13.333 2.33301 -18 7
s-7 10.667 -7 18v86c0 7.33301 2.33301 13.333 7 18s10.667 7 18 7h86c7.33301 0 13.333 -2.33301 18 -7s7 -10.667 7 -18v-86c0 -7.33301 -2.33301 -13.333 -7 -18s-10.667 -7 -18 -7h-86v0z" />
    <glyph glyph-name="eth" unicode="&#xf0;" 
d="M412 352h-234v-216h234v216zM547 111c0 -7.33301 -2.50098 -13.333 -7.50098 -18s-11.167 -7 -18.5 -7h-59v-61c0 -7.33301 -2.33301 -13.333 -7 -18s-10.667 -7 -18 -7h-284c-7.33301 -0 -13.333 2.33301 -18 7s-7 10.667 -7 18v61h-62
c-7.33301 0 -13.333 2.33301 -18 7s-7 10.667 -7 18v266c0 7.33301 2.33301 13.333 7 18s10.667 7 18 7h62v60c0 7.33301 2.33301 13.333 7 18s10.667 7 18 7h174v116h-65c-6.66699 0 -12.167 2.16699 -16.5 6.5s-6.5 9.83301 -6.5 16.5v140c0 6.66699 2.16699 12 6.5 16
s9.83301 6 16.5 6h86c6.66699 0 12.334 -2 17.001 -6s7 -9.33301 7 -16v-118h65c6 0 11.333 -2.16699 16 -6.5s7 -9.5 7 -15.5v-140h65c6 0 11.167 -2.16699 15.5 -6.5s6.5 -9.83301 6.5 -16.5v-352v0z" />
    <glyph glyph-name="ntilde" unicode="&#xf1;" horiz-adv-x="583" 
d="M549 25c0 -7.33301 -2.33301 -13.333 -7 -18s-10.667 -7 -18 -7h-87c-7.33301 -0 -13.333 2.33301 -18 7s-7 10.667 -7 18v431h-234v-431c0 -7.33301 -2.33301 -13.333 -7 -18s-10.667 -7 -18 -7h-87c-7.33301 -0 -13.333 2.33301 -18 7s-7 10.667 -7 18v541
c0 7.33301 2.33301 13.333 7 18s10.667 7 18 7h371c7.33301 0 13.333 -2.33301 18 -7s7 -10.667 7 -18v-60h62c7.33301 0 13.333 -2.33301 18 -7s7 -10.667 7 -18v-456v0zM464 757c0 -4 -1.5 -7.66699 -4.5 -11s-6.5 -5 -10.5 -5h-48v-47c0 -4.66699 -1.5 -8.66699 -4.5 -12
s-6.83301 -5 -11.5 -5h-73c-4.66699 0 -8.5 1.66699 -11.5 5s-4.5 7.33301 -4.5 12v47h-47c-4.66699 0 -8.66699 1.66699 -12 5s-5 7 -5 11v48h-39v-48c0 -4 -1.5 -7.66699 -4.5 -11s-7.16699 -5 -12.5 -5h-63c-5.33301 0 -9.5 1.66699 -12.5 5s-4.5 7 -4.5 11v65
c0 4.66699 1.5 8.66699 4.5 12s7.16699 5 12.5 5h46v45c0 5.33301 1.83301 9.5 5.5 12.5s7.5 4.5 11.5 4.5h73c4 0 7.66699 -1.5 11 -4.5s5 -7.16699 5 -12.5v-45h47c5.33301 0 9.33301 -1.66699 12 -5s4 -7.33301 4 -12v-48h40v48c0 4.66699 1.66699 8.66699 5 12
s7.33301 5 12 5h64c4 0 7.5 -1.66699 10.5 -5s4.5 -7.33301 4.5 -12v-65z" />
    <glyph glyph-name="ograve" unicode="&#xf2;" 
d="M412 456h-234v-320h234v320zM550 111c0 -7.33301 -2.5 -13.333 -7.5 -18s-11.167 -7 -18.5 -7h-62v-61c0 -7.33301 -2.33301 -13.333 -7 -18s-10.667 -7 -18 -7h-284c-7.33301 -0 -13.333 2.33301 -18 7s-7 10.667 -7 18v61h-62c-7.33301 0 -13.333 2.33301 -18 7
s-7 10.667 -7 18v370c0 7.33301 2.33301 13.333 7 18s10.667 7 18 7h62v60c0 7.33301 2.33301 13.333 7 18s10.667 7 18 7h284c7.33301 0 13.333 -2.33301 18 -7s7 -10.667 7 -18v-60h62c7.33301 0 13.5 -2.33301 18.5 -7s7.5 -10.667 7.5 -18v-370v0zM410 700
c0 -6.66699 -2.33301 -12.5 -7 -17.5s-10.667 -7.5 -18 -7.5h-86c-7.33301 0 -13.333 2.5 -18 7.5s-7 10.833 -7 17.5v62h-61c-7.33301 0 -13.333 2.33301 -18 7s-7 10.667 -7 18v87c0 7.33301 2.33301 13.333 7 18s10.667 7 18 7h86c7.33301 0 13.333 -2.33301 18 -7
s7 -10.667 7 -18v-62h61c7.33301 0 13.333 -2.33301 18 -7s7 -10.667 7 -18v-87v0z" />
    <glyph glyph-name="oacute" unicode="&#xf3;" 
d="M412 456h-234v-320h234v320zM550 111c0 -7.33301 -2.5 -13.333 -7.5 -18s-11.167 -7 -18.5 -7h-62v-61c0 -7.33301 -2.33301 -13.333 -7 -18s-10.667 -7 -18 -7h-284c-7.33301 -0 -13.333 2.33301 -18 7s-7 10.667 -7 18v61h-62c-7.33301 0 -13.333 2.33301 -18 7
s-7 10.667 -7 18v370c0 7.33301 2.33301 13.333 7 18s10.667 7 18 7h62v60c0 7.33301 2.33301 13.333 7 18s10.667 7 18 7h284c7.33301 0 13.333 -2.33301 18 -7s7 -10.667 7 -18v-60h62c7.33301 0 13.5 -2.33301 18.5 -7s7.5 -10.667 7.5 -18v-370v0zM186 701v87
c0 7.33301 2.33301 13.333 7 18s10.667 7 18 7h61v62c0 7.33301 2.33301 13.333 7 18s10.667 7 18 7h86c7.33301 0 13.333 -2.33301 18 -7s7 -10.667 7 -18v-87c0 -7.33301 -2.33301 -13.333 -7 -18s-10.667 -7 -18 -7h-61v-62c0 -6.66699 -2.33301 -12.5 -7 -17.5
s-10.667 -7.5 -18 -7.5h-86c-7.33301 0 -13.333 2.5 -18 7.5s-7 10.833 -7 17.5z" />
    <glyph glyph-name="ocircumflex" unicode="&#xf4;" 
d="M412 456h-234v-320h234v320zM550 111c0 -7.33301 -2.5 -13.333 -7.5 -18s-11.167 -7 -18.5 -7h-62v-61c0 -7.33301 -2.33301 -13.333 -7 -18s-10.667 -7 -18 -7h-284c-7.33301 -0 -13.333 2.33301 -18 7s-7 10.667 -7 18v61h-62c-7.33301 0 -13.333 2.33301 -18 7
s-7 10.667 -7 18v370c0 7.33301 2.33301 13.333 7 18s10.667 7 18 7h62v60c0 7.33301 2.33301 13.333 7 18s10.667 7 18 7h284c7.33301 0 13.333 -2.33301 18 -7s7 -10.667 7 -18v-60h62c7.33301 0 13.5 -2.33301 18.5 -7s7.5 -10.667 7.5 -18v-370v0zM463 701
c0 -6.66699 -2.66797 -12 -8.00098 -16s-17.666 -5.33301 -36.999 -4h-76c-6.66699 0 -12.167 2.33301 -16.5 7s-6.5 10 -6.5 16v65h-42v-65c0 -6 -2.16699 -11.333 -6.5 -16s-9.5 -7 -15.5 -7h-99c-6.66699 0 -12.167 2.33301 -16.5 7s-6.5 9.66699 -6.5 15v88
c0 6.66699 2.33301 12.167 7 16.5s10 6.5 16 6.5h76v63c0 6.66699 2.16699 12.167 6.5 16.5s9.83301 6.5 16.5 6.5h87c6 0 11.167 -2.16699 15.5 -6.5s6.5 -9.83301 6.5 -16.5v-63h76c6.66699 0 12.167 -2.16699 16.5 -6.5s6.5 -9.83301 6.5 -16.5v-90v0z" />
    <glyph glyph-name="otilde" unicode="&#xf5;" 
d="M412 456h-234v-320h234v320zM550 111c0 -7.33301 -2.5 -13.333 -7.5 -18s-11.167 -7 -18.5 -7h-62v-61c0 -7.33301 -2.33301 -13.333 -7 -18s-10.667 -7 -18 -7h-284c-7.33301 -0 -13.333 2.33301 -18 7s-7 10.667 -7 18v61h-62c-7.33301 0 -13.333 2.33301 -18 7
s-7 10.667 -7 18v370c0 7.33301 2.33301 13.333 7 18s10.667 7 18 7h62v60c0 7.33301 2.33301 13.333 7 18s10.667 7 18 7h284c7.33301 0 13.333 -2.33301 18 -7s7 -10.667 7 -18v-60h62c7.33301 0 13.5 -2.33301 18.5 -7s7.5 -10.667 7.5 -18v-370v0zM481 756
c0 -4 -1.5 -7.66699 -4.5 -11s-6.5 -5 -10.5 -5h-48v-47c0 -4.66699 -1.5 -8.66699 -4.5 -12s-6.83301 -5 -11.5 -5h-73c-4.66699 0 -8.5 1.66699 -11.5 5s-4.5 7.33301 -4.5 12v47h-47c-4.66699 0 -8.66699 1.66699 -12 5s-5 7 -5 11v48h-39v-48
c0 -4 -1.5 -7.66699 -4.5 -11s-7.16699 -5 -12.5 -5h-63c-5.33301 0 -9.5 1.66699 -12.5 5s-4.5 7 -4.5 11v65c0 4.66699 1.5 8.66699 4.5 12s7.16699 5 12.5 5h46v45c0 5.33301 1.83301 9.5 5.5 12.5s7.5 4.5 11.5 4.5h73c4 0 7.66699 -1.5 11 -4.5s5 -7.16699 5 -12.5v-45
h47c5.33301 0 9.33301 -1.66699 12 -5s4 -7.33301 4 -12v-48h40v48c0 4.66699 1.66699 8.66699 5 12s7.33301 5 12 5h64c4 0 7.5 -1.66699 10.5 -5s4.5 -7.33301 4.5 -12v-65z" />
    <glyph glyph-name="odieresis" unicode="&#xf6;" 
d="M412 456h-234v-320h234v320zM550 111c0 -7.33301 -2.5 -13.333 -7.5 -18s-11.167 -7 -18.5 -7h-62v-61c0 -7.33301 -2.33301 -13.333 -7 -18s-10.667 -7 -18 -7h-284c-7.33301 -0 -13.333 2.33301 -18 7s-7 10.667 -7 18v61h-62c-7.33301 0 -13.333 2.33301 -18 7
s-7 10.667 -7 18v370c0 7.33301 2.33301 13.333 7 18s10.667 7 18 7h62v60c0 7.33301 2.33301 13.333 7 18s10.667 7 18 7h284c7.33301 0 13.333 -2.33301 18 -7s7 -10.667 7 -18v-60h62c7.33301 0 13.5 -2.33301 18.5 -7s7.5 -10.667 7.5 -18v-370v0zM140 715
c-7.33301 0 -13.333 2.33301 -18 7s-7 10.667 -7 18v86c0 7.33301 2.33301 13.333 7 18s10.667 7 18 7h87c7.33301 0 13.333 -2.33301 18 -7s7 -10.667 7 -18v-86c0 -7.33301 -2.33301 -13.333 -7 -18s-10.667 -7 -18 -7h-87v0zM367 715c-7.33301 0 -13.333 2.33301 -18 7
s-7 10.667 -7 18v86c0 7.33301 2.33301 13.333 7 18s10.667 7 18 7h86c7.33301 0 13.333 -2.33301 18 -7s7 -10.667 7 -18v-86c0 -7.33301 -2.33301 -13.333 -7 -18s-10.667 -7 -18 -7h-86v0z" />
    <glyph glyph-name="divide" unicode="&#xf7;" horiz-adv-x="463" 
d="M295 54c0 -7.33301 -2.33301 -13.333 -7 -18s-10.667 -7 -18 -7h-86c-7.33301 0 -13.333 2.33301 -18 7s-7 10.667 -7 18v87c0 7.33301 2.33301 13.333 7 18s10.667 7 18 7h86c7.33301 0 13.333 -2.33301 18 -7s7 -10.667 7 -18v-87v0zM295 422
c0 -7.33301 -2.33301 -13.333 -7 -18s-10.667 -7 -18 -7h-86c-7.33301 0 -13.333 2.33301 -18 7s-7 10.667 -7 18v86c0 7.33301 2.33301 13.333 7 18s10.667 7 18 7h86c7.33301 0 13.333 -2.33301 18 -7s7 -10.667 7 -18v-86v0zM420 238c0 -7.33301 -2.33301 -13.333 -7 -18
s-10.667 -7 -18 -7h-326c-7.33301 0 -13.333 2.33301 -18 7s-7 10.667 -7 18v87c0 7.33301 2.33301 13.333 7 18s10.667 7 18 7h326c7.33301 0 13.333 -2.33301 18 -7s7 -10.667 7 -18v-87v0z" />
    <glyph glyph-name="oslash" unicode="&#xf8;" 
d="M178 136h6v158c0 6.66699 2.16699 12.167 6.5 16.5s9.5 6.5 15.5 6.5h65v139h-93v-320zM412 456h-9l1 -1v-161c0 -6 -2.16699 -11.167 -6.5 -15.5s-9.5 -6.5 -15.5 -6.5h-65v-136h95v320zM550 111c0 -7.33301 -2.5 -13.333 -7.5 -18s-11.167 -7 -18.5 -7h-62v-61
c0 -7.33301 -2.33301 -13.333 -7 -18s-10.667 -7 -18 -7h-284c-7.33301 -0 -13.333 2.33301 -18 7s-7 10.667 -7 18v61h-62c-7.33301 0 -13.333 2.33301 -18 7s-7 10.667 -7 18v370c0 7.33301 2.33301 13.333 7 18s10.667 7 18 7h62v60c0 7.33301 2.33301 13.333 7 18
s10.667 7 18 7h284c7.33301 0 13.333 -2.33301 18 -7s7 -10.667 7 -18v-60h62c7.33301 0 13.5 -2.33301 18.5 -7s7.5 -10.667 7.5 -18v-370v0z" />
    <glyph glyph-name="ugrave" unicode="&#xf9;" 
d="M550 111c0 -7.33301 -2.33301 -13.333 -7 -18s-10.667 -7 -18 -7h-63v-61c0 -7.33301 -2.33301 -13.333 -7 -18s-10.667 -7 -18 -7h-283c-7.33301 -0 -13.333 2.33301 -18 7s-7 10.667 -7 18v61h-63c-7.33301 0 -13 2.33301 -17 7c-5.33301 5.33301 -8 11.333 -8 18v455
c0 7.33301 2.33301 13.333 7 18s10.667 7 18 7h88c6.66699 0 12.5 -2.33301 17.5 -7s7.5 -10.667 7.5 -18v-430h233v430c0 7.33301 2.5 13.333 7.5 18s10.833 7 17.5 7h88c7.33301 0 13.333 -2.33301 18 -7s7 -10.667 7 -18v-455v0zM405 700
c0 -6.66699 -2.33301 -12.5 -7 -17.5s-10.667 -7.5 -18 -7.5h-86c-7.33301 0 -13.333 2.5 -18 7.5s-7 10.833 -7 17.5v62h-61c-7.33301 0 -13.333 2.33301 -18 7s-7 10.667 -7 18v87c0 7.33301 2.33301 13.333 7 18s10.667 7 18 7h86c7.33301 0 13.333 -2.33301 18 -7
s7 -10.667 7 -18v-62h61c7.33301 0 13.333 -2.33301 18 -7s7 -10.667 7 -18v-87v0z" />
    <glyph glyph-name="uacute" unicode="&#xfa;" 
d="M550 111c0 -7.33301 -2.33301 -13.333 -7 -18s-10.667 -7 -18 -7h-63v-61c0 -7.33301 -2.33301 -13.333 -7 -18s-10.667 -7 -18 -7h-283c-7.33301 -0 -13.333 2.33301 -18 7s-7 10.667 -7 18v61h-63c-7.33301 0 -13 2.33301 -17 7c-5.33301 5.33301 -8 11.333 -8 18v455
c0 7.33301 2.33301 13.333 7 18s10.667 7 18 7h88c6.66699 0 12.5 -2.33301 17.5 -7s7.5 -10.667 7.5 -18v-430h233v430c0 7.33301 2.5 13.333 7.5 18s10.833 7 17.5 7h88c7.33301 0 13.333 -2.33301 18 -7s7 -10.667 7 -18v-455v0zM179 701v87
c0 7.33301 2.33301 13.333 7 18s10.667 7 18 7h61v62c0 7.33301 2.33301 13.333 7 18s10.667 7 18 7h86c7.33301 0 13.333 -2.33301 18 -7s7 -10.667 7 -18v-87c0 -7.33301 -2.33301 -13.333 -7 -18s-10.667 -7 -18 -7h-61v-62c0 -6.66699 -2.33301 -12.5 -7 -17.5
s-10.667 -7.5 -18 -7.5h-86c-7.33301 0 -13.333 2.5 -18 7.5s-7 10.833 -7 17.5z" />
    <glyph glyph-name="ucircumflex" unicode="&#xfb;" 
d="M550 111c0 -7.33301 -2.33301 -13.333 -7 -18s-10.667 -7 -18 -7h-63v-61c0 -7.33301 -2.33301 -13.333 -7 -18s-10.667 -7 -18 -7h-283c-7.33301 -0 -13.333 2.33301 -18 7s-7 10.667 -7 18v61h-63c-7.33301 0 -13 2.33301 -17 7c-5.33301 5.33301 -8 11.333 -8 18v455
c0 7.33301 2.33301 13.333 7 18s10.667 7 18 7h88c6.66699 0 12.5 -2.33301 17.5 -7s7.5 -10.667 7.5 -18v-430h233v430c0 7.33301 2.5 13.333 7.5 18s10.833 7 17.5 7h88c7.33301 0 13.333 -2.33301 18 -7s7 -10.667 7 -18v-455v0zM452 701
c0 -6.66699 -2.66797 -12 -8.00098 -16s-17.666 -5.33301 -36.999 -4h-76c-6.66699 0 -12.167 2.33301 -16.5 7s-6.5 10 -6.5 16v65h-42v-65c0 -6 -2.16699 -11.333 -6.5 -16s-9.5 -7 -15.5 -7h-99c-6.66699 0 -12.167 2.33301 -16.5 7s-6.5 9.66699 -6.5 15v88
c0 6.66699 2.33301 12.167 7 16.5s10 6.5 16 6.5h76v63c0 6.66699 2.16699 12.167 6.5 16.5s9.83301 6.5 16.5 6.5h87c6 0 11.167 -2.16699 15.5 -6.5s6.5 -9.83301 6.5 -16.5v-63h76c6.66699 0 12.167 -2.16699 16.5 -6.5s6.5 -9.83301 6.5 -16.5v-90v0z" />
    <glyph glyph-name="udieresis" unicode="&#xfc;" 
d="M550 111c0 -7.33301 -2.33301 -13.333 -7 -18s-10.667 -7 -18 -7h-63v-61c0 -7.33301 -2.33301 -13.333 -7 -18s-10.667 -7 -18 -7h-283c-7.33301 -0 -13.333 2.33301 -18 7s-7 10.667 -7 18v61h-63c-7.33301 0 -13 2.33301 -17 7c-5.33301 5.33301 -8 11.333 -8 18v455
c0 7.33301 2.33301 13.333 7 18s10.667 7 18 7h88c6.66699 0 12.5 -2.33301 17.5 -7s7.5 -10.667 7.5 -18v-430h233v430c0 7.33301 2.5 13.333 7.5 18s10.833 7 17.5 7h88c7.33301 0 13.333 -2.33301 18 -7s7 -10.667 7 -18v-455v0zM136 713
c-7.33301 0 -13.333 2.33301 -18 7s-7 10.667 -7 18v86c0 7.33301 2.33301 13.333 7 18s10.667 7 18 7h87c7.33301 0 13.333 -2.33301 18 -7s7 -10.667 7 -18v-86c0 -7.33301 -2.33301 -13.333 -7 -18s-10.667 -7 -18 -7h-87v0zM363 713c-7.33301 0 -13.333 2.33301 -18 7
s-7 10.667 -7 18v86c0 7.33301 2.33301 13.333 7 18s10.667 7 18 7h86c7.33301 0 13.333 -2.33301 18 -7s7 -10.667 7 -18v-86c0 -7.33301 -2.33301 -13.333 -7 -18s-10.667 -7 -18 -7h-86v0z" />
    <glyph glyph-name="yacute" unicode="&#xfd;" horiz-adv-x="610" 
d="M550 -106c0 -7.33301 -2.5 -13.333 -7.5 -18s-11.167 -7 -18.5 -7h-62v-61c0 -7.33301 -2.33301 -13.333 -7 -18s-10.667 -7 -18 -7h-284c-6.66699 0 -12.5 2.33301 -17.5 7s-7.5 10.667 -7.5 18v86c0 7.33301 2.33301 13.333 7 18s10.667 7 18 7h259v82h-259
c-6.66699 0 -12.5 2.33301 -17.5 7s-7.5 10.667 -7.5 18v60h-62c-7.33301 0 -13.333 2.33301 -18 7s-7 10.667 -7 18v455c0 7.33301 2.33301 13.333 7 18s10.667 7 18 7h87c7.33301 0 13.5 -2.33301 18.5 -7s7.5 -10.667 7.5 -18v-430h233v430
c0 7.33301 2.33301 13.333 7 18s10.667 7 18 7h87c7.33301 0 13.5 -2.33301 18.5 -7s7.5 -10.667 7.5 -18v-672v0zM185 700v87c0 7.33301 2.33301 13.333 7 18s10.667 7 18 7h61v62c0 7.33301 2.33301 13.333 7 18s10.667 7 18 7h86c7.33301 0 13.333 -2.33301 18 -7
s7 -10.667 7 -18v-87c0 -7.33301 -2.33301 -13.333 -7 -18s-10.667 -7 -18 -7h-61v-62c0 -6.66699 -2.33301 -12.5 -7 -17.5s-10.667 -7.5 -18 -7.5h-86c-7.33301 0 -13.333 2.5 -18 7.5s-7 10.833 -7 17.5z" />
    <glyph glyph-name="thorn" unicode="&#xfe;" 
d="M181 218c0 -2.66699 -0.666992 -6 -2 -10v-72h233v320h-231v-238v0zM550 111c0 -6.66699 -2.66699 -12.667 -8 -18c-4 -4.66699 -9.66699 -7 -17 -7h-63v-61c0 -7.33301 -2.33301 -13.333 -7 -18s-10.667 -7 -18 -7h-258v-192c0 -7.33301 -2.5 -13.333 -7.5 -18
s-10.833 -7 -17.5 -7h-88c-7.33301 0 -13.333 2.33301 -18 7s-7 10.667 -7 18v951c0 7.33301 2.33301 13.333 7 18s10.667 7 18 7h88c6.66699 0 12.5 -2.33301 17.5 -7s7.5 -10.667 7.5 -18l2 -168h256c7.33301 0 13.333 -2.33301 18 -7s7 -10.667 7 -18v-60h62
c7.33301 0 13.333 -2.33301 18 -7s7 -10.667 7 -18l1 -370v0z" />
    <glyph glyph-name="ydieresis" unicode="&#xff;" horiz-adv-x="610" 
d="M550 -106c0 -7.33301 -2.5 -13.333 -7.5 -18s-11.167 -7 -18.5 -7h-62v-61c0 -7.33301 -2.33301 -13.333 -7 -18s-10.667 -7 -18 -7h-284c-6.66699 0 -12.5 2.33301 -17.5 7s-7.5 10.667 -7.5 18v86c0 7.33301 2.33301 13.333 7 18s10.667 7 18 7h259v82h-259
c-6.66699 0 -12.5 2.33301 -17.5 7s-7.5 10.667 -7.5 18v60h-62c-7.33301 0 -13.333 2.33301 -18 7s-7 10.667 -7 18v455c0 7.33301 2.33301 13.333 7 18s10.667 7 18 7h87c7.33301 0 13.5 -2.33301 18.5 -7s7.5 -10.667 7.5 -18v-430h233v430
c0 7.33301 2.33301 13.333 7 18s10.667 7 18 7h87c7.33301 0 13.5 -2.33301 18.5 -7s7.5 -10.667 7.5 -18v-672v0zM139 711c-7.33301 0 -13.333 2.33301 -18 7s-7 10.667 -7 18v86c0 7.33301 2.33301 13.333 7 18s10.667 7 18 7h87c7.33301 0 13.333 -2.33301 18 -7
s7 -10.667 7 -18v-86c0 -7.33301 -2.33301 -13.333 -7 -18s-10.667 -7 -18 -7h-87v0zM366 711c-7.33301 0 -13.333 2.33301 -18 7s-7 10.667 -7 18v86c0 7.33301 2.33301 13.333 7 18s10.667 7 18 7h86c7.33301 0 13.333 -2.33301 18 -7s7 -10.667 7 -18v-86
c0 -7.33301 -2.33301 -13.333 -7 -18s-10.667 -7 -18 -7h-86v0z" />
    <glyph glyph-name="OE" unicode="&#x152;" horiz-adv-x="1313" 
d="M608 647h-431v-509h431v509zM1276 26c0 -7.33301 -2.50098 -13.335 -7.50098 -18.002s-10.833 -7 -17.5 -7h-1099c-7.33301 0 -13.333 2.33301 -18 7s-7 10.667 -7 18v62h-61c-7.33301 0 -13.333 2.33301 -18 7s-7 10.667 -7 18v559c0 7.33301 2.33301 13.333 7 18
s10.667 7 18 7h61v61c0 7.33301 2.33301 13.333 7 18s10.667 7 18 7h1099c6.66699 0 12.5 -2.33301 17.5 -7s7.5 -10.667 7.5 -18v-86c0 -7.33301 -2.5 -13.333 -7.5 -18s-10.833 -7 -17.5 -7h-507v-187h393c7.33301 0 13.333 -2.33301 18 -7s7 -10.667 7 -18v-86
c0 -6.66699 -2.33301 -12.5 -7 -17.5s-10.667 -7.5 -18 -7.5h-393v-186h507c6.66699 0 12.5 -2.33301 17.5 -7s7.5 -10.667 7.5 -18c0 -4 -0.166992 -8.16699 -0.5 -12.5s-0.666016 -9.66602 -0.999023 -15.999s-0.5 -14.166 -0.5 -23.499s0.666992 -21 2 -35z" />
    <glyph glyph-name="oe" unicode="&#x153;" horiz-adv-x="955" 
d="M783 455h-233v-93h233v93zM412 456h-234v-320h234v320zM921 24c0 -7.33301 -2.5 -13.333 -7.5 -18s-10.833 -7 -17.5 -7h-372c-6.66699 0 -12.5 2.33301 -17.5 7s-7.5 10.667 -7.5 18v61h-37v-60c0 -7.33301 -2.33301 -13.333 -7 -18s-10.667 -7 -18 -7h-284
c-7.33301 -0 -13.333 2.33301 -18 7s-7 10.667 -7 18v61h-62c-7.33301 0 -13.333 2.33301 -18 7s-7 10.667 -7 18v370c0 7.33301 2.33301 13.333 7 18s10.667 7 18 7h62v60c0 7.33301 2.33301 13.333 7 18s10.667 7 18 7h284c7.33301 0 13.333 -2.33301 18 -7
s7 -10.667 7 -18v-60h37v59c0 7.33301 2.5 13.333 7.5 18s10.833 7 17.5 7h284c7.33301 0 13.333 -2.33301 18 -7c4.66699 -6 7 -12 7 -18v-60h62c6.66699 0 12.5 -2.33301 17.5 -7s7.5 -10.667 7.5 -18v-143c0 -7.33301 -2.5 -13.333 -7.5 -18s-10.833 -7 -17.5 -7h-62v-61
c0 -7.33301 -2.33301 -13.333 -7 -18s-10.667 -7 -18 -7h-258v-91h346c6.66699 0 12.5 -2.33301 17.5 -7s7.5 -10.667 7.5 -18v-86v0z" />
    <glyph glyph-name="Scaron" unicode="&#x160;" horiz-adv-x="759" 
d="M726 113c0 -7.33301 -2.33301 -13.333 -7 -18s-10.667 -7 -18 -7h-60v-62c0 -7.33301 -2.5 -13.333 -7.5 -18s-11.167 -7 -18.5 -7h-463c-7.33301 0 -13.333 2.33301 -18 7s-7 10.667 -7 18v87c0 7.33301 2.33301 13.333 7 18s10.667 7 18 7h438v186h-438
c-7.33301 0 -13.333 2.5 -18 7.5s-7 10.833 -7 17.5v61h-61c-7.33301 0 -13.333 2.33301 -18 7s-7 10.667 -7 18v237c0 7.33301 2.33301 13.333 7 18s10.667 7 18 7h61v61c0 7.33301 2.33301 13.333 7 18s10.667 7 18 7h549c7.33301 0 13.333 -2.33301 18 -7
s7 -10.667 7 -18v-86c0 -7.33301 -2.33301 -13.333 -7 -18s-10.667 -7 -18 -7h-524v-187h438c7.33301 0 13.5 -2.33301 18.5 -7s7.5 -10.667 7.5 -18v-60h60c7.33301 0 13.333 -2.5 18 -7.5s7 -11.167 7 -18.5v-236v0zM572 984l0.000976562 -90
c0 -6.66699 -2.16699 -12.167 -6.5 -16.5s-9.83301 -6.5 -16.5 -6.5h-76v-63c0 -6.66699 -2.16699 -12.167 -6.5 -16.5s-9.5 -6.5 -15.5 -6.5h-87c-6.66699 0 -12.167 2.16699 -16.5 6.5s-6.5 9.83301 -6.5 16.5v63h-76c-6 0 -11.333 2.16699 -16 6.5s-7 9.83301 -7 16.5v88
c0 5.33301 2.16699 10.333 6.5 15s9.83301 7 16.5 7h99c6 0 11.167 -2.33301 15.5 -7s6.5 -10 6.5 -16v-65h42v65c0 6 2.16699 11.333 6.5 16s9.83301 7 16.5 7h76c19.333 1.33301 31.666 0 36.999 -4s8 -9.33301 8 -16z" />
    <glyph glyph-name="scaron" unicode="&#x161;" horiz-adv-x="599" 
d="M550 111c0 -7.33301 -2.50098 -13.333 -7.50098 -18s-10.833 -7 -17.5 -7h-63v-61c0 -7.33301 -2.33301 -13.333 -7 -18s-10.667 -7 -18 -7h-371c-7.33301 -0 -13.333 2.33301 -18 7s-7 10.667 -7 18v86c0 7.33301 2.33301 13.333 7 18s10.667 7 18 7h346v91h-258
c-7.33301 0 -13.5 2.33301 -18.5 7s-7.5 10.667 -7.5 18v60h-62c-7.33301 0 -13.333 2.5 -18 7.5s-7 10.833 -7 17.5v144c0 6 2.33301 12 7 18c6 4.66699 12 7 18 7h62v60c0 6.66699 2.66699 12.667 8 18c4.66699 4.66699 10.334 7 17.001 7h372
c6.66699 0 12.5 -2.33301 17.5 -7s7.5 -10.667 7.5 -18v-85c0 -7.33301 -2.5 -13.333 -7.5 -18s-10.833 -7 -17.5 -7h-346v-93h258c7.33301 0 13.333 -2.5 18 -7.5s7 -11.167 7 -18.5v-60h63c6.66699 0 12.5 -2.5 17.5 -7.5s7.5 -10.833 7.5 -17.5v-141v0zM463.999 787
l0.000976562 -90c0 -6.66699 -2.16699 -12.167 -6.5 -16.5s-9.83301 -6.5 -16.5 -6.5h-76v-63c0 -6.66699 -2.16699 -12.167 -6.5 -16.5s-9.5 -6.5 -15.5 -6.5h-87c-6.66699 0 -12.167 2.16699 -16.5 6.5s-6.5 9.83301 -6.5 16.5v63h-76c-6 0 -11.333 2.16699 -16 6.5
s-7 9.83301 -7 16.5v88c0 5.33301 2.16699 10.333 6.5 15s9.83301 7 16.5 7h99c6 0 11.167 -2.33301 15.5 -7s6.5 -10 6.5 -16v-65h42v65c0 6 2.16699 11.333 6.5 16s9.83301 7 16.5 7h76c19.333 1.33301 31.666 0 36.999 -4s8 -9.33301 8 -16z" />
    <glyph glyph-name="Ydieresis" unicode="&#x178;" horiz-adv-x="784" 
d="M745 404c0 -7.33301 -2.33301 -13.333 -7 -18s-10.667 -7 -18 -7h-60v-61c0 -7.33301 -2.5 -13.333 -7.5 -18s-11.167 -7 -18.5 -7h-173v-266c0 -7.33301 -2.33301 -13.5 -7 -18.5s-10.667 -7.5 -18 -7.5h-86c-7.33301 0 -13.333 2.5 -18 7.5s-7 11.167 -7 18.5v266h-173
c-7.33301 0 -13.333 2.33301 -18 7s-7 10.667 -7 18v61h-61c-7.33301 0 -13.333 2.33301 -18 7s-7 10.667 -7 18v354c0 7.33301 2.33301 13.333 7 18s10.667 7 18 7h86c7.33301 0 13.333 -2.33301 18 -7s7 -10.667 7 -18v-329h173c7.33301 0 13.333 -2.33301 18 -7
s7 -10.667 7 -18v-61h36v61c0 7.33301 2.33301 13.333 7 18s10.667 7 18 7h173v329c0 7.33301 2.5 13.333 7.5 18s10.833 7 17.5 7h86c7.33301 0 13.333 -2.33301 18 -7s7 -10.667 7 -18v-354v0zM231 860c-7.33301 0 -13.333 2.33301 -18 7s-7 10.667 -7 18v86
c0 7.33301 2.33301 13.333 7 18s10.667 7 18 7h87c7.33301 0 13.333 -2.33301 18 -7s7 -10.667 7 -18v-86c0 -7.33301 -2.33301 -13.333 -7 -18s-10.667 -7 -18 -7h-87v0zM458 860c-7.33301 0 -13.333 2.33301 -18 7s-7 10.667 -7 18v86c0 7.33301 2.33301 13.333 7 18
s10.667 7 18 7h86c7.33301 0 13.333 -2.33301 18 -7s7 -10.667 7 -18v-86c0 -7.33301 -2.33301 -13.333 -7 -18s-10.667 -7 -18 -7h-86v0z" />
    <glyph glyph-name="circumflex" unicode="&#x2c6;" horiz-adv-x="400" 
d="M361 586c0 -6.66699 -2.66797 -12 -8.00098 -16s-17.666 -5.33301 -36.999 -4h-76c-6.66699 0 -12.167 2.33301 -16.5 7s-6.5 10 -6.5 16v65h-42v-65c0 -6 -2.16699 -11.333 -6.5 -16s-9.5 -7 -15.5 -7h-99c-6.66699 0 -12.167 2.33301 -16.5 7s-6.5 9.66699 -6.5 15v88
c0 6.66699 2.33301 12.167 7 16.5s10 6.5 16 6.5h76v63c0 6.66699 2.16699 12.167 6.5 16.5s9.83301 6.5 16.5 6.5h87c6 0 11.167 -2.16699 15.5 -6.5s6.5 -9.83301 6.5 -16.5v-63h76c6.66699 0 12.167 -2.16699 16.5 -6.5s6.5 -9.83301 6.5 -16.5v-90v0z" />
    <glyph glyph-name="tilde" unicode="&#x2dc;" horiz-adv-x="458" 
d="M414 642c0 -4 -1.5 -7.66699 -4.5 -11s-6.5 -5 -10.5 -5h-48v-47c0 -4.66699 -1.5 -8.66699 -4.5 -12s-6.83301 -5 -11.5 -5h-73c-4.66699 0 -8.5 1.66699 -11.5 5s-4.5 7.33301 -4.5 12v47h-47c-4.66699 0 -8.66699 1.66699 -12 5s-5 7 -5 11v48h-39v-48
c0 -4 -1.5 -7.66699 -4.5 -11s-7.16699 -5 -12.5 -5h-63c-5.33301 0 -9.5 1.66699 -12.5 5s-4.5 7 -4.5 11v65c0 4.66699 1.5 8.66699 4.5 12s7.16699 5 12.5 5h46v45c0 5.33301 1.83301 9.5 5.5 12.5s7.5 4.5 11.5 4.5h73c4 0 7.66699 -1.5 11 -4.5s5 -7.16699 5 -12.5v-45
h47c5.33301 0 9.33301 -1.66699 12 -5s4 -7.33301 4 -12v-48h40v48c0 4.66699 1.66699 8.66699 5 12s7.33301 5 12 5h64c4 0 7.5 -1.66699 10.5 -5s4.5 -7.33301 4.5 -12v-65z" />
    <glyph glyph-name="endash" unicode="&#x2013;" horiz-adv-x="573" 
d="M540 232c0 -7.33301 -2.33301 -13.333 -7 -18s-10.667 -7 -18 -7h-460c-7.33301 0 -13.333 2.33301 -18 7s-7 10.667 -7 18v87c0 7.33301 2.33301 13.333 7 18s10.667 7 18 7h460c7.33301 0 13.333 -2.33301 18 -7s7 -10.667 7 -18v-26
c0 -4.66699 -0.166992 -7.5 -0.5 -8.5l-0.5 -1.5c0 0.666992 0 0 0 -2v-14c0 -7.33301 0.333008 -19 1 -35z" />
    <glyph glyph-name="emdash" unicode="&#x2014;" horiz-adv-x="800" 
d="M774 239c0 -7.33301 -2.33301 -13.333 -7 -18s-10.667 -7 -18 -7h-694c-7.33301 0 -13.333 2.33301 -18 7s-7 10.667 -7 18v87c0 7.33301 2.33301 13.333 7 18s10.667 7 18 7h694c7.33301 0 13.333 -2.33301 18 -7s7 -10.667 7 -18v-26
c0 -4.66699 -0.166992 -7.5 -0.5 -8.5l-0.5 -1.5c0 0.666992 0 0 0 -2v-14c0 -7.33301 0.333008 -19 1 -35z" />
    <glyph glyph-name="quoteleft" unicode="&#x2018;" horiz-adv-x="236" 
d="M177 584c0 -7.33301 -2.33301 -13.333 -7 -18s-10.667 -7 -18 -7h-86c-7.33301 0 -13.333 2.33301 -18 7s-7 10.667 -7 18v174c0 7.33301 2.33301 13.333 7 18s10.667 7 18 7h86c7.33301 0 13.333 -2.33301 18 -7s7 -10.667 7 -18v-174v0z" />
    <glyph glyph-name="quoteright" unicode="&#x2019;" horiz-adv-x="236" 
d="M177 584c0 -7.33301 -2.33301 -13.333 -7 -18s-10.667 -7 -18 -7h-86c-7.33301 0 -13.333 2.33301 -18 7s-7 10.667 -7 18v174c0 7.33301 2.33301 13.333 7 18s10.667 7 18 7h86c7.33301 0 13.333 -2.33301 18 -7s7 -10.667 7 -18v-174v0z" />
    <glyph glyph-name="quotesinglbase" unicode="&#x201a;" horiz-adv-x="236" 
d="M177 -81c0 -7.33301 -2.33301 -13.333 -7 -18s-10.667 -7 -18 -7h-86c-7.33301 0 -13.333 2.33301 -18 7s-7 10.667 -7 18v174c0 7.33301 2.33301 13.333 7 18s10.667 7 18 7h86c7.33301 0 13.333 -2.33301 18 -7s7 -10.667 7 -18v-174v0z" />
    <glyph glyph-name="quotedblleft" unicode="&#x201c;" horiz-adv-x="413" 
d="M177 584c0 -7.33301 -2.33301 -13.333 -7 -18s-10.667 -7 -18 -7h-86c-7.33301 0 -13.333 2.33301 -18 7s-7 10.667 -7 18v174c0 7.33301 2.33301 13.333 7 18s10.667 7 18 7h86c7.33301 0 13.333 -2.33301 18 -7s7 -10.667 7 -18v-174v0zM354 584
c0 -7.33301 -2.5 -13.333 -7.5 -18s-10.833 -7 -17.5 -7h-86c-7.33301 0 -13.333 2.33301 -18 7s-7 10.667 -7 18v174c0 7.33301 2.33301 13.333 7 18s10.667 7 18 7h86c6.66699 0 12.5 -2.33301 17.5 -7s7.5 -10.667 7.5 -18v-174v0z" />
    <glyph glyph-name="quotedblright" unicode="&#x201d;" horiz-adv-x="413" 
d="M177 584c0 -7.33301 -2.33301 -13.333 -7 -18s-10.667 -7 -18 -7h-86c-7.33301 0 -13.333 2.33301 -18 7s-7 10.667 -7 18v174c0 7.33301 2.33301 13.333 7 18s10.667 7 18 7h86c7.33301 0 13.333 -2.33301 18 -7s7 -10.667 7 -18v-174v0zM354 584
c0 -7.33301 -2.5 -13.333 -7.5 -18s-10.833 -7 -17.5 -7h-86c-7.33301 0 -13.333 2.33301 -18 7s-7 10.667 -7 18v174c0 7.33301 2.33301 13.333 7 18s10.667 7 18 7h86c6.66699 0 12.5 -2.33301 17.5 -7s7.5 -10.667 7.5 -18v-174v0z" />
    <glyph glyph-name="quotedblbase" unicode="&#x201e;" horiz-adv-x="413" 
d="M177 -79c0 -7.33301 -2.33301 -13.333 -7 -18s-10.667 -7 -18 -7h-86c-7.33301 0 -13.333 2.33301 -18 7s-7 10.667 -7 18v174c0 7.33301 2.33301 13.333 7 18s10.667 7 18 7h86c7.33301 0 13.333 -2.33301 18 -7s7 -10.667 7 -18v-174v0zM354 -79
c0 -7.33301 -2.5 -13.333 -7.5 -18s-10.833 -7 -17.5 -7h-86c-7.33301 0 -13.333 2.33301 -18 7s-7 10.667 -7 18v174c0 7.33301 2.33301 13.333 7 18s10.667 7 18 7h86c6.66699 0 12.5 -2.33301 17.5 -7s7.5 -10.667 7.5 -18v-174v0z" />
    <glyph glyph-name="dagger" unicode="&#x2020;" horiz-adv-x="583" 
d="M365 20l-21 -21h-92c-7.33301 0 -13.333 2.33301 -18 7s-7 10.667 -7 18v432h-161c-7.33301 0 -13.333 2.5 -18 7.5s-7 10.833 -7 17.5v86c0 6.66699 2.33301 12.5 7 17.5s10.667 7.5 18 7.5h161v166c0 7.33301 2.33301 13.333 7 18s10.667 7 18 7h87
c7.33301 0 13.333 -2.33301 18 -7s7 -10.667 7 -18v-166h161c7.33301 0 13.333 -2.5 18 -7.5s7 -10.833 7 -17.5v-86c0 -6.66699 -2.33301 -12.5 -7 -17.5s-10.667 -7.5 -18 -7.5h-161z" />
    <glyph glyph-name="daggerdbl" unicode="&#x2021;" horiz-adv-x="583" 
d="M364 21l-21 -21h-92c-7.33301 -0 -13.333 2.33301 -18 7s-7 10.667 -7 18l1 195h-160c-7.33301 0 -13.333 2.5 -18 7.5s-7 10.833 -7 17.5v86c0 6.66699 2.33301 12.5 7 17.5s10.667 7.5 18 7.5h160v100h-161c-7.33301 0 -13.333 2.5 -18 7.5s-7 10.833 -7 17.5v86
c0 6.66699 2.33301 12.5 7 17.5s10.667 7.5 18 7.5h161v166c0 7.33301 2.33301 13.333 7 18s10.667 7 18 7h87c7.33301 0 13.333 -2.33301 18 -7s7 -10.667 7 -18v-166h161c7.33301 0 13.333 -2.5 18 -7.5s7 -10.833 7 -17.5v-86c0 -6.66699 -2.33301 -12.5 -7 -17.5
s-10.667 -7.5 -18 -7.5h-160v-100h161c7.33301 0 13.333 -2.5 18 -7.5s7 -10.833 7 -17.5v-86c0 -6.66699 -2.33301 -12.5 -7 -17.5s-10.667 -7.5 -18 -7.5h-161z" />
    <glyph glyph-name="bullet" unicode="&#x2022;" horiz-adv-x="310" 
d="M263 322c0 -11.333 -3.66699 -20.666 -11 -27.999s-16.666 -11 -27.999 -11h-136c-11.333 0 -20.666 3.66699 -27.999 11s-11 16.666 -11 27.999v138c0 11.333 3.66699 20.666 11 27.999s16.666 11 27.999 11h136c11.333 0 20.666 -3.66699 27.999 -11
s11 -16.666 11 -27.999v-138v0z" />
    <glyph glyph-name="ellipsis" unicode="&#x2026;" horiz-adv-x="648" 
d="M608 24c0 -7.33301 -2.33301 -13.333 -7 -18s-10.667 -7 -18 -7h-86c-7.33301 0 -13.333 2.33301 -18 7s-7 10.667 -7 18v87c0 7.33301 2.33301 13.333 7 18s10.667 7 18 7h86c7.33301 0 13.333 -2.33301 18 -7s7 -10.667 7 -18v-87v0zM395 24
c0 -7.33301 -2.33301 -13.333 -7 -18s-10.667 -7 -18 -7h-86c-7.33301 0 -13.333 2.33301 -18 7s-7 10.667 -7 18v87c0 7.33301 2.33301 13.333 7 18s10.667 7 18 7h86c7.33301 0 13.333 -2.33301 18 -7s7 -10.667 7 -18v-87v0zM177 25c0 -7.33301 -2.33301 -13.333 -7 -18
s-10.667 -7 -18 -7h-86c-7.33301 -0 -13.333 2.33301 -18 7s-7 10.667 -7 18v87c0 7.33301 2.33301 13.333 7 18s10.667 7 18 7h86c7.33301 0 13.333 -2.33301 18 -7s7 -10.667 7 -18v-87v0z" />
    <glyph glyph-name="perthousand" unicode="&#x2030;" horiz-adv-x="795" 
d="M750 106c0 -7.33301 -2.33301 -13.333 -7 -18s-10.667 -7 -18 -7h-88c-7.33301 0 -13.333 2.33301 -18 7s-7 10.667 -7 18v175c0 7.33301 2.33301 13.333 7 18s10.667 7 18 7h88c7.33301 0 13.333 -2.33301 18 -7s7 -10.667 7 -18v-175v0zM552 112
c0 -7.33301 -2.33301 -13.333 -7 -18s-10.667 -7 -18 -7h-88c-7.33301 0 -13.333 2.33301 -18 7s-7 10.667 -7 18v175c0 7.33301 2.33301 13.333 7 18s10.667 7 18 7h88c7.33301 0 13.333 -2.33301 18 -7s7 -10.667 7 -18v-175v0zM495 576c0 -6 -2.16699 -11.167 -6.5 -15.5
s-9.83301 -6.5 -16.5 -6.5h-65v-162c0 -6 -2.16699 -11.167 -6.5 -15.5s-9.83301 -6.5 -16.5 -6.5h-65v-162c0 -6 -2.16699 -11.167 -6.5 -15.5s-9.5 -6.5 -15.5 -6.5h-66v-162c0 -6 -2.16699 -11.167 -6.5 -15.5s-9.5 -6.5 -15.5 -6.5h-88
c-6.66699 0 -12.167 2.16699 -16.5 6.5s-6.5 9.5 -6.5 15.5v184c0 6.66699 2.16699 12.167 6.5 16.5s9.83301 6.5 16.5 6.5h65v161c0 6.66699 2.16699 12.167 6.5 16.5s9.83301 6.5 16.5 6.5h65v161c0 6.66699 2.16699 12.167 6.5 16.5s9.83301 6.5 16.5 6.5h65v161
c0 6.66699 2.16699 12.167 6.5 16.5s9.5 6.5 15.5 6.5h88c6.66699 0 12.167 -2.16699 16.5 -6.5s6.5 -9.83301 6.5 -16.5v-184v0zM179 499c0 -7.33301 -2.33301 -13.333 -7 -18s-10.667 -7 -18 -7h-88c-7.33301 0 -13.333 2.33301 -18 7s-7 10.667 -7 18v175
c0 7.33301 2.33301 13.333 7 18s10.667 7 18 7h88c7.33301 0 13.333 -2.33301 18 -7s7 -10.667 7 -18v-175v0z" />
    <glyph glyph-name="guilsinglleft" unicode="&#x2039;" horiz-adv-x="288" 
d="M233 124l-90 -0.000976562c-6.66699 0 -12.167 2.16699 -16.5 6.5s-6.5 9.83301 -6.5 16.5v76h-63c-6.66699 0 -12.167 2.16699 -16.5 6.5s-6.5 9.5 -6.5 15.5v87c0 6.66699 2.16699 12.167 6.5 16.5s9.83301 6.5 16.5 6.5h63v76c0 6 2.16699 11.333 6.5 16
s9.83301 7 16.5 7h88c5.33301 0 10.333 -2.16699 15 -6.5s7 -9.83301 7 -16.5v-99c0 -6 -2.33301 -11.167 -7 -15.5s-10 -6.5 -16 -6.5h-65v-42h65c6 0 11.333 -2.16699 16 -6.5s7 -9.83301 7 -16.5v-76c1.33301 -19.333 0 -31.666 -4 -36.999s-9.33301 -8 -16 -8z" />
    <glyph glyph-name="guilsinglright" unicode="&#x203a;" horiz-adv-x="288" 
d="M55 454l90 0.000976562c6.66699 0 12.167 -2.16699 16.5 -6.5s6.5 -9.83301 6.5 -16.5v-76h63c6.66699 0 12.167 -2.16699 16.5 -6.5s6.5 -9.5 6.5 -15.5v-87c0 -6.66699 -2.16699 -12.167 -6.5 -16.5s-9.83301 -6.5 -16.5 -6.5h-63v-76c0 -6 -2.16699 -11.333 -6.5 -16
s-9.83301 -7 -16.5 -7h-88c-5.33301 0 -10.333 2.16699 -15 6.5s-7 9.83301 -7 16.5v99c0 6 2.33301 11.167 7 15.5s10 6.5 16 6.5h65v42h-65c-6 0 -11.333 2.16699 -16 6.5s-7 9.83301 -7 16.5v76c-1.33301 19.333 0 31.666 4 36.999s9.33301 8 16 8z" />
    <glyph glyph-name="currency" unicode="&#x20ac;" horiz-adv-x="859" 
d="M383 218v-80h407c7.33301 0 13.333 -2.33301 18 -7s7 -10.667 7 -18c0 -4 -0.166992 -8.16699 -0.5 -12.5s-0.5 -9.83301 -0.5 -16.5v-23c0 -9.33301 0.333008 -21 1 -35c0 -7.33301 -2.33301 -13.333 -7 -18s-10.667 -7 -18 -7h-432c-7.33301 0 -13.333 2.33301 -18 7
s-7 10.667 -7 18v62h-61c-7.33301 0 -13.333 2.33301 -18 7s-7 10.667 -7 18v105h-205c-7.33301 0 -13.333 2.5 -18 7.5s-7 10.833 -7 17.5v86c0 6.66699 2.33301 12.5 7 17.5s10.667 7.5 18 7.5h205v88h-114c-7.33301 0 -13.333 2.5 -18 7.5s-7 10.833 -7 17.5v86
c0 6.66699 2.33301 12.5 7 17.5s10.667 7.5 18 7.5h114v94c0 7.33301 2.33301 13.333 7 18s10.667 7 18 7h61v61c0 7.33301 2.33301 13.333 7 18c6 4.66699 12 7 18 7h432c7.33301 0 13.333 -2.33301 18 -7s7 -10.667 7 -18v-86c0 -7.33301 -2.33301 -13.333 -7 -18
s-10.667 -7 -18 -7h-407v-69h209c7.33301 0 13.333 -2.5 18 -7.5s7 -10.833 7 -17.5v-86c0 -6.66699 -2.33301 -12.5 -7 -17.5s-10.667 -7.5 -18 -7.5h-209v-88h118c7.33301 0 13.333 -2.5 18 -7.5s7 -10.833 7 -17.5v-86c0 -6.66699 -2.33301 -12.5 -7 -17.5
s-10.667 -7.5 -18 -7.5h-118z" />
    <glyph glyph-name="trademark" unicode="&#x2122;" horiz-adv-x="1242" 
d="M489 675c0 -7.33301 -2.33203 -13.332 -6.99902 -17.999s-10.667 -7 -18 -7h-127c0.666992 -0.666992 1.16699 -3 1.5 -7s0.666016 -15 0.999023 -33s0.5 -45.333 0.5 -82s-0.333008 -87.334 -1 -152.001c0 -7.33301 -2.5 -13.333 -7.5 -18s-10.833 -7 -17.5 -7h-86
c-7.33301 0 -13.333 2.33301 -18 7s-7 10.667 -7 18l1 274h-133c-7.33301 0 -13.333 2.33301 -18 7s-7 10.667 -7 18v86c0 7.33301 2.33301 13.333 7 18s10.667 7 18 7h159c7.33301 0 13.333 -2.33301 18 -7s7 -10.667 7 -18v-61h35v61c0 7.33301 2.5 13.333 7.5 18
s11.167 7 18.5 7h148c7.33301 0 13.333 -2.33301 18 -7s7 -10.667 7 -18v-86zM1194 373.001c0 -7.33301 -2.33301 -13.334 -7 -18.001s-10.667 -7 -18 -7h-86c-7.33301 0 -13.333 2.33301 -18 7s-7 10.667 -7 18v278h-129v-278c0 -7.33301 -2.33301 -13.333 -7 -18
s-10.667 -7 -18 -7h-87c-7.33301 0 -13.333 2.33301 -18 7s-7 10.667 -7 18v116v77c0 20.667 -0.166992 36.334 -0.5 47.001s-0.5 18.667 -0.5 24v10v4h-124v-278c0 -7.33301 -2.33301 -13.333 -7 -18s-10.667 -7 -18 -7h-86c-7.33301 0 -13.333 2.33301 -18 7
s-7 10.667 -7 18v389c0 7.33301 2.33301 13.333 7 18s10.667 7 18 7h260c7.33301 0 13.333 -2.33301 18 -7s7 -10.667 7 -18v-61h37v61c0 7.33301 2.33301 13.333 7 18s10.667 7 18 7h266c7.33301 0 13.333 -2.33301 18 -7s7 -10.667 7 -18v-389v0z" />
    <glyph glyph-name=".null" horiz-adv-x="0" 
 />
    <glyph glyph-name="nonmarkingreturn" horiz-adv-x="500" 
 />
    </font>
</defs>
</svg>
