<?xml version="1.0" encoding="utf-8"?>
<!-- Generator: Adobe Illustrator 18.0.0, SVG Export Plug-In . SVG Version: 6.00 Build 0)  -->
<!DOCTYPE svg PUBLIC "-//W3C//DTD SVG 1.1//EN" "http://www.w3.org/Graphics/SVG/1.1/DTD/svg11.dtd">
<svg version="1.1" id="Calque_1" xmlns="http://www.w3.org/2000/svg" xmlns:xlink="http://www.w3.org/1999/xlink" x="0px" y="0px"
	 viewBox="0 0 595.3 841.9" enable-background="new 0 0 595.3 841.9" xml:space="preserve">
<g>
	<g>
		<path fill="#FFFFFF" d="M229.5,664.2c-53.5,0-107.1,0-160.6,0c0-161.7,0-323.3,0-485c53.5,0,107.1,0,160.6,0c0,10.8,0,21.6,0,32.8
			c-20.4,0-40.3,0-60.4,0c0,11.1,0,21.8,0,32.5c-10.8,0-21.6,0-32.6,0c0,13.3,0,26.1,0,39c-10.8,0-21.6,0-32.6,0c0,20.7,0,41,0,61.2
			c-10.8,0-21.6,0-32.4,0c0,51.6,0,102.8,0,154.1c11,0,21.7,0,32.4,0c0,20.3,0,40.7,0,61.2c11.2,0,21.9,0,32.6,0c0,12.9,0,25.8,0,39
			c11.2,0,21.9,0,32.6,0c0,10.8,0,21.6,0,32.8c20.3,0,40.2,0,60.4,0C229.5,642.9,229.5,653.6,229.5,664.2z"/>
		<path fill="#FFFFFF" d="M393.3,179.2c53.5,0,107.1,0,160.6,0c0,161.7,0,323.3,0,485c-53.5,0-107.1,0-160.6,0c0-10.8,0-21.6,0-32.8
			c20.4,0,40.3,0,60.4,0c0-11.1,0-21.8,0-32.5c10.8,0,21.6,0,32.6,0c0-13.3,0-26.1,0-39c10.8,0,21.6,0,32.6,0c0-20.7,0-41,0-61.2
			c10.8,0,21.6,0,32.4,0c0-51.6,0-102.8,0-154.1c-11,0-21.7,0-32.4,0c0-20.3,0-40.7,0-61.2c-11.2,0-21.9,0-32.6,0
			c0-12.9,0-25.8,0-39c-11.2,0-21.9,0-32.6,0c0-10.8,0-21.6,0-32.8c-20.3,0-40.2,0-60.4,0C393.3,200.6,393.3,189.9,393.3,179.2z"/>
		<path d="M393.3,179.2c0,10.7,0,21.4,0,32.5c20.1,0,40,0,60.4,0c0,11.2,0,22,0,32.8l0.1-0.1c-20.3,0-40.7,0-61.5,0
			c0-11.1,0-21.8,0-32.3c-54.2,0-107.9,0-162.1,0c0,10.8,0,21.5,0,32.3c-20.7,0-40.9,0-61.2,0l0.1,0.1c0-10.7,0-21.4,0-32.5
			c20.1,0,40,0,60.4,0c0-11.2,0-22,0-32.8C284.1,179.2,338.7,179.2,393.3,179.2z"/>
		<path d="M453.6,599c0,10.7,0,21.4,0,32.5c-20.1,0-40,0-60.4,0c0,11.2,0,22,0,32.8c-54.6,0-109.2,0-163.8,0c0-10.7,0-21.4,0-32.5
			c-20.1,0-40,0-60.4,0c0-11.2,0-22,0-32.8l-0.1,0.1c20.3,0,40.7,0,61.5,0c0,11.1,0,21.8,0,32.3c54.2,0,107.9,0,162.1,0
			c0-10.8,0-21.5,0-32.3c20.7,0,40.9,0,61.2,0L453.6,599z"/>
		<path d="M103.9,498.8c-10.7,0-21.4,0-32.4,0c0-51.3,0-102.5,0-154.1c10.8,0,21.6,0,32.4,0l-0.1-0.1c0,51.5,0,102.9,0,154.4
			L103.9,498.8z"/>
		<path d="M103.9,344.7c0-20.2,0-40.5,0-61.2c11,0,21.8,0,32.6,0l-0.1-0.1c0,20.3,0,40.7,0,61.2c-11.2,0-21.9,0-32.6,0L103.9,344.7z
			"/>
		<path d="M136.5,560c-10.7,0-21.4,0-32.6,0c0-20.5,0-40.9,0-61.2c0,0-0.1,0.1-0.1,0.1c10.8,0,21.6,0,32.6,0c0,20.7,0,41,0,61.2
			L136.5,560z"/>
		<path d="M136.5,283.5c0-12.8,0-25.7,0-39c11,0,21.8,0,32.6,0c0,0-0.1-0.1-0.1-0.1c0,12.9,0,25.8,0,39c-11.2,0-21.9,0-32.6,0
			L136.5,283.5z"/>
		<path d="M169.1,599c-10.7,0-21.4,0-32.6,0c0-13.1,0-26,0-39c0,0-0.1,0.1-0.1,0.1c10.8,0,21.6,0,32.6,0c0,13.3,0,26.1,0,39
			L169.1,599z"/>
		<path d="M518.8,344.7c10.7,0,21.4,0,32.4,0c0,51.3,0,102.5,0,154.1c-10.8,0-21.6,0-32.4,0l0.1,0.1c0-51.5,0-102.9,0-154.4
			L518.8,344.7z"/>
		<path d="M486.2,283.5c10.7,0,21.4,0,32.6,0c0,20.5,0,40.9,0,61.2c0,0,0.1-0.1,0.1-0.1c-10.8,0-21.6,0-32.6,0c0-20.7,0-41,0-61.2
			L486.2,283.5z"/>
		<path d="M518.8,498.8c0,20.2,0,40.5,0,61.2c-11,0-21.8,0-32.6,0l0.1,0.1c0-20.3,0-40.7,0-61.2c11.2,0,21.9,0,32.6,0L518.8,498.8z"
			/>
		<path d="M453.6,244.5c10.7,0,21.4,0,32.6,0c0,13.1,0,26,0,39c0,0,0.1-0.1,0.1-0.1c-10.8,0-21.6,0-32.6,0c0-13.3,0-26.1,0-39
			L453.6,244.5z"/>
		<path d="M486.2,560c0,12.8,0,25.7,0,39c-11,0-21.8,0-32.6,0c0,0,0.1,0.1,0.1,0.1c0-12.9,0-25.8,0-39c11.2,0,21.9,0,32.6,0
			L486.2,560z"/>
		<path fill="#FFFFFF" d="M486.3,560.1c-10.7,0-21.4,0-32.6,0c0,13.1,0,26,0,39c-20.2,0-40.5,0-61.2,0c0,10.9,0,21.5,0,32.3
			c-54.2,0-107.9,0-162.1,0c0-10.6,0-21.2,0-32.3c-20.8,0-41.1,0-61.5,0c0-12.8,0-25.6,0-39c-11,0-21.8,0-32.6,0
			c0-20.2,0-40.5,0-61.2c-11,0-21.8,0-32.6,0c0-51.5,0-102.9,0-154.4c10.7,0,21.4,0,32.6,0c0-20.5,0-40.9,0-61.2
			c10.7,0,21.4,0,32.6,0c0-13.1,0-26,0-39c20.2,0,40.5,0,61.2,0c0-10.9,0-21.5,0-32.3c54.2,0,107.9,0,162.1,0c0,10.6,0,21.2,0,32.3
			c20.8,0,41.1,0,61.5,0c0,12.8,0,25.6,0,39c11,0,21.8,0,32.6,0c0,20.2,0,40.5,0,61.2c11,0,21.8,0,32.6,0c0,51.5,0,102.9,0,154.4
			c-10.7,0-21.4,0-32.6,0C486.3,519.5,486.3,539.8,486.3,560.1z M265.3,460.7c0-5.8,0-11.1,0-16.8c3.8,0,7.3,0,11.2,0
			c0-4.2,0-8,0-12c4.1,0,7.8,0,11.9,0c0-10.9,0-21.6,0-32.2c15.6,0,30.7,0,46.2,0c0,10.9,0,21.4,0,32.4c4,0,7.8,0,12,0
			c0,4.2,0,8,0,12c3.8,0,7.2,0,11.1,0c0,5.6,0,11,0,16.6c4.1,0,7.8,0,11.9,0c0,6.7,0,13.1,0,19.9c4.2,0,8,0,12,0c0,4.4,0,8.3,0,12.3
			c36.4,0,72.5,0,109,0c0-4,0-7.8,0-11.8c3.8,0,7.2,0,11.1,0c0-7.2,0-14.2,0-21.5c3.9,0,7.4,0,10.8,0c0-37.7,0-75.1,0-112.4
			c-59.4,0-118.5,0-177.9,0c0,6.9,0,13.4,0,20.1c-15.4,0-30.6,0-46.2,0c0-6.9,0-13.6,0-20.2c-59.5,0-118.5,0-177.7,0
			c0,37.6,0,75,0,112.8c3.7,0,7.2,0,11,0c0,7.3,0,14.1,0,21.4c3.8,0,7.3,0,11.2,0c0,4.2,0,8,0,11.6c36.4,0,72.4,0,108.8,0
			c0-4.2,0-8.3,0-12.6c4.1,0,7.8,0,11.9,0c0-6.7,0-13.1,0-19.8C257.5,460.7,261.1,460.7,265.3,460.7z M284.9,543.7
			c-17.3,0-34.3,0-51.3,0c0,7.4,0,14.5,0,21.7c17.2,0,34.1,0,51.3,0C284.9,558.1,284.9,551,284.9,543.7z"/>
		<path d="M265.3,460.7c-4.2,0-7.9,0-12,0c0,6.7,0,13.1,0,19.8c-4.1,0-7.8,0-11.9,0c0,4.3,0,8.3,0,12.6c-36.4,0-72.4,0-108.8,0
			c0-3.7,0-7.4,0-11.6c-3.9,0-7.4,0-11.2,0c0-7.3,0-14.1,0-21.4c-3.8,0-7.3,0-11,0c0-37.8,0-75.2,0-112.8c59.2,0,118.2,0,177.7,0
			c0,6.7,0,13.3,0,20.2c15.6,0,30.7,0,46.2,0c0-6.7,0-13.3,0-20.1c59.4,0,118.6,0,177.9,0c0,37.3,0,74.6,0,112.4
			c-3.4,0-6.9,0-10.8,0c0,7.4,0,14.3,0,21.5c-3.8,0-7.2,0-11.1,0c0,4,0,7.8,0,11.8c-36.5,0-72.6,0-109,0c0-4,0-7.9,0-12.3
			c-4,0-7.8,0-12,0c0-6.8,0-13.2,0-19.9c-4.1,0-7.8,0-11.9,0c0-5.6,0-11,0-16.6c-3.8,0-7.2,0-11.1,0c0-4,0-7.8,0-12
			c-4.2,0-7.9,0-12,0c0-11,0-21.5,0-32.4c-15.4,0-30.6,0-46.2,0c0,10.6,0,21.2,0,32.2c-4.1,0-7.8,0-11.9,0c0,4,0,7.8,0,12
			c-3.9,0-7.4,0-11.2,0C265.3,449.6,265.3,454.9,265.3,460.7z M272.3,363.1c-48.9,0-97.3,0-145.9,0c0,29.7,0,59.1,0,89
			c3.7,0,7.2,0,11,0c0,6.5,0,12.5,0,18.7c33.5,0,66.6,0,100.2,0c0-3.7,0-7.2,0-11c4.1,0,7.8,0,11.9,0c0-5.9,0-11.5,0-17.6
			c3.9,0,7.4,0,11.2,0c0-4.9,0-9.4,0-14.2c4,0,7.8,0,11.7,0C272.3,406.2,272.3,384.8,272.3,363.1z M496.4,452.1c0-30,0-59.5,0-88.9
			c-48.8,0-97.4,0-145.8,0c0,21.7,0,43.1,0,65c4,0,7.7,0,11.9,0c0,5,0,9.6,0,14.4c3.8,0,7.2,0,11.1,0c0,5.9,0,11.5,0,17.4
			c4.1,0,7.8,0,11.9,0c0,3.8,0,7.3,0,10.8c33.6,0,66.8,0,100.2,0c0-6.3,0-12.4,0-18.7C489.3,452.1,492.7,452.1,496.4,452.1z"/>
		<path d="M284.9,543.7c0,7.3,0,14.4,0,21.7c-17.1,0-34.1,0-51.3,0c0-7.3,0-14.4,0-21.7C250.6,543.7,267.6,543.7,284.9,543.7z"/>
		<path fill="#FFFFFF" d="M272.3,363.1c0,21.7,0,43.1,0,65c-3.8,0-7.6,0-11.7,0c0,4.9,0,9.3,0,14.2c-3.8,0-7.3,0-11.2,0
			c0,6,0,11.7,0,17.6c-4.1,0-7.8,0-11.9,0c0,3.8,0,7.3,0,11c-33.6,0-66.8,0-100.2,0c0-6.2,0-12.3,0-18.7c-3.8,0-7.3,0-11,0
			c0-29.9,0-59.4,0-89C174.9,363.1,223.4,363.1,272.3,363.1z"/>
		<path fill="#FFFFFF" d="M496.4,452.1c-3.7,0-7.1,0-10.8,0c0,6.3,0,12.4,0,18.7c-33.5,0-66.6,0-100.2,0c0-3.5,0-7,0-10.8
			c-4.1,0-7.8,0-11.9,0c0-5.9,0-11.5,0-17.4c-3.8,0-7.2,0-11.1,0c0-4.8,0-9.4,0-14.4c-4.2,0-7.9,0-11.9,0c0-21.9,0-43.3,0-65
			c48.5,0,97,0,145.8,0C496.4,392.6,496.4,422,496.4,452.1z"/>
	</g>
</g>
</svg>
